<?xml version="1.0" encoding="UTF-8" standalone="no"?>
<svg
   height="857.5"
   viewBox="0 0 174.65777 150.3949"
   width="1000"
   version="1.1"
   id="svg10"
   sodipodi:docname="Scuderia AlphaTauri Logo.svg"
   xml:space="preserve"
   inkscape:version="1.4 (86a8ad7, 2024-10-11)"
   xmlns:inkscape="http://www.inkscape.org/namespaces/inkscape"
   xmlns:sodipodi="http://sodipodi.sourceforge.net/DTD/sodipodi-0.dtd"
   xmlns="http://www.w3.org/2000/svg"
   xmlns:svg="http://www.w3.org/2000/svg"><defs
     id="defs10" /><sodipodi:namedview
     id="namedview10"
     pagecolor="#ffffff"
     bordercolor="#000000"
     borderopacity="0.25"
     inkscape:showpageshadow="2"
     inkscape:pageopacity="0.0"
     inkscape:pagecheckerboard="0"
     inkscape:deskcolor="#d1d1d1"
     inkscape:zoom="0.69749048"
     inkscape:cx="623.66443"
     inkscape:cy="446.60108"
     inkscape:window-width="1920"
     inkscape:window-height="1017"
     inkscape:window-x="-8"
     inkscape:window-y="-8"
     inkscape:window-maximized="1"
     inkscape:current-layer="svg10" /><g
     fill="#011321"
     stroke-width="1.7705"
     transform="matrix(1.6530646,0,0,1.6530646,-752.99187,-55.962919)"
     id="g10"><path
       d="m 460.16,36.734 c -0.2461,-0.10547 -0.57032,-0.20703 -0.96875,-0.30469 -0.32032,-0.07813 -0.57422,-0.15625 -0.75391,-0.23047 -0.17578,-0.07422 -0.30859,-0.16797 -0.39844,-0.28516 -0.0859,-0.11328 -0.13281,-0.26953 -0.13281,-0.45703 0,-0.27734 0.0937,-0.49219 0.28125,-0.65234 0.19141,-0.16016 0.46875,-0.24219 0.82031,-0.24219 0.86719,0 1.2852,0.40625 1.2852,1.2344 v 0.05859 h 0.60156 v -0.05859 c 0,-0.58203 -0.16406,-1.0312 -0.48047,-1.3281 -0.3164,-0.30078 -0.78906,-0.45312 -1.4062,-0.45312 -0.34375,0 -0.65234,0.0625 -0.90625,0.18359 -0.25781,0.12109 -0.45703,0.29297 -0.58984,0.51172 -0.13672,0.21484 -0.20313,0.47266 -0.20313,0.75391 0,0.33203 0.0703,0.59766 0.21094,0.79688 0.14063,0.19531 0.33594,0.35156 0.57813,0.45703 0.23437,0.10547 0.55468,0.20703 0.94921,0.30469 0.33985,0.08984 0.60547,0.17187 0.79297,0.24609 0.17969,0.07422 0.31641,0.16797 0.41016,0.28516 0.0937,0.11328 0.14062,0.27344 0.14062,0.46875 0,0.31641 -0.10546,0.5625 -0.3164,0.73047 -0.21094,0.17578 -0.52735,0.26172 -0.9336,0.26172 -0.42578,0 -0.76171,-0.10938 -0.99609,-0.32812 -0.23047,-0.21484 -0.34766,-0.55859 -0.34766,-1.0156 V 37.613 h -0.59375 v 0.05859 c 0,0.61328 0.17188,1.0859 0.50782,1.4102 0.33593,0.32422 0.8164,0.48828 1.4297,0.48828 0.5625,0 1.0156,-0.14062 1.3438,-0.41797 0.33594,-0.28125 0.50391,-0.66406 0.50391,-1.1367 0,-0.33984 -0.0781,-0.61328 -0.22656,-0.81641 -0.15235,-0.20312 -0.35547,-0.35938 -0.60156,-0.46484"
       id="path1" /><path
       d="m 472.91,37.625 c -0.0547,0.42188 -0.22265,0.76172 -0.49609,1.0117 -0.27344,0.24609 -0.6211,0.37109 -1.0312,0.37109 -0.33985,0 -0.64063,-0.08984 -0.89063,-0.26172 -0.25,-0.17578 -0.44531,-0.43359 -0.58203,-0.76172 -0.13281,-0.33203 -0.20312,-0.73438 -0.20312,-1.1914 0,-0.45702 0.0703,-0.85938 0.20312,-1.1914 0.13672,-0.32812 0.33203,-0.58594 0.58594,-0.76172 0.25391,-0.17188 0.55469,-0.26172 0.90234,-0.26172 0.41407,0 0.76172,0.125 1.0274,0.36328 0.26562,0.24609 0.41797,0.57422 0.45703,0.98828 l 0.004,0.05078 h 0.61329 l -0.004,-0.05859 c -0.0195,-0.36328 -0.11719,-0.69141 -0.28906,-0.98047 -0.17188,-0.28516 -0.41407,-0.51562 -0.72657,-0.67969 -0.30859,-0.16406 -0.67187,-0.24609 -1.082,-0.24609 -0.47265,0 -0.88672,0.11328 -1.2344,0.33594 -0.34766,0.22656 -0.61719,0.55078 -0.80078,0.96484 -0.1836,0.41406 -0.27735,0.91016 -0.27735,1.4766 0,0.56641 0.0937,1.0625 0.27735,1.4766 0.18359,0.41406 0.45312,0.73828 0.79687,0.96484 0.34375,0.22266 0.75781,0.33594 1.2227,0.33594 0.39844,0 0.75781,-0.07812 1.0703,-0.23828 0.30859,-0.16016 0.55859,-0.38672 0.73828,-0.67578 0.17969,-0.28906 0.29297,-0.63281 0.33203,-1.0156 l 0.008,-0.0625 h -0.61329 z"
       id="path2" /><path
       d="m 484.86,37.465 c 0,0.51172 -0.12109,0.90234 -0.35156,1.1602 -0.23047,0.25391 -0.5625,0.38281 -0.98828,0.38281 -0.42578,0 -0.76172,-0.12891 -0.99219,-0.38281 -0.23438,-0.25781 -0.35156,-0.64844 -0.35156,-1.1602 v -3.3516 h -0.58985 v 3.3594 c 0,0.67578 0.16797,1.1992 0.4961,1.5547 0.33203,0.35938 0.8164,0.54297 1.4375,0.54297 0.625,0 1.1094,-0.17969 1.4375,-0.53906 0.32812,-0.35547 0.49218,-0.87891 0.49218,-1.5586 v -3.3594 H 484.86 Z"
       id="path3" /><path
       d="m 495.16,34.113 h -1.5898 v 5.3633 h 1.5898 c 0.86718,0 1.5469,-0.23828 2.0234,-0.69922 0.47266,-0.46484 0.71485,-1.1328 0.71485,-1.9844 0,-0.85156 -0.24219,-1.5195 -0.71485,-1.9844 -0.47656,-0.46094 -1.1602,-0.69531 -2.0234,-0.69531 m 2.1172,2.6797 c 0,0.68359 -0.18359,1.2148 -0.54687,1.582 -0.36328,0.3672 -0.89453,0.55078 -1.5703,0.55078 h -1 v -4.2656 h 1 c 0.67578,0 1.207,0.18359 1.5703,0.55078 0.36328,0.36719 0.54687,0.89844 0.54687,1.582"
       id="path4" /><path
       d="m 506.8,36.996 h 2.6484 V 36.44912 H 506.8 v -1.7891 h 2.7891 v -0.54688 h -3.3828 v 5.3594 h 3.4688 v -0.54688 h -2.875 z"
       id="path5" /><path
       d="m 521.14,37.16 c -0.0859,-0.10938 -0.19531,-0.19141 -0.33203,-0.25391 0.25,-0.08203 0.46094,-0.22656 0.62109,-0.4375 0.19532,-0.24609 0.29297,-0.54688 0.29297,-0.89844 0,-0.46875 -0.15625,-0.83203 -0.46875,-1.0859 -0.30469,-0.24609 -0.77344,-0.37109 -1.3867,-0.37109 h -1.5976 v 5.3594 h 0.59375 v -2.3125 h 1.0273 c 0.27734,0 0.49219,0.05859 0.63281,0.17188 0.14453,0.11328 0.27344,0.33203 0.38282,0.64453 l 0.51171,1.4961 h 0.64454 l -0.57813,-1.6055 c -0.12109,-0.32813 -0.23437,-0.56641 -0.34375,-0.70703 m -0.0234,-1.5703 c 0,0.30859 -0.10156,0.55469 -0.30468,0.74219 -0.19922,0.18359 -0.51172,0.28125 -0.91407,0.28125 h -1.0352 v -1.9531 h 0.99609 c 0.84375,0 1.2578,0.30469 1.2578,0.92969"
       id="path6" /><path
       d="m 532.07,39.473 h 0.59375 V 34.1136 H 532.07 Z"
       id="path7" /><path
       d="m 544.95,34.113 h -0.73046 l -2.125,5.3633 h 0.63671 l 0.65625,-1.6992 h 2.3867 l 0.64063,1.6602 0.0156,0.03906 h 0.63672 z m -0.37109,0.58203 0.79688,2.0586 0.17968,0.46875 h -1.9531 l 0.18359,-0.46875 c 0.2461,-0.62891 0.5,-1.2812 0.75,-1.9453 z"
       id="path8" /><path
       d="m 516.64,96.426 c 0.34375,0.35938 0.75782,0.47266 1.2305,0.30469 v 6.2305 c 0,0 0,-0.0117 -0.73047,-0.0117 -5.5156,-0.125 -10.613,-1.9492 -14.789,-4.9766 2.2695,-2.1172 4.7812,-5.4414 6.2656,-8.6992 0.94531,0.03125 2.1172,0.01562 3.6953,-0.16797 0.80859,-0.09375 1.2852,-0.10156 2.0938,-0.13281 0.32812,-0.01172 0.91797,-0.20703 0.82812,-0.8125 -0.0508,-0.36328 -0.24609,-0.86328 -0.39843,-1.2539 -0.17969,-0.45703 0.41015,-0.71875 0.64062,-0.35938 0.13281,0.21094 0.42188,0.89453 0.51953,1.1211 0.19141,0.4375 0.70703,0.95703 1.082,1.2305 0.32032,0.23437 0.66797,0.41797 1.043,0.55469 0.75391,0.26953 1.4141,0.70703 1.9922,1.2578 0.17969,0.17187 0.33984,0.36719 0.48828,0.56641 0.51953,0.67969 0.66406,1.0156 -0.0547,1.832 -0.64843,0.73828 -1.4375,1.1836 -2.4023,1.3203 -0.64844,0.08984 -1.1484,-0.12109 -1.4258,-0.75 -0.0508,-0.11328 -0.11328,-0.22266 -0.17578,-0.33203 -0.1211,-0.21484 -0.23828,-0.4375 -0.37891,-0.64453 -0.19922,-0.29688 -0.47656,-0.46484 -0.84765,-0.40625 -0.59766,0.08984 -1.1914,0.18359 -1.7852,0.29688 -0.10156,0.01953 -0.34766,0.17969 -0.28125,0.23438 0.31641,0.54688 0.66406,1.043 1.0664,1.4922 0.1914,0.21484 0.42187,0.31641 0.71875,0.30469 0.57812,-0.02344 0.60156,0 0.83984,0.52344 0.11328,0.24609 0.22266,0.49609 0.35937,0.72656 0.11329,0.19531 0.25,0.38281 0.40625,0.55078 m 2.1797,-5.1133 c -0.53125,0.01953 -1.0508,0.11719 -1.5976,0.24609 0.0195,0.48047 0.1875,0.87891 0.36718,1.2695 0.16016,0.34375 0.32032,0.4375 0.69141,0.39062 0.20312,-0.02734 0.41016,-0.08984 0.58984,-0.18359 0.35938,-0.20312 0.48828,-0.55469 0.39453,-0.96094 -0.0625,-0.26953 -0.19531,-0.5 -0.44531,-0.76172 m 15.18,-7.7774 c -0.14453,-0.45312 -0.40625,-0.81641 -0.78516,-1.1016 -0.3164,-0.23438 -0.6289,-0.47266 -0.95703,-0.69531 -0.13672,-0.09375 -0.29687,-0.14453 -0.45312,-0.20703 -0.19922,-0.08203 -0.36719,-0.01563 -0.4961,0.14844 -0.11328,0.14844 -0.20703,0.3125 -0.32422,0.46094 -0.14062,0.18359 -0.33203,0.23438 -0.55468,0.16797 -0.20313,-0.05859 -0.3086,-0.21875 -0.31641,-0.48047 -0.004,-0.10547 -0.004,-0.21484 0.0195,-0.3125 0.17578,-0.69531 0.46485,-1.3359 0.90625,-1.9023 0.0625,-0.08203 0.14063,-0.15234 0.22266,-0.21484 0.21484,-0.16406 0.41797,-0.15625 0.625,0.0078 0.74609,0.75391 1.3828,1.3555 2.0625,1.9062 0.73437,0.59375 0.93359,1.4453 1.0625,2.3086 -0.0234,0.125 -0.0273,0.23047 -0.0625,0.32422 -0.0547,0.14453 -0.16797,0.23438 -0.33203,0.24609 -0.14844,0.01172 -0.30078,-0.0039 -0.38282,-0.14844 -0.0898,-0.16016 -0.17578,-0.33203 -0.23437,-0.50781 m -1.5195,4.0469 c 0.28515,-0.07813 0.47656,0.08203 0.51953,0.375 0.0156,0.125 0.0156,0.24609 0.0195,0.30469 0,0.82812 -0.23047,1.2227 -1.2109,1.293 -0.41015,-0.02344 -0.53125,-0.13281 -0.57031,-0.34375 -0.0898,-0.53516 0.0703,-0.99219 0.50781,-1.3086 0.21094,-0.15625 0.47657,-0.24609 0.73438,-0.32031 m 28.781,-37.125 -6.1055,16.941 h -7.7891 v 9.3086 c -0.008,0.25 0.004,0.5 0,0.75 -0.0977,13.887 -11.258,25.148 -25.043,25.484 l -1.2852,0.0195 v -7.7266 l 0.46875,-0.20703 c 0.39063,-0.16406 0.72656,-0.39453 0.94531,-0.77344 0.2461,-0.41797 0.60938,-0.58594 1.0977,-0.58203 0.67188,0.0039 0.79688,-0.12109 0.92578,-0.75781 0.11719,-0.69531 0.20703,-1.2734 0.32813,-1.8438 0.11328,-0.53516 0.0547,-1.0391 -0.24219,-1.5 -0.52344,-0.82422 -1.0469,-1.6523 -1.5938,-2.4609 -0.37891,-0.55469 -0.57813,-0.58203 -1.0938,-0.11719 l 0.47266,0.87891 c 0.375,0.52344 0.75781,1.0469 1.1211,1.582 0.11719,0.16797 0.22266,0.36328 0.25391,0.55859 0.13671,0.82812 0.0117,1.6211 -0.38672,2.3594 -0.0508,0.08984 -0.17578,0.14062 -0.29297,0.22656 -0.0664,-0.13672 -0.13281,-0.22266 -0.15235,-0.31641 -0.0312,-0.1875 -0.0508,-0.375 -0.0469,-0.5625 0,-0.69141 -0.22266,-1.293 -0.66016,-1.8398 -0.53515,-0.66406 -1.0312,-1.3594 -1.5312,-2.0508 -0.48828,-0.66797 -0.42578,-1.375 0.16407,-1.9648 0.2539,-0.24609 0.51953,-0.48047 0.78125,-0.72266 0.36328,-0.32812 0.63281,-0.71875 0.79687,-1.1758 0.12891,-0.35156 0.24609,-0.71094 0.32813,-1.0742 0.19921,-0.89844 0.2539,-1.8125 0.24218,-2.7344 l 0.008,-0.6875 c 0,-0.17188 0.0625,-0.32422 0.18359,-0.44922 0.19531,-0.19922 0.49609,-0.18359 0.64453,0.05469 0.0859,0.13672 0.15625,0.29297 0.19141,0.45312 0.17968,0.79688 0.27734,1.6016 0.1875,2.418 -0.11328,1.0195 -0.32032,2.0117 -0.62891,2.9883 -0.0625,0.19141 -0.16797,0.375 -0.12109,0.625 0.16015,0 0.30078,0.01563 0.4414,0 0.28907,-0.03516 0.57813,-0.09375 0.86719,-0.12891 0.98438,-0.10938 1.8398,-0.48047 2.5312,-1.2109 0.31641,-0.33203 0.66406,-0.63281 1,-0.94922 0.12891,-0.12109 0.27734,-0.17969 0.45313,-0.10547 0.16406,0.07031 0.26171,0.25 0.20703,0.47266 -0.0547,0.24219 -0.125,0.48438 -0.23438,0.70703 -0.17969,0.375 -0.3789,0.74219 -0.60547,1.0898 -0.48047,0.73438 -0.88672,1.5039 -1.1953,2.3281 -0.1875,0.50781 -0.40625,1.0039 -0.58203,1.5117 -0.17578,0.51562 -0.0508,0.66016 0.46875,0.59375 0.41406,-0.05078 0.52734,0.03906 0.55469,0.44922 0.0117,0.16406 -0.004,0.33203 0,0.49609 0.004,0.1875 0,0.37891 0.0312,0.5625 0.1289,0.74609 0.94531,1.2227 1.6523,0.96094 0.33203,-0.125 0.64453,-0.29297 0.95703,-0.45703 0.23828,-0.12891 0.46094,-0.28516 0.69141,-0.42969 0.64062,-0.40625 1.3398,-0.66406 2.1016,-0.72656 0.3125,-0.02344 0.625,-0.02344 0.9375,-0.01563 0.53906,0.01953 0.96875,-0.17969 1.3164,-0.58984 0.1875,-0.21875 0.38281,-0.44141 0.60156,-0.63281 0.37109,-0.33203 0.64844,-0.35547 1.0742,-0.08984 0.33594,0.20703 0.65625,0.44531 0.98047,0.67188 0.51172,0.35938 1.0469,0.68359 1.625,0.92578 0.52343,0.21875 1.0664,0.35547 1.6406,0.29687 0.0742,-0.01172 0.14063,-0.04687 0.27344,-0.09375 -0.13672,-0.125 -0.21875,-0.21484 -0.3125,-0.28516 -0.26172,-0.20312 -0.55078,-0.37891 -0.79688,-0.60156 -0.35156,-0.32031 -0.70312,-0.65234 -1.0117,-1.0156 -0.39063,-0.45703 -0.7461,-0.94531 -1.1094,-1.4297 -0.21484,-0.28125 -0.42969,-0.5625 -0.61328,-0.86328 -0.0898,-0.15234 -0.13672,-0.34766 -0.14844,-0.52734 -0.0195,-0.25 0.22656,-0.42578 0.46485,-0.33594 0.17187,0.06641 0.34375,0.16406 0.47656,0.28516 0.49219,0.45312 0.97265,0.91406 1.4492,1.3789 0.29687,0.29297 0.57031,0.60938 0.87109,0.89453 0.34766,0.33203 0.73047,0.62109 1.1992,0.76953 0.50781,0.15625 0.78516,0.15234 1.4141,-0.08984 0.0703,-0.08594 -0.32422,-0.26562 -0.32422,-0.26562 -1.3242,-0.67188 -2.3047,-1.5742 -3.168,-2.7852 -0.59375,-0.83594 -1.0742,-1.7344 -1.4961,-2.6641 -0.48828,-1.082 -0.84766,-2.2148 -1.2461,-3.332 -0.48438,-1.3516 -0.97266,-2.6992 -1.4805,-4.043 -0.33594,-0.88672 -0.86719,-1.6562 -1.4609,-2.3906 -0.78516,-0.96484 -1.75,-1.7188 -2.7617,-2.4219 -1.0273,-0.71875 -2.1289,-1.3008 -3.2226,-1.9102 -1.8203,-1.0078 -3.7227,-1.8633 -5.4727,-3 -0.30078,-0.17578 -0.44141,-0.24609 -0.58203,-0.30469 -0.0664,-0.02734 -0.30469,-0.12109 -0.55078,-0.18359 l -0.29688,-0.05469 v -15.562 z m -39.766,21.047 c -0.1289,-0.10156 -0.25,-0.22266 -0.34375,-0.35547 -0.14453,-0.20313 -0.14453,-0.42969 -0.0234,-0.64844 0.12109,-0.21484 0.3164,-0.32422 0.5664,-0.32031 0.10156,0.0039 0.21094,0.01172 0.30469,0.05078 0.21094,0.08203 0.42969,0.16016 0.62109,0.28125 0.92578,0.59375 1.668,1.3672 2.207,2.3242 0.23829,0.42187 0.36329,0.89453 0.36719,1.2656 -0.0234,0.16016 0,0.36328 -0.21484,0.45703 -0.15235,0.0625 -0.31641,-0.0039 -0.45313,-0.23047 -0.58203,-0.97266 -1.4258,-1.668 -2.332,-2.3047 -0.23828,-0.16797 -0.47656,-0.33594 -0.69922,-0.51953 m -21.805,24.262 c -0.41797,0.39453 -0.84766,0.77734 -1.2891,1.1445 -0.44531,0.37109 -0.90234,0.72266 -1.3711,1.0625 -4.3242,3.1328 -9.6367,4.9883 -15.375,4.9883 -14.473,0 -26.25,-11.781 -26.25,-26.254 0,-14.477 11.777,-26.25 26.25,-26.25 5.7383,0 11.051,1.8477 15.375,4.9844 -4.0078,3.8984 -6.9219,8.918 -8.2266,14.551 -1.793,-1.9062 -4.332,-3.0977 -7.1484,-3.0977 -5.4102,0 -9.8125,4.4023 -9.8125,9.8125 0,5.4102 4.4023,9.8125 9.8125,9.8125 2.8164,0 5.3555,-1.1914 7.1484,-3.0977 0.52734,-0.55859 0.98828,-1.1797 1.375,-1.8555 0.82031,-1.4336 1.293,-3.0898 1.293,-4.8594 0,-7.5 3.1602,-14.273 8.2188,-19.062 0.41796,-0.39453 0.84765,-0.77344 1.2891,-1.1406 0.44531,-0.37109 0.90234,-0.72266 1.3711,-1.0625 4.3242,-3.1367 9.6055,-4.9844 15.523,-4.9844 l -0.004,16.059 c 0,0 -0.12109,0.12109 -0.33203,0.21094 -0.0937,0.03906 -0.54297,0.1875 -0.90234,0.22656 -2.375,0.26172 -4.5,1.3789 -6.0586,3.0391 -0.52734,0.55859 -0.98828,1.1836 -1.375,1.8516 -0.82031,1.4375 -1.293,3.0938 -1.293,4.8633 0,7.4961 -3.1602,14.273 -8.2188,19.059"
       id="path9" /><path
       d="m 510.66,113.9 -1.0156,2.8203 h -2.6055 v 7.8633 h -2.8281 l 0.004,-7.8633 h -2.6055 L 500.5976,113.9 Z m -11.035,7.2852 h -4.6211 l -1.2226,3.3984 h -0.82813 l 3.8359,-10.684 h 1.0469 l 3.8398,10.684 h -0.82813 z m -2.3125,-6.4297 -2.0352,5.6641 h 4.0703 z m 38.5,5.3672 h 2.0508 c 0.47265,0 0.875,-0.16406 1.207,-0.49609 0.332,-0.33203 0.5,-0.73438 0.5,-1.2031 0,-0.46872 -0.16797,-0.87109 -0.5,-1.2031 -0.33203,-0.33201 -0.73438,-0.5 -1.207,-0.5 h -2.0508 z m 5.2539,-4.8984 c 0.88281,0.88282 1.3242,1.9531 1.3242,3.1992 0,1.4258 -0.55469,2.5938 -1.6602,3.5 l 1.5781,2.6602 h -3.2852 l -0.96484,-1.6406 -0.19531,0.008 h -2.0508 v 1.6328 h -2.8242 v -10.684 h 4.875 c 1.25,0 2.3203,0.44141 3.2031,1.3242 m -61.32,0.29279 c -0.55859,-0.55859 -1.2422,-0.83984 -2.0352,-0.83984 h -3.7422 v 5.7461 h 3.7422 c 0.79297,0 1.4766,-0.28515 2.0352,-0.84765 0.55859,-0.5586 0.83984,-1.2383 0.83984,-2.0274 0,-0.79297 -0.28125,-1.4726 -0.83984,-2.0312 m 0.53516,-0.53515 c 0.71093,0.70312 1.0703,1.5703 1.0703,2.5664 0,0.9961 -0.35938,1.8633 -1.0703,2.5703 -0.70313,0.71094 -1.5703,1.0703 -2.5703,1.0703 h -3.7422 v 3.3945 h -0.76563 v -10.68 h 4.5078 c 1,0 1.8672,0.36719 2.5703,1.0781 m 34.547,2.5312 -1.0938,3.2578 h 2.1758 z m -1.4102,-3.6133 h 2.8203 l 3.8476,10.684 h -2.8398 l -0.4375,-1.2227 h -3.9609 l -0.44531,1.2227 h -2.832 z m -46.887,9.918 h 5.3516 v 0.76563 h -6.1172 v -10.688 h 0.76563 z m 24.062,-9.9219 h 0.76562 v 10.688 h -0.76562 v -3.4024 h -6.9219 v 3.4024 h -0.76562 v -10.688 h 0.76562 v 6.5195 h 6.9219 z m 53.863,0.004 h 2.8203 v 10.68 h -2.8203 z m -13.832,0 v 5.9062 c 0,2.7148 -2.1992,4.9141 -4.918,4.9141 -2.7148,0 -4.9141,-2.1992 -4.9141,-4.9141 v -5.9062 h 2.8203 v 5.9062 c 0,1.1562 0.9375,2.0938 2.0938,2.0938 1.1602,0 2.0976,-0.9375 2.0976,-2.0938 v -5.9062 z m -70.859,0.85547 -2.0352,5.6641 h 4.0703 z m 2.3086,6.4297 h -4.6211 l -1.2188,3.3984 h -0.83203 l 3.8398,-10.684 h 1.0469 l 3.8398,10.684 h -0.83203 z"
       id="path10" /></g></svg>
