<?xml version="1.0" encoding="utf-8"?>
<!DOCTYPE svg PUBLIC "-//W3C//DTD SVG 1.1//EN" "http://www.w3.org/Graphics/SVG/1.1/DTD/svg11.dtd">
<svg version="1.1" id="Benetton_Formula_1" xmlns="http://www.w3.org/2000/svg" width="955" height="275" viewBox="0 0 955 275">
  <title>Benetton Formula 1 Racing Team Logo</title>
  <desc>Für mehr Informationen siehe: http://de.wikipedia.org/wiki/Benetton_F1</desc>
  <path fill="#FDF001" d="M539.222,148.937c0-5.86,1.591-9.923,6.296-16.075 c4.252-5.561,4.417-5.966,4.371-10.742c-0.042-4.312-1.97-13.287-3.916-18.228c-0.543-1.379-0.987-2.803-0.987-3.164 c0-0.684,3.586-1.23,24.627-3.751c25.275-3.028,45.98-4.16,69.391-3.795c19.267,0.301,25.229,0.862,51.386,4.837 c21.102,3.207,25.313,3.62,36.678,3.599c11.095-0.021,15.073-0.479,27.223-3.141c15.297-3.35,23.887-4.303,42.729-4.739 c14.163-0.328,30.619,0.248,47.42,1.66c14.662,1.232,45.341,4.648,44.925,5.002c-0.213,0.181-5.574,1.792-11.914,3.579 c-18.616,5.248-66.315,19.591-66.047,19.86c0.136,0.136,11.515,1.036,25.287,1.999c13.772,0.964,25.276,1.774,25.564,1.802 s-10.205,2.872-23.317,6.322l-23.841,6.272l-7.336-0.291c-9.152-0.365-19.086,0.329-34.582,2.416 c-9.07,1.221-14.856,1.688-23.388,1.888c-15.615,0.364-19.93-0.188-41.585-5.327c-25.253-5.992-56.06-8.782-78.335-7.093 c-13.389,1.015-19.817,2.287-34.32,6.792c-13.006,4.041-43.034,10.964-53.576,12.353l-2.751,0.362V148.937z"/>
  <path fill="#EC1C23" d="M744.806,88.979 c-9.729-0.987-16.274-2.321-37.194-7.584c-41.109-10.342-62.396-13.959-82.534-14.027c-12.803-0.043-16.252,0.549-31.602,5.427 c-11.466,3.643-36.422,10.945-47.912,14.018l-5.895,1.577v-2.353c0-2.832,2.119-9.386,4.229-13.078 c0.842-1.474,3.653-5.452,6.246-8.841c2.874-3.755,4.944-7.005,5.303-8.323c1.1-4.048-0.201-12.264-3.448-21.779 c-0.851-2.493-1.137-4.017-0.794-4.229c0.295-0.183,5.424-0.968,11.398-1.745c33.971-4.42,56.34-5.884,82.91-5.424 c17.71,0.307,24.301,0.88,43.228,3.759c38.539,5.862,49.31,6.23,67.904,2.324c17.656-3.71,29.396-4.575,49.616-3.654 c27.905,1.271,52.099,4.041,101.098,11.579c13.035,2.005,24.411,3.646,25.282,3.646c1.848,0,2.118,0.803,0.403,1.196 c-0.648,0.148-8.135,2.045-16.636,4.215C880.605,54.82,853,59.586,827.594,61.016l-6.812,0.383l23.32,3.235 c12.826,1.779,23.631,3.338,24.012,3.465c0.38,0.127-9.288,2.435-21.486,5.129c-12.198,2.694-28.19,6.383-35.539,8.198 c-15.379,3.798-24.378,5.621-33.58,6.802C769.731,89.226,751.393,89.647,744.806,88.979z"/>
  <path fill="#00A550" d="M522.996,209.154 c0.139-0.505,0.41-1.861,0.604-3.014c0.65-3.877,2.867-6.949,9.514-13.186c7.286-6.835,8.441-8.778,7.793-13.102 c-0.521-3.479-2.014-7.244-4.514-11.389c-1.176-1.949-2.059-3.607-1.963-3.686c0.097-0.078,1.708-0.432,3.581-0.785 c1.873-0.355,9.183-2.021,16.243-3.705c43.182-10.291,62.757-11.801,111.869-8.627c6.916,0.446,28.373,1.972,47.682,3.391 c62.979,4.625,84.18,5.758,107.677,5.756c24.923-0.002,27.225-0.327,83.038-11.754c23.01-4.711,31.224-5.993,40.358-6.3 c6.009-0.202,6.349-0.171,2.882,0.261c-7.327,0.912-16.37,4.329-22.457,8.487c-3.523,2.407-8.265,7.007-10.947,10.623 c-5.717,7.704-20.215,14.935-29.945,14.935c-4.815,0-6.911-0.602-9.71-2.787c-2.73-2.131-6.184-3.023-13.007-3.359 c-6.541-0.321-9.349,0.137-18.687,3.051c-7.397,2.308-13.646,3.619-17.244,3.619c-2.37,0-2.124,0.171,12.976,9.039l15.391,9.038 l-25.624,0.263l-25.624,0.262l-10.742,2.737c-19.348,4.931-33.588,6.956-48.921,6.956c-13.34,0-22.141-1.076-36.675-4.484 c-19.162-4.494-37.66-6.325-69.239-6.857c-20.251-0.34-40.992,0.263-58.161,1.691c-16.12,1.342-25.981,3.032-36.94,6.334 c-6.279,1.893-17.074,6.21-17.583,7.033C524.072,210.48,522.732,210.116,522.996,209.154z"/>
  <path fill="#2F3192" d="M527.375,270.698c-6.309-1.781-9.84-5.319-11.03-11.054 c-1.073-5.171,0.234-8.715,5.777-15.654c1.15-1.441,2.472-3.758,2.936-5.148c1.398-4.191,0.659-10.368-1.739-14.532 c-0.093-0.162,1.191-0.72,2.854-1.241c1.663-0.52,7.031-2.541,11.931-4.49c15.26-6.072,24.982-8.79,38.774-10.84 c4.961-0.737,9.66-0.936,22.269-0.94c20.656-0.009,24.88,0.466,58.686,6.593c39.052,7.076,78.066,13.492,112.655,18.524 c20.231,2.944,20.679,3.124,9.169,3.694c-8.381,0.414-22.171,1.643-29.604,2.639c-19.71,2.637-28.818,5.96-28.818,10.513 c0,2.329,5.813,6.229,14.147,9.495c1.11,0.436-0.044,0.84-7.598,2.66c-18.729,4.514-28.244,5.611-48.468,5.586 c-16.014-0.021-19.481-0.238-41.395-2.59c-19.569-2.102-25.929-2.521-38.25-2.533c-13.868-0.012-18.309,0.6-29.453,4.05 c-4.118,1.275-8.902,2.677-10.631,3.116C550.087,270.955,532.458,272.133,527.375,270.698z"/>
  <path fill="#221F20" d="M236.646,267.613c-4.061-0.832-7.007-3.428-8.312-7.322c-0.328-0.979-0.593-3.691-0.588-6.025 c0.02-10.676,4.5-19.301,11.924-22.955c3.021-1.486,4.047-1.725,7.444-1.725c3.235,0,4.356,0.234,6.262,1.31 c2.845,1.606,4.752,4.898,4.752,8.204c0,2.249-0.021,2.275-1.824,2.275c-1.569,0-1.865-0.201-2.119-1.441 c-0.749-3.662-2.942-5.793-6.449-6.264c-7.169-0.961-13.61,5.451-15.313,15.244c-1.635,9.403,1.097,14.585,7.736,14.676 c4.897,0.066,8.223-2.317,11.098-7.953c0.999-1.958,1.335-2.21,2.951-2.21c1.002,0,1.823,0.251,1.823,0.557 c0,1.128-2.854,6.339-4.567,8.341C248.27,266.059,241.263,268.559,236.646,267.613z M317.368,267.532 c-8.912-1.769-11.547-14.284-5.567-26.435c5.089-10.342,16.112-14.738,23.928-9.544c2.178,1.448,4.14,5.161,4.14,7.837 c0,1.966-0.02,1.984-2.096,1.984c-1.78,0-2.096-0.166-2.096-1.1c0-2.217-1.622-4.596-3.882-5.689 c-9.014-4.363-18.649,5.422-18.649,18.939c0,7.412,2.325,10.129,8.646,10.105c4.176-0.016,6.024-0.792,8.871-3.723 c1.582-1.629,3.966-6.482,3.966-8.073c0-0.289-2.208-0.505-5.173-0.505h-5.174l0.348-1.702l0.348-1.703l7.198-0.146l7.197-0.146 l-0.265,1.194c-0.422,1.901-3.431,17.642-3.431,17.946c0,0.152-0.589,0.276-1.31,0.276c-1.207,0-1.31-0.188-1.31-2.401v-2.402 l-2.054,1.627C326.933,267.097,321.933,268.438,317.368,267.532z M161.717,266.633c0-0.229,1.533-8.42,3.406-18.204 c1.874-9.784,3.406-17.867,3.406-17.964c0-0.096,4.433-0.098,9.85-0.003c10.687,0.187,11.618,0.419,13.566,3.393 c2.115,3.228-0.053,11.591-3.539,13.649c-1.822,1.076-1.861,1.275-0.49,2.517c1.252,1.134,1.378,4.167,0.43,10.394 c-0.482,3.169-0.483,4.334-0.004,5.103c0.924,1.479,0.851,1.533-2.074,1.533h-2.695l0.344-3.799c0.189-2.089,0.49-5.048,0.668-6.573 c0.284-2.428,0.173-2.936-0.884-4.061c-1.164-1.239-1.461-1.287-8.091-1.287h-6.883l-1.458,7.86l-1.458,7.859h-2.048 C162.638,267.05,161.717,266.862,161.717,266.633z M184.248,246.221c2.108-1.053,4.191-4.653,4.191-7.244 c0-0.908-0.494-2.279-1.097-3.047l-1.097-1.395l-7.133,0.145l-7.133,0.146l-1.176,5.765c-0.647,3.17-1.188,5.939-1.201,6.156 c-0.014,0.216,2.864,0.393,6.394,0.393C181.056,247.137,182.802,246.943,184.248,246.221z M192.195,266.6 c0.096-0.248,4.419-8.492,9.606-18.322l9.431-17.871l2.465-0.018c2.376-0.017,2.476,0.045,2.762,1.686 c0.608,3.497,4.461,32.664,4.464,33.797c0.002,1.023-0.27,1.179-2.058,1.179c-2.378,0-2.433-0.101-2.927-5.501 c-0.552-6.024,0.103-5.555-7.497-5.387l-6.64,0.146l-2.77,5.371l-2.77,5.37h-2.121C192.974,267.05,192.099,266.848,192.195,266.6z  M214.477,250.676c-0.152-0.648-0.572-4.186-0.933-7.859c-0.362-3.675-0.813-6.682-1.004-6.682s-2.17,3.537-4.398,7.86l-4.052,7.859 h5.332C214.682,251.854,214.749,251.84,214.477,250.676z M260.749,266.348c0-0.615,5.862-31.688,6.565-34.797 c0.223-0.988,0.615-1.18,2.414-1.18c1.832,0,2.11,0.143,1.893,0.971c-0.14,0.534-1.746,8.787-3.569,18.34l-3.315,17.368h-1.994 C261.424,267.05,260.749,266.813,260.749,266.348z M273.324,266.45c0-0.585,5.887-31.872,6.567-34.899 c0.231-1.029,0.596-1.18,2.875-1.18c1.436,0,2.61,0.07,2.61,0.154c0,0.379,10.483,28.843,10.704,29.064 c0.34,0.34,0.502-0.396,3.39-15.482c1.395-7.287,2.662-13.375,2.814-13.527s1.077-0.203,2.054-0.112l1.776,0.166l-3.448,18.077 l-3.448,18.077l-2.412,0.157l-2.411,0.158l-1.342-3.564c-0.738-1.959-3.137-8.387-5.331-14.283 c-2.194-5.896-4.175-11.052-4.402-11.458c-0.249-0.444-1.198,3.404-2.386,9.672c-1.085,5.726-2.366,12.415-2.847,14.864 l-0.875,4.454l-1.944,0.163C273.963,267.06,273.324,266.895,273.324,266.45z M365.022,266.656c0.001-0.215,1.297-7.112,2.879-15.326 c1.583-8.213,2.878-15.346,2.879-15.85c0.002-0.815-0.608-0.917-5.509-0.917h-5.512l0.316-1.44c0.174-0.793,0.406-1.736,0.518-2.097 c0.154-0.501,3.331-0.655,13.563-0.655c10.447,0,13.317,0.144,13.16,0.655c-0.111,0.36-0.342,1.296-0.513,2.079l-0.311,1.423 l-5.604,0.148l-5.605,0.148l-0.614,3.144c-0.338,1.729-1.733,8.98-3.1,16.113l-2.485,12.968h-2.032 C365.934,267.05,365.021,266.873,365.022,266.656z M389.132,248.842l3.492-18.208l11.873-0.142 c6.73-0.079,11.873,0.063,11.873,0.328c0,0.258-0.147,1.205-0.327,2.105l-0.328,1.638h-9.836h-9.835l-0.869,4.847 c-0.479,2.666-0.99,5.26-1.138,5.764c-0.249,0.849,0.416,0.917,8.92,0.917c7.109,0,9.143,0.148,8.987,0.655 c-0.111,0.359-0.344,1.303-0.518,2.096l-0.316,1.441h-9.068h-9.068l-0.898,5.133c-0.494,2.824-1.034,5.654-1.2,6.289l-0.302,1.152 h10.078h10.078l-0.316,1.18c-0.174,0.648-0.319,1.592-0.323,2.096c-0.007,0.848-0.941,0.917-12.228,0.917h-12.22L389.132,248.842z  M413.837,266.631c0.096-0.23,4.418-8.477,9.606-18.324l9.432-17.906l2.465-0.014c2.374-0.015,2.476,0.048,2.765,1.688 c0.601,3.416,4.461,32.652,4.462,33.797c0.002,1.023-0.271,1.179-2.059,1.179c-2.398,0-2.436-0.074-2.939-5.821 c-0.192-2.193-0.521-4.264-0.729-4.602c-0.266-0.43-2.334-0.57-6.888-0.467l-6.508,0.148l-2.771,5.371l-2.77,5.37h-2.121 C414.616,267.05,413.741,266.861,413.837,266.631z M436.085,250.414c-0.152-0.793-0.568-4.473-0.923-8.18 c-0.531-5.543-0.76-6.582-1.287-5.86c-0.354,0.483-2.327,4.163-4.387,8.179l-3.745,7.302h5.311h5.31L436.085,250.414z  M447.808,266.33c0-0.696,5.866-31.807,6.558-34.779c0.247-1.061,0.589-1.18,3.408-1.18c2.499,0,3.134,0.167,3.134,0.824 c0,0.907,3.079,28.309,3.322,29.566c0.084,0.433,3.672-6.229,7.974-14.802l7.821-15.589h3.078c2.672,0,3.047,0.121,2.841,0.918 c-0.131,0.504-1.737,8.756-3.57,18.339l-3.332,17.422h-1.993c-1.097,0-1.992-0.177-1.99-0.394c0.001-0.215,1.291-6.981,2.866-15.035 s2.767-14.74,2.647-14.859s-3.574,6.658-7.678,15.062l-7.462,15.278l-2.126-0.157l-2.125-0.156l-1.637-14.817 c-0.9-8.15-1.757-14.938-1.903-15.085c-0.147-0.147-0.919,3.22-1.716,7.481c-0.796,4.262-2.075,11.051-2.843,15.085l-1.396,7.336 l-1.939,0.163C448.303,267.072,447.808,266.913,447.808,266.33z M90.327,209.369c-5.579-1.316-11.987-6.42-14.418-11.484 c-4.093-8.525-3.859-21.781,0.604-34.269c3.334-9.329,8.612-16.413,15.82-21.233c14.639-9.792,33.976-6.457,40.213,6.934 c2.111,4.533,2.715,7.973,2.642,15.034c-0.075,7.109-0.892,11.759-3.29,18.718c-4.521,13.119-14.449,23.039-26.06,26.037 C102.343,210.008,93.663,210.154,90.327,209.369z M106.492,193.486c5.142-2.395,8.521-7.082,11.001-15.262 c1.221-4.025,1.434-5.688,1.474-11.516c0.039-5.701-0.113-7.111-0.93-8.646c-3.144-5.902-9.513-7.736-16.396-4.723 c-7.07,3.095-12.365,14.697-12.454,27.29c-0.037,5.162,0.067,5.747,1.533,8.605c1.228,2.396,2.077,3.334,3.881,4.286 C97.815,195.221,102.8,195.205,106.492,193.486z M295.573,209.131c-3.188-1.174-5.773-3.593-7.412-6.934 c-1.291-2.633-1.493-3.711-1.644-8.766c-0.159-5.33,0.148-7.54,4.083-29.344c2.34-12.968,4.377-23.99,4.528-24.495 c0.243-0.818,1.086-0.917,7.835-0.917c4.159,0,7.562,0.156,7.562,0.346c0,0.19-1.768,10.095-3.93,22.01 c-2.37,13.064-3.929,23.066-3.928,25.197c0.003,5.977,2.467,8.523,8.225,8.502c5.625-0.021,10.011-3.18,12.854-9.256 c1.275-2.724,2.269-7.236,5.435-24.673c2.131-11.737,3.875-21.517,3.875-21.733c0-0.216,3.496-0.393,7.768-0.393h7.767 l-2.768,15.326c-1.522,8.43-4.35,24.109-6.283,34.845l-3.516,19.519h-7.248c-8.297,0-7.629,0.593-6.486-5.764 c0.389-2.162,0.643-3.998,0.566-4.079s-1.024,1.011-2.105,2.428c-2.344,3.073-5.891,5.875-9.458,7.471 C307.923,209.929,298.852,210.338,295.573,209.131z M389.909,209.332c-1.688-0.619-4.807-2.773-5.926-4.09 c-3.33-3.922-3.941-12.129-1.471-19.753c2.58-7.958,7.833-13.796,14.739-16.381c1.575-0.589,7.161-1.795,12.415-2.681 c6.248-1.053,10.125-1.963,11.209-2.633c2-1.236,3.098-3.641,3.037-6.649c-0.08-3.913-3.025-5.903-8.705-5.883 c-5.561,0.02-8.945,2.298-11.073,7.455l-0.811,1.965h-7.362c-4.049,0-7.362-0.081-7.362-0.18s0.439-1.456,0.975-3.015 c2.465-7.164,6.437-12.818,11.408-16.24c7.224-4.972,21.668-6.033,30.173-2.217c3.501,1.571,6.764,4.841,7.795,7.811 c1.257,3.619,0.71,8.838-3.124,29.822c-3.979,21.781-4.461,26.691-2.765,28.227c0.631,0.57,0.886,1.336,0.725,2.178l-0.248,1.297 h-8.322h-8.323l-0.051-1.965c-0.028-1.082-0.01-2.85,0.04-3.931c0.05-1.081-0.071-1.965-0.269-1.965s-1.641,1.171-3.208,2.603 s-4.648,3.493-6.848,4.58c-3.778,1.867-4.307,1.983-9.539,2.1C393.949,209.855,390.78,209.652,389.909,209.332z M409.217,195.878 c2.906-1.286,6.813-4.821,8.462-7.656c0.928-1.597,3.405-11.526,3.405-13.651c0-0.113-1.238,0.352-2.751,1.033 c-1.513,0.683-5.031,1.717-7.819,2.298c-2.788,0.582-5.971,1.522-7.074,2.089c-4.154,2.137-6.459,5.91-6.459,10.576 c0,3.213,0.578,4.416,2.785,5.807C401.81,197.662,405.638,197.461,409.217,195.878z M4,207.828c0-0.296,3.772-21.415,8.384-46.932 c4.611-25.518,8.383-46.497,8.383-46.622c0-0.124,12.845-0.226,28.544-0.226h28.543l-0.344,1.703 c-0.188,0.937-0.839,4.532-1.445,7.991l-1.102,6.288l-20.246,0.137l-20.246,0.137l-0.295,1.435 c-0.723,3.51-3.453,19.202-3.453,19.845c0,0.59,3.089,0.715,17.61,0.715h17.61l-0.275,1.18c-0.151,0.648-0.82,4.303-1.487,8.121 l-1.211,6.943H45.284H27.599l-0.271,1.178c-0.149,0.648-1.697,9.196-3.44,18.994c-1.744,9.799-3.293,18.229-3.443,18.732 c-0.245,0.822-1.111,0.918-8.359,0.918C6.913,208.365,4,208.172,4,207.828z M139.387,207.447 c0.285-0.961,12.375-67.807,12.375-68.419c0-0.194,3.301-0.353,7.336-0.353c8.48,0,7.783-0.752,6.312,6.812 c-0.533,2.737-0.902,5.048-0.82,5.135c0.082,0.086,1.45-1.701,3.041-3.972c3.368-4.807,5.345-6.609,9.182-8.373 c3.116-1.432,8.648-2.179,9.225-1.245c0.318,0.514-0.761,7.69-2.333,15.528l-0.525,2.621l-4.321,0.036 c-5.157,0.044-9.012,1.541-12.067,4.687c-3.945,4.063-4.53,6.17-9.564,34.443l-2.496,14.018h-7.808 C139.733,208.365,139.137,208.292,139.387,207.447z M185.628,193.038c1.522-8.429,4.35-24.109,6.283-34.845l3.515-19.518h7.248 c8.318,0,7.701-0.547,6.499,5.758c-0.412,2.157-0.686,3.985-0.609,4.063c0.077,0.076,1.234-1.271,2.572-2.994 c4.746-6.111,9.831-8.675,17.125-8.636c3.506,0.019,4.911,0.264,6.6,1.148c2.659,1.393,4.875,3.875,6.21,6.955 c0.561,1.294,1.074,2.434,1.141,2.533s1.698-1.49,3.625-3.533c2.473-2.621,4.525-4.217,6.969-5.421 c3.099-1.525,3.938-1.705,7.93-1.695c3.684,0.01,4.969,0.247,7.347,1.359c5.913,2.765,8.49,6.992,8.819,14.464 c0.19,4.326-0.269,7.49-4.392,30.26l-4.604,25.43h-7.722c-7.086,0-7.705-0.076-7.509-0.918c0.99-4.256,8.071-45.25,8.069-46.711 c-0.011-6.867-3.913-10.029-10.141-8.219c-3.408,0.99-6.296,3.711-8.019,7.557c-0.872,1.945-2.455,9.447-5.196,24.627 c-2.169,12.006-4.064,22.242-4.213,22.746c-0.241,0.818-1.083,0.918-7.833,0.918c-4.159,0-7.563-0.137-7.563-0.303 s1.765-10.052,3.921-21.969c4.854-26.828,4.857-26.848,3.701-29.874c-1.131-2.962-3.122-4.124-7.098-4.142 c-4.09-0.02-7.083,1.738-9.315,5.471c-0.945,1.58-1.951,3.74-2.237,4.801c-0.481,1.785-8.349,44.744-8.356,45.622 c-0.001,0.216-3.498,0.394-7.77,0.394h-7.767L185.628,193.038z M351.503,207.462c0.13-0.513,3.988-21.739,8.572-47.173l8.334-46.24 h7.737c4.255,0,7.727,0.059,7.714,0.131c-0.013,0.072-3.845,21.234-8.518,47.027l-8.495,46.896l-7.791,0.146 C351.813,208.383,351.283,208.328,351.503,207.462z M472.959,208.057c0-0.458,11.026-61.586,11.357-62.963l0.283-1.178h-9.545 h-9.545l0.271-1.18c0.149-0.648,0.674-3.478,1.167-6.288l0.896-5.108l2.427-0.009c3.391-0.013,8.973-1.272,11.615-2.621 c3.395-1.731,7.123-5.529,8.88-9.044c0.869-1.741,1.581-3.48,1.581-3.867c0-0.548,1.381-0.703,6.288-0.703 c3.709,0,6.287,0.208,6.287,0.508c0,0.721-16.234,90.731-16.565,91.843c-0.243,0.818-1.085,0.918-7.834,0.918 C476.361,208.365,472.959,208.227,472.959,208.057z M119.93,99.631c-8.654-1.88-14.098-7.776-15.886-17.206 c-0.654-3.446-0.619-11.377,0.071-16.337c1.779-12.792,6.343-22.955,13.543-30.157c6.584-6.585,13.27-9.127,23.063-8.769 c4.647,0.17,6.029,0.43,8.596,1.619c5.668,2.624,8.841,6.288,10.882,12.566c1.036,3.188,1.237,4.896,1.245,10.611 c0.005,3.747-0.319,8.993-0.722,11.659l-0.73,4.847h-20.622h-20.621l0.003,4.061c0.003,5.137,0.671,7.528,2.768,9.917 c2.136,2.432,4.296,3.313,8.122,3.313c4.038,0,8.133-2.014,10.328-5.077l1.572-2.195l7.764-0.032l7.764-0.032l-0.353,1.179 c-0.812,2.718-5.2,8.877-8.626,12.11C140.31,99.05,130.265,101.876,119.93,99.631z M146.173,55.403 c0.394-1.97-0.399-6.846-1.441-8.861c-2.289-4.426-8.912-6.087-13.929-3.492c-3.571,1.846-7.834,7.86-8.723,12.303l-0.316,1.583 h12.051h12.052L146.173,55.403z M253.099,99.647c-8.689-1.89-14.056-7.353-15.967-16.25c-1.513-7.046-0.455-19.429,2.447-28.628 c5.627-17.837,17.221-27.714,32.51-27.693c11.763,0.016,18.561,5.006,21.449,15.744c1.445,5.375,1.105,18.537-0.64,24.727 c-0.24,0.854-1.68,0.917-20.706,0.917h-20.448l0.179,5.411c0.162,4.9,0.318,5.622,1.654,7.639 c4.268,6.443,15.275,5.511,19.996-1.692l0.918-1.402h7.799c4.29,0,7.799,0.182,7.799,0.404s-1.096,2.286-2.435,4.585 c-2.994,5.14-8.694,10.89-13.12,13.232C268.053,100.071,260.147,101.181,253.099,99.647z M279.087,53.362 c0-4.961-1.897-8.755-5.24-10.48c-4.415-2.279-10.759-0.655-14.438,3.695c-1.381,1.633-3.944,6.664-4.677,9.18l-0.343,1.179h12.349 h12.349V53.362z M405.633,99.845c-6.315-1.289-12.665-5.986-15.437-11.42c-3.019-5.917-3.927-14.959-2.388-23.781 c2.904-16.656,10.704-28.481,22.536-34.17c5.614-2.7,8.7-3.404,14.912-3.404c12.267,0,20.645,6.518,23.4,18.204 c1.222,5.183,0.734,15.992-1.027,22.774c-5.047,19.428-18.005,31.44-34.666,32.135C410.37,100.29,407.071,100.138,405.633,99.845z  M420.874,83.634c4.665-2.258,9.049-8.639,10.923-15.898c2.727-10.564,2.02-19.043-1.893-22.696 c-1.917-1.79-4.827-2.776-8.194-2.776c-8.474,0-15.007,7.439-17.613,20.053c-1.065,5.159-1.075,12.568-0.02,15.664 c0.962,2.825,3.535,5.471,6.332,6.511C413.024,85.465,417.919,85.064,420.874,83.634z M314.115,98.65 c-5.152-1.388-7.253-3.985-7.251-8.966c0-1.729,1.768-12.913,3.928-24.852c2.16-11.939,3.927-22.02,3.927-22.4 c0-0.512-1.021-0.692-3.917-0.692h-3.917l0.273-1.441c0.15-0.792,0.68-3.681,1.178-6.419l0.905-4.978l4.009-0.152l4.01-0.152 l0.518-2.468c0.285-1.357,1.052-5.592,1.704-9.41l1.186-6.942h7.777h7.776l-0.265,1.179c-0.654,2.91-2.898,15.855-2.898,16.722 c0,0.864,0.49,0.962,4.777,0.962c4.586,0,4.766,0.044,4.491,1.095c-0.158,0.602-0.704,3.549-1.215,6.549l-0.929,5.456h-4.862 c-4.612,0-4.875,0.061-5.134,1.179c-1.382,5.979-7.071,39.668-6.849,40.555c0.367,1.461,3.211,2.445,6.345,2.196 c1.808-0.144,2.328-0.009,2.328,0.604c-0.002,2.098-2.261,12.359-2.796,12.7C328.218,99.607,316.753,99.361,314.115,98.65z  M357.812,98.567c-5.317-1.432-6.941-3.591-6.937-9.224c0.002-1.847,1.75-12.985,3.93-25.035c2.16-11.939,3.927-21.901,3.927-22.138 c0-0.237-1.794-0.43-3.987-0.43c-3.867,0-3.978-0.036-3.711-1.179c0.152-0.648,0.69-3.596,1.196-6.549l0.92-5.371h4.041h4.041 l1.084-5.895c0.596-3.242,1.354-7.486,1.686-9.432l0.601-3.537h7.757c7.118,0,7.74,0.075,7.548,0.917 c-0.115,0.504-0.813,4.335-1.553,8.514s-1.465,8.01-1.612,8.515c-0.241,0.828,0.22,0.917,4.756,0.917 c4.944,0,5.019,0.019,4.738,1.179c-0.157,0.648-0.703,3.537-1.213,6.418l-0.928,5.24l-4.929,0.262l-4.929,0.262l-3.552,19.649 c-1.953,10.807-3.556,20.269-3.562,21.026c-0.016,2.129,1.272,2.812,5.307,2.813c1.974,0.001,3.589,0.215,3.589,0.477 c0.002,1.818-2.362,12.7-2.827,13.009C372.181,99.652,360.707,99.347,357.812,98.567z M22.339,97.827 c0-0.314,3.772-21.449,8.383-46.966c4.611-25.517,8.384-46.496,8.384-46.621c0-0.476,40.266-0.179,43.736,0.322 c9.762,1.411,15.091,7.146,15.852,17.058c0.52,6.779-2.234,15.64-6.357,20.45c-1.02,1.19-3.048,2.93-4.508,3.866l-2.653,1.703 l1.199,0.797c2.265,1.506,4.698,4.047,5.657,5.908c1.419,2.752,2.238,8.104,1.838,12.023c-0.95,9.318-4.285,16.598-10.472,22.858 c-4.278,4.328-7.09,6.116-12.33,7.839c-2.561,0.842-5.435,0.969-25.806,1.141C28.937,98.343,22.339,98.234,22.339,97.827z  M68.574,81.125c3.592-1.769,6.323-5.129,7.733-9.515c2.098-6.526,0.857-11.253-3.525-13.431c-1.736-0.863-3.514-1-14.682-1.139 c-6.989-0.086-12.707-0.024-12.707,0.138s-0.943,5.505-2.096,11.873c-1.153,6.368-2.096,12.046-2.096,12.617 c0,1.011,0.327,1.034,12.445,0.859C65.434,82.358,66.222,82.284,68.574,81.125z M73.367,40.475c3.494-1.052,5.789-3.001,7.394-6.282 c1.664-3.402,1.933-7.609,0.643-10.066c-1.682-3.202-3.42-3.588-16.997-3.773l-12.164-0.166l-0.291,1.213 c-0.498,2.079-3.415,18.428-3.415,19.14C48.538,41.554,69.972,41.496,73.367,40.475z M166.451,97.675 c0.01-0.36,2.793-15.981,6.185-34.713l6.167-34.059l7.452-0.146l7.452-0.146l-0.29,1.193c-0.159,0.656-0.612,3.075-1.007,5.375 l-0.718,4.182l1.623-2.086c5.25-6.749,10.549-9.771,17.735-10.114c6.364-0.304,9.775,0.81,13.333,4.354 c3.485,3.471,4.651,6.738,4.584,12.844c-0.042,3.765-4.75,31.756-8.617,51.219l-0.547,2.751h-7.561c-5.701,0-7.56-0.161-7.557-0.655 c0.002-0.36,1.77-10.44,3.93-22.4c4.216-23.351,4.566-26.979,2.865-29.768c-2.975-4.879-12.514-4.135-17.332,1.352 c-3.568,4.064-4.381,6.867-8.315,28.677c-2.027,11.239-3.808,20.966-3.957,21.614c-0.265,1.156-0.418,1.179-7.857,1.179 C168.29,98.33,166.437,98.169,166.451,97.675z M454.872,97.151c0.311-1.344,12.323-67.89,12.323-68.265 c0-0.135,3.301-0.245,7.335-0.245c4.069,0,7.336,0.213,7.336,0.478c0,0.263-0.354,2.326-0.786,4.585 c-0.432,2.259-0.785,4.328-0.785,4.598c-0.001,0.27,1.661-1.313,3.692-3.517c2.747-2.981,4.588-4.448,7.191-5.731 c3.316-1.633,3.804-1.724,9.276-1.724c5.293,0,6.031,0.125,8.824,1.497c5.104,2.506,8.185,8.131,8.24,15.043 c0.013,1.566-2.051,14.459-4.585,28.65l-4.607,25.803l-7.771,0.003l-7.771,0.002l0.311-1.441c0.17-0.792,1.987-10.637,4.038-21.876 c3.983-21.839,4.483-26.858,2.911-29.259c-3.129-4.778-10.8-4.735-16.168,0.092c-5.04,4.532-5.483,6.021-10.973,36.896 l-2.771,15.588h-7.767H454.6L454.872,97.151z"/>
</svg>