<svg xmlns="http://www.w3.org/2000/svg" xmlns:svg="http://www.w3.org/2000/svg" id="svg2" width="800" height="600" version="1.0"><g id="layer1"><rect id="rect3777" width="761.137" height="534.615" x="17.679" y="30.536" ry="0" style="opacity:.98999999;fill:#136e15;fill-opacity:1;fill-rule:evenodd;stroke:none;stroke-width:2;stroke-linecap:square;stroke-linejoin:miter;stroke-miterlimit:4;stroke-dasharray:none;stroke-dashoffset:0;stroke-opacity:1"/><path id="text3724" d="M 391.33346,304.59877 C 391.61038,304.64213 391.93052,304.6746 392.29396,304.6962 C 392.65733,304.71787 393.1852,304.72867 393.87742,304.72859 C 396.1618,304.72867 397.88379,304.23084 399.04332,303.23517 C 400.20277,302.2395 400.7825,300.746 400.78257,298.75467 L 400.78257,289.20929 C 400.7825,287.04487 400.22874,285.44315 399.12114,284.40413 C 398.01355,283.36527 396.30026,282.84577 393.98128,282.84567 C 393.289,282.84577 392.75257,282.85664 392.37186,282.87815 C 391.99109,282.89991 391.64497,282.93239 391.33346,282.97558 L 391.33346,304.59877 z M 391.33346,320.63758 L 391.33346,345.70225 C 391.71417,345.78888 392.13818,345.85382 392.60548,345.89709 C 393.07271,345.94037 393.73896,345.96204 394.60431,345.96196 C 396.95789,345.96204 398.69714,345.38846 399.82206,344.24122 C 400.94692,343.09406 401.50939,341.33005 401.50939,338.9491 L 401.50939,326.67644 C 401.50939,324.64192 400.91233,323.07267 399.7182,321.9687 C 398.52408,320.8649 396.78483,320.31291 394.50045,320.31291 C 393.70437,320.31291 393.08134,320.33459 392.63144,320.37786 C 392.18147,320.42114 391.74876,320.50776 391.33346,320.63758 L 391.33346,320.63758 z M 376.84835,361.6761 L 376.84835,266.87182 L 397.30407,266.87182 C 402.84196,266.8719 407.18574,268.40868 410.33546,271.48222 C 413.48512,274.55585 415.05995,278.77655 415.06002,284.14441 L 415.06002,297.97544 C 415.05995,302.08801 414.14274,305.37799 412.30834,307.84548 C 410.47386,310.31306 407.91256,311.67666 404.62451,311.93637 C 408.22407,312.28271 411.03632,313.79781 413.06118,316.48173 C 415.08592,319.16576 416.09835,322.71554 416.09835,327.131 L 416.09835,342.91009 C 416.09835,349.49015 414.60998,354.26275 411.63344,357.22816 C 408.65678,360.19348 403.88029,361.6761 397.30407,361.6761 L 376.84835,361.6761 z M 440.13642,304.59877 C 440.41327,304.64213 440.72479,304.6746 441.07096,304.6962 C 441.41707,304.71787 441.9189,304.72867 442.57659,304.72859 C 444.79171,304.72867 446.4271,304.20924 447.48284,303.17022 C 448.53843,302.13128 449.0663,300.48629 449.0663,298.23516 L 449.0663,289.7288 C 449.0663,287.56439 448.52117,285.96266 447.43091,284.92364 C 446.34057,283.8847 444.68785,283.36527 442.47273,283.36519 C 441.84971,283.36527 441.37377,283.37607 441.04499,283.39766 C 440.71615,283.41934 440.41327,283.45182 440.13642,283.49509 L 440.13642,304.59877 z M 450.1047,357.26055 L 450.1047,328.04013 C 450.10463,325.52937 449.54224,323.65705 448.41731,322.42327 C 447.29245,321.18956 445.55319,320.57263 443.19955,320.57263 C 442.88804,320.57263 442.51596,320.5943 442.08333,320.63758 C 441.65069,320.68093 441.0017,320.76747 440.13642,320.89728 L 440.13642,361.6761 L 425.65132,361.6761 L 425.65132,266.87182 L 446.10696,266.87182 C 451.64486,266.8719 455.9887,268.40868 459.13843,271.48222 C 462.28809,274.55585 463.86292,278.77655 463.86299,284.14441 L 463.86299,297.97544 C 463.86292,302.08801 462.94571,305.37799 461.1113,307.84548 C 459.27682,310.31306 456.71552,311.67666 453.42741,311.93637 C 457.33855,312.32598 460.22862,313.89523 462.09777,316.64411 C 463.96678,319.39299 464.90125,323.49467 464.90132,328.94916 L 464.90132,357.26055 C 465.03971,358.08313 465.27332,358.85147 465.60224,359.56575 C 465.93095,360.28002 466.37229,360.98351 466.92612,361.6761 L 452.1295,361.6761 C 451.43721,361.19995 450.92668,360.61557 450.5979,359.92289 C 450.26905,359.23029 450.10463,358.34284 450.1047,357.26055 L 450.1047,357.26055 z M 469.26243,361.6761 L 482.24197,266.87182 L 502.54189,266.87182 L 515.52143,361.6761 L 499.89406,361.6761 L 498.18078,345.05292 L 486.60308,345.05292 L 484.88972,361.6761 L 469.26243,361.6761 z M 488.2125,327.78033 L 496.46749,327.78033 L 492.41789,283.10547 L 488.2125,327.78033 z M 535.25025,304.59877 C 535.5271,304.64213 535.84731,304.6746 536.21075,304.6962 C 536.57413,304.71787 537.102,304.72867 537.79421,304.72859 C 540.0786,304.72867 541.80052,304.23084 542.96004,303.23517 C 544.11956,302.2395 544.69929,300.746 544.69929,298.75467 L 544.69929,289.20929 C 544.69929,287.04487 544.14553,285.44315 543.03793,284.40413 C 541.93034,283.36527 540.21705,282.84577 537.89807,282.84567 C 537.20579,282.84577 536.66929,282.85664 536.28858,282.87815 C 535.90788,282.89991 535.56169,282.93239 535.25025,282.97558 L 535.25025,304.59877 z M 535.25025,320.63758 L 535.25025,345.70225 C 535.63096,345.78888 536.05496,345.85382 536.5222,345.89709 C 536.9895,345.94037 537.65576,345.96204 538.5211,345.96196 C 540.87468,345.96204 542.61393,345.38846 543.73885,344.24122 C 544.86371,343.09406 545.42618,341.33005 545.42618,338.9491 L 545.42618,326.67644 C 545.42618,324.64192 544.82911,323.07267 543.63499,321.9687 C 542.44087,320.8649 540.70162,320.31291 538.41724,320.31291 C 537.62116,320.31291 536.99814,320.33459 536.54817,320.37786 C 536.09819,320.42114 535.66555,320.50776 535.25025,320.63758 L 535.25025,320.63758 z M 520.76514,361.6761 L 520.76514,266.87182 L 541.22079,266.87182 C 546.75868,266.8719 551.10253,268.40868 554.25226,271.48222 C 557.40191,274.55585 558.97674,278.77655 558.97681,284.14441 L 558.97681,297.97544 C 558.97674,302.08801 558.05954,305.37799 556.22513,307.84548 C 554.39064,310.31306 551.82935,311.67666 548.54123,311.93637 C 552.14086,312.28271 554.95311,313.79781 556.97791,316.48173 C 559.00271,319.16576 560.01508,322.71554 560.01514,327.131 L 560.01514,342.91009 C 560.01508,349.49015 558.52678,354.26275 555.55017,357.22816 C 552.5735,360.19348 547.79708,361.6761 541.22079,361.6761 L 520.76514,361.6761 z M 569.56804,361.6761 L 569.56804,266.87182 L 584.26087,266.87182 L 584.26087,304.92343 L 594.69638,304.92343 L 594.69638,266.87182 L 609.44113,266.87182 L 609.44113,361.6761 L 594.69638,361.6761 L 594.69638,322.19602 L 584.26087,322.19602 L 584.26087,361.6761 L 569.56804,361.6761 z M 614.63292,361.6761 L 627.61239,266.87182 L 647.91235,266.87182 L 660.89184,361.6761 L 645.26457,361.6761 L 643.55125,345.05292 L 631.97351,345.05292 L 630.26021,361.6761 L 614.63292,361.6761 z M 633.583,327.78033 L 641.83798,327.78033 L 637.78832,283.10547 L 633.583,327.78033 z M 704.55492,361.6761 L 689.75828,361.6761 L 679.42665,281.09247 L 679.99776,361.6761 L 666.13557,361.6761 L 666.13557,266.87182 L 689.75828,266.87182 L 691.99079,288.10541 C 692.12921,289.36087 692.31956,291.17903 692.56189,293.55989 C 694.88084,314.98833 696.42107,330.46434 697.1826,339.98804 C 697.77096,333.01846 698.50649,325.10728 699.38903,316.2545 C 700.27166,307.4018 701.24945,298.0188 702.32241,288.10541 L 704.55492,266.87182 L 728.12571,266.87182 L 728.12571,361.6761 L 714.31552,361.6761 L 714.83471,281.09247 L 704.55492,361.6761 z" style="font-size:15.64307594px;font-style:normal;font-variant:normal;font-weight:400;font-stretch:normal;text-align:start;line-height:100%;writing-mode:lr-tb;text-anchor:start;fill:#fff;fill-opacity:1;stroke:none;stroke-width:1px;stroke-linecap:butt;stroke-linejoin:miter;stroke-opacity:1;font-family:Folio BdCn BT;-inkscape-font-specification:Folio BdCn BT"/><path id="rect3730" d="M 170.32622,170.93177 L 131.54237,121.55313 C 149.67285,109.16314 171.64912,101.93639 195.43351,101.93639 L 432.98323,101.93639 C 495.8325,101.93639 546.29444,152.3981 546.29444,215.2476 L 546.29444,255.8686 L 561.49762,255.8686 L 561.49762,215.2476 C 561.49762,144.23848 503.99212,86.733203 432.98323,86.733203 L 195.43351,86.733203 C 124.42439,86.733203 67.156668,144.23848 67.156668,215.2476 L 67.156668,386.28339 C 67.156668,457.29252 124.42424,514.56024 195.43351,514.56024 L 432.98323,514.56024 C 503.99235,514.56024 561.4977,457.29252 561.49762,386.28339 L 561.49762,367.27942 L 546.29444,367.27942 L 546.29444,386.28339 C 546.29452,449.13297 495.83272,499.35706 432.98323,499.35706 L 253.63319,499.35706 C 283.41204,487.38706 306.83125,466.04035 321.80996,437.35658 L 444.14806,437.35658 C 470.53942,437.35658 492.13326,415.76297 492.13311,389.37154 L 492.13311,367.27942 L 476.92992,367.27942 L 476.92992,389.37154 C 476.93,407.60335 462.37987,422.1534 444.14806,422.1534 L 328.6989,422.1534 C 328.9157,421.5921 329.20053,421.05642 329.41155,420.49055 C 355.85262,349.58056 319.79212,270.66966 248.8822,244.22867 C 220.03667,233.47272 189.8563,233.06664 162.4141,241.14052 L 162.4141,211.92191 C 162.4141,193.69002 176.96416,179.14004 195.19596,179.14004 L 444.14806,179.14004 C 462.37987,179.14004 476.92992,193.6901 476.92992,211.92191 L 476.92992,255.8686 L 492.13311,255.8686 L 492.13311,211.92191 C 492.13311,185.53055 470.53942,163.93686 444.14806,163.93686 L 195.19596,163.93686 C 186.10864,163.93686 177.59015,166.49708 170.32622,170.93177 z M 209.44895,332.83471 C 233.42649,332.83471 252.92054,352.32876 252.92054,376.30631 C 252.92047,400.28385 233.42649,419.7779 209.44895,419.7779 C 185.4714,419.7779 165.97735,400.28385 165.97735,376.30631 C 165.97742,352.32876 185.4714,332.83471 209.44895,332.83471 z" style="opacity:.98999999;fill:#fff;fill-opacity:1;fill-rule:evenodd;stroke:none;stroke-width:2;stroke-linecap:square;stroke-linejoin:miter;stroke-miterlimit:4;stroke-dasharray:none;stroke-dashoffset:0;stroke-opacity:1"/><rect id="rect3779" width="707.008" height="477.867" x="44.743" y="58.91" ry="0" style="opacity:.98999999;fill:none;fill-opacity:1;fill-rule:evenodd;stroke:#fff;stroke-width:15.03557777;stroke-linecap:square;stroke-linejoin:miter;stroke-miterlimit:4;stroke-dasharray:none;stroke-dashoffset:0;stroke-opacity:1"/></g></svg>