<?xml version="1.0" encoding="UTF-8"?>
<svg  xmlns="http://www.w3.org/2000/svg" height="125" width="440" version="1.1" y="0px" x="0px" xmlns:xlink="http://www.w3.org/1999/xlink" viewBox="0 0 440.000 125" >
 <path d="m35.713 68.582c11.055-18.316 21.437-36.161 21.437-36.161l90.488-15.289c-3.146 7.0826-8.646 18.165-14.092 25.248 0 0-17.662 20.323-28.796 17.871-30.688-6.7578-78.644 24.252-69.035 8.332z" fill="#fff"/>
 <g clip-rule="evenodd" transform="translate(-5 -12.5)" fill-rule="evenodd">
  <path d="m82.306 30.743h51.702c9.279-1.099 16.666-3.999 25.436-11.993-5.48 9.512-11.723 24.919-34.95 27.09h-45.922c-11.182 1.274-20.689 8.04-26.057 15.511 12.085-25.812 19.466-29.259 29.779-30.608z" fill="#f27836"/>
  <path d="m68.865 64.867h44.669c12.256-1.605 14.865-2.77 25.23-10.339-11.515 20.619-36.547 25.044-38.029 25.02h-34.135c-8.634 0.952-11.734 3.418-15.717 6.622l-39.706 45.08 27.506-46.533c1.24-2.479 7.525-16.271 30.192-19.85z" fill="#00a85c"/>
  <polygon points="306 40.5 306 41.2 297 44.8 291 44.8 291 44.8 290 40.5" fill="#57ba52"/>
  <path d="m288.26 36.751-1.239-4.341h22.333l0.013 0.401-9.748 3.94h-11.36z" fill="#f27336"/>
  <path d="m169.33 40.494c-0.538-4.228-3.41-7.652-9.729-7.652-5.684 0-9.855 2.585-9.855 7.72 0 9.23 13.078 6.714 13.078 10.371 0 1.14-1.23 1.778-3.094 1.778-0.729 0-1.519-0.2-2.119-0.603-0.631-0.405-1.072-1.041-1.232-1.914h-7.136c0.157 4.362 4.072 8.093 10.075 8.093 6.254 0 10.645-2.724 10.645-8.328 0-8.794-13.076-6.545-13.076-10.169 0-0.873 0.725-1.376 2.369-1.376 0.725 0 1.391 0.133 1.926 0.435 0.537 0.304 0.945 0.808 1.072 1.645h7.076zm15.57 8.928h-4.704l2.305-8.658 2.399 8.658zm-6.981 8.223 0.854-3.189h7.424l0.883 3.189h7.43l-8.14-24.165h-7.58l-8.148 24.165h7.293zm25.806 0v-9.365h7.043v9.364h7.455v-24.165h-7.455v8.157h-7.043v-8.157h-7.455v24.165h7.455v0.001zm30.484-8.223h-4.712l2.307-8.658 2.405 8.658zm-6.985 8.223 0.854-3.189h7.418l0.885 3.189h7.428l-8.15-24.165h-7.582l-8.152 24.165h7.297zm25.552-18.526h3.479c1.733 0 2.997 0.804 2.997 2.518 0 1.677-1.233 2.279-3.54 2.279h-2.936v-4.797zm2.276 10.101c3.473 0 3.979 1.041 3.979 4.196 0 2.147 0.189 3.691 0.378 4.228h7.55v-0.738c-0.885 0-0.793-1.074-0.793-4.229 0-4.867-1.453-5.47-3.852-6.41 2.655-0.772 3.821-3.122 3.821-5.907 0-4.7-2.497-6.881-10.077-6.881h-10.736v24.165h7.453v-8.424h2.277zm27.417 0.202h-4.706l2.301-8.658 2.405 8.658zm-6.982 8.223 0.854-3.189h7.422l0.879 3.189h7.428l-8.15-24.165h-7.58l-8.154 24.165h7.299z" fill="#737378"/>
  <path d="m108.03 55.454v0.02c0 6.314-5.153 11.462-11.469 11.462s-11.469-5.148-11.469-11.462v-0.02h22.938z" fill="#57ba52"/>
 </g>
 <defs>
  <path id="w" d="m96.559 44.014c6.311 0 11.457 5.136 11.468 11.44v0.02c0 6.314-5.153 11.462-11.469 11.462s-11.469-5.148-11.469-11.462v-0.02h0.005c0.011-6.304 5.157-11.44 11.465-11.44z"/>
 </defs>
 <defs>
  <path id="x" d="m108.03 55.454v0.02c0 6.314-5.153 11.462-11.469 11.462s-11.469-5.148-11.469-11.462v-0.02h22.938z"/>
 </defs>
 <clipPath id="y">
  <use xlink:href="#w" height="150" width="450" y="0" x="0" overflow="visible"/>
 </clipPath>
 <clipPath id="z" clip-path="url(#y)">
  <use xlink:href="#x" height="150" width="450" y="0" x="0" overflow="visible"/>
 </clipPath>
 <g transform="translate(-5 -12.5)" clip-path="url(#z)">
  <defs>
   <rect id="aa" y="54.7" width="24" x="84.8" height="12.8"/>
  </defs>
  <clipPath>
   <use xlink:href="#aa" height="150" width="450" y="0" x="0" overflow="visible"/>
  </clipPath>
 </g>
 <path fill="#f27336" clip-rule="evenodd" d="m91.557 31.514c6.311 0 11.457 5.136 11.468 11.44h-22.931c0.011-6.304 5.157-11.44 11.465-11.44z" fill-rule="evenodd"/>
 <defs>
  <path id="ab" d="m96.559 44.014c6.311 0 11.457 5.136 11.468 11.44v0.02c0 6.314-5.153 11.462-11.469 11.462s-11.469-5.148-11.469-11.462v-0.02h0.005c0.011-6.304 5.157-11.44 11.465-11.44z"/>
 </defs>
 <defs>
  <path id="o" d="m96.559 44.014c6.311 0 11.457 5.136 11.468 11.44h-22.939c0.011-6.304 5.157-11.44 11.465-11.44z"/>
 </defs>
 <clipPath id="p">
  <use xlink:href="#ab" height="150" width="450" y="0" x="0" overflow="visible"/>
 </clipPath>
 <clipPath id="u" clip-path="url(#p)">
  <use xlink:href="#o" height="150" width="450" y="0" x="0" overflow="visible"/>
 </clipPath>
 <g transform="translate(-5 -12.5)" clip-path="url(#u)">
  <defs>
   <rect id="v" y="43.5" width="24" x="84.8" height="12"/>
  </defs>
  <clipPath>
   <use xlink:href="#v" height="150" width="450" y="0" x="0" overflow="visible"/>
  </clipPath>
 </g>
 <path fill="#383336" clip-rule="evenodd" d="m93.588 28.485-0.652-1.826c-0.132-0.312-0.422-0.516-0.943-0.661 0.152-0.121 0.258-0.347 0.258-0.606 0-0.384-0.225-0.726-0.566-0.728-0.342 0.002-0.566 0.344-0.566 0.728 0 0.259 0.105 0.485 0.258 0.606-0.521 0.145-0.811 0.349-0.943 0.661l-0.654 1.826-1.105-1.596c-0.209-0.267-0.54-0.389-1.084-0.394 0.118-0.155 0.16-0.403 0.094-0.653-0.1-0.371-0.404-0.641-0.734-0.556-0.331 0.09-0.459 0.478-0.359 0.849 0.066 0.251 0.229 0.444 0.405 0.52-0.466 0.275-0.692 0.546-0.739 0.882l-0.159 1.933-1.481-1.256c-0.271-0.204-0.623-0.235-1.148-0.101 0.074-0.18 0.051-0.429-0.078-0.653-0.193-0.333-0.558-0.516-0.855-0.346-0.294 0.172-0.316 0.58-0.127 0.913 0.132 0.224 0.335 0.369 0.527 0.395-0.379 0.386-0.528 0.708-0.486 1.045l0.348 1.909-1.757-0.83c-0.313-0.126-0.662-0.065-1.136 0.2 0.025-0.192-0.063-0.427-0.245-0.612-0.271-0.271-0.671-0.353-0.914-0.113-0.241 0.243-0.159 0.643 0.113 0.914 0.185 0.183 0.418 0.27 0.61 0.247-0.264 0.47-0.325 0.819-0.199 1.134l0.83 1.755-1.911-0.348c-0.336-0.042-0.656 0.108-1.044 0.488-0.027-0.194-0.172-0.398-0.396-0.528-0.333-0.192-0.74-0.168-0.912 0.127-0.17 0.297 0.014 0.662 0.348 0.854 0.225 0.128 0.473 0.152 0.654 0.078-0.136 0.526-0.104 0.879 0.1 1.149l1.256 1.48-1.938 0.159c-0.335 0.047-0.605 0.273-0.881 0.74-0.075-0.179-0.27-0.339-0.52-0.406-0.371-0.099-0.76 0.029-0.85 0.358-0.086 0.33 0.185 0.636 0.557 0.735 0.25 0.066 0.498 0.023 0.653-0.093 0.005 0.542 0.127 0.874 0.394 1.082l1.596 1.105-1.828 0.655c-0.311 0.131-0.517 0.421-0.662 0.943-0.119-0.153-0.346-0.258-0.605-0.258-0.383 0-0.725 0.224-0.728 0.566 0.003 0.342 0.345 0.566 0.728 0.566 0.26 0 0.486-0.105 0.605-0.258 0.146 0.522 0.352 0.811 0.662 0.943l1.828 0.655-1.598 1.105c-0.265 0.208-0.389 0.54-0.393 1.082-0.156-0.116-0.402-0.159-0.653-0.091-0.371 0.099-0.643 0.404-0.556 0.734 0.09 0.33 0.478 0.458 0.849 0.358 0.251-0.067 0.444-0.226 0.521-0.406 0.274 0.467 0.546 0.693 0.881 0.74l1.936 0.16-1.256 1.48c-0.205 0.27-0.234 0.623-0.101 1.147-0.181-0.073-0.429-0.05-0.655 0.08-0.332 0.192-0.516 0.557-0.346 0.853 0.172 0.295 0.58 0.319 0.912 0.127 0.227-0.13 0.369-0.334 0.396-0.526 0.389 0.38 0.709 0.528 1.046 0.486l1.909-0.346-0.83 1.755c-0.127 0.313-0.066 0.662 0.201 1.134-0.193-0.024-0.43 0.063-0.612 0.246-0.272 0.273-0.354 0.671-0.114 0.914 0.242 0.241 0.645 0.159 0.914-0.113 0.185-0.183 0.271-0.418 0.247-0.61 0.472 0.266 0.821 0.327 1.136 0.199l1.754-0.829-0.346 1.909c-0.043 0.337 0.106 0.658 0.484 1.045-0.191 0.026-0.396 0.171-0.525 0.395-0.193 0.333-0.168 0.742 0.126 0.913 0.298 0.169 0.661-0.014 0.854-0.346 0.13-0.225 0.152-0.473 0.08-0.655 0.524 0.136 0.877 0.104 1.148-0.101l1.48-1.254 0.158 1.935c0.047 0.335 0.275 0.607 0.74 0.882-0.179 0.076-0.339 0.269-0.406 0.519-0.099 0.371 0.029 0.758 0.359 0.849 0.33 0.087 0.636-0.185 0.734-0.556 0.068-0.25 0.025-0.497-0.092-0.651 0.543-0.006 0.873-0.128 1.083-0.396l1.107-1.596 0.655 1.826c0.133 0.312 0.422 0.516 0.943 0.661-0.152 0.119-0.258 0.346-0.258 0.605 0 0.385 0.225 0.725 0.566 0.727 0.342-0.002 0.566-0.342 0.566-0.727 0-0.259-0.105-0.487-0.258-0.605 0.521-0.145 0.812-0.35 0.943-0.661l0.654-1.828 1.104 1.596c0.209 0.267 0.542 0.388 1.083 0.394-0.117 0.154-0.16 0.401-0.092 0.651 0.1 0.371 0.405 0.643 0.734 0.557 0.33-0.09 0.458-0.479 0.359-0.849-0.068-0.251-0.229-0.444-0.406-0.52 0.465-0.275 0.694-0.546 0.74-0.882l0.16-1.933 1.48 1.254c0.268 0.204 0.622 0.235 1.146 0.101-0.072 0.18-0.05 0.429 0.08 0.655 0.191 0.333 0.557 0.514 0.854 0.345 0.295-0.171 0.319-0.579 0.127-0.911-0.129-0.226-0.334-0.371-0.526-0.396 0.378-0.388 0.528-0.708 0.485-1.044l-0.346-1.909 1.752 0.829c0.316 0.126 0.666 0.065 1.138-0.2-0.024 0.194 0.063 0.429 0.245 0.612 0.271 0.272 0.672 0.354 0.916 0.113 0.239-0.243 0.155-0.643-0.115-0.914-0.184-0.183-0.418-0.27-0.611-0.246 0.266-0.473 0.326-0.821 0.2-1.134l-0.829-1.755 1.909 0.346c0.336 0.042 0.657-0.106 1.044-0.487 0.027 0.192 0.172 0.397 0.396 0.527 0.332 0.192 0.74 0.169 0.912-0.127s-0.014-0.661-0.346-0.853c-0.225-0.129-0.475-0.152-0.653-0.079 0.134-0.525 0.103-0.877-0.103-1.147l-1.256-1.48 1.936-0.159c0.336-0.047 0.607-0.275 0.883-0.74 0.075 0.179 0.269 0.339 0.52 0.406 0.37 0.099 0.76-0.029 0.848-0.358 0.088-0.331-0.183-0.636-0.555-0.735-0.252-0.067-0.498-0.024-0.653 0.093-0.007-0.542-0.127-0.874-0.396-1.083l-1.595-1.103 1.827-0.655c0.313-0.132 0.516-0.421 0.662-0.943 0.119 0.153 0.346 0.258 0.605 0.258 0.385 0 0.725-0.224 0.727-0.566-0.002-0.342-0.342-0.566-0.727-0.566-0.26 0-0.486 0.105-0.605 0.258-0.146-0.522-0.35-0.812-0.662-0.943l-1.828-0.653 1.596-1.104c0.269-0.209 0.389-0.542 0.396-1.083 0.153 0.117 0.401 0.16 0.651 0.093 0.371-0.099 0.643-0.404 0.555-0.735-0.088-0.33-0.477-0.458-0.848-0.358-0.25 0.067-0.442 0.227-0.52 0.406-0.275-0.465-0.547-0.693-0.881-0.74l-1.936-0.159 1.254-1.479c0.205-0.271 0.237-0.624 0.102-1.147 0.18 0.072 0.429 0.049 0.654-0.081 0.333-0.192 0.516-0.556 0.347-0.853-0.173-0.294-0.58-0.319-0.913-0.127-0.226 0.13-0.369 0.334-0.396 0.527-0.386-0.379-0.706-0.528-1.045-0.487l-1.909 0.346 0.829-1.753c0.128-0.314 0.066-0.662-0.2-1.133 0.194 0.022 0.429-0.063 0.613-0.248 0.271-0.27 0.353-0.671 0.112-0.914-0.242-0.239-0.642-0.157-0.913 0.115-0.184 0.183-0.272 0.418-0.247 0.61-0.472-0.266-0.821-0.327-1.136-0.198l-1.755 0.828 0.348-1.909c0.041-0.335-0.107-0.656-0.486-1.043 0.192-0.028 0.396-0.173 0.526-0.397 0.192-0.333 0.168-0.74-0.126-0.913-0.298-0.169-0.662 0.014-0.855 0.348-0.128 0.224-0.152 0.473-0.079 0.653-0.524-0.134-0.877-0.104-1.147 0.101l-1.48 1.256-0.16-1.935c-0.045-0.336-0.272-0.606-0.74-0.882 0.18-0.077 0.34-0.269 0.406-0.519 0.1-0.371-0.029-0.758-0.358-0.848-0.331-0.085-0.636 0.185-0.735 0.555-0.067 0.25-0.024 0.498 0.094 0.653-0.543 0.004-0.875 0.126-1.084 0.394l-1.104 1.588zm-1.904 9.23-0.619-6.076c-0.195 0.011-0.393 0.024-0.6 0.049-0.045 0.004-0.09 0.009-0.135 0.015l0.514-4.242-0.787 1.346c0 0.126-0.078 0.305-0.199 0.282-0.113 0.049-0.234-0.102-0.269-0.226l-1.231-1.431 0.074 1.326 1.898 2.943c-0.129 0.017-0.26 0.034-0.387 0.055-0.207 0.029-0.4 0.067-0.594 0.108l0.768 5.25-1.963-4.932c-0.188 0.061-0.373 0.127-0.567 0.203-0.12 0.047-0.241 0.096-0.362 0.146l0.17-3.499-0.597-1.182-0.353 1.855c0.035 0.124 0.004 0.316-0.117 0.328-0.094 0.08-0.252-0.034-0.314-0.146l-1.355-0.771 2.566 3.417c-0.041 0.019-0.084 0.037-0.123 0.055-0.192 0.083-0.369 0.168-0.547 0.258l2.505 5.569-3.573-4.952v-0.001c-0.166 0.108-0.33 0.22-0.496 0.343-0.037 0.027-0.074 0.055-0.11 0.081l-1.677-3.929-0.01 1.558c0.066 0.11 0.086 0.304-0.03 0.345-0.073 0.098-0.253 0.027-0.345-0.063l-1.782-0.624 0.728 1.111 3.116 1.602c-0.105 0.078-0.208 0.159-0.308 0.239-0.164 0.13-0.313 0.258-0.46 0.391l3.292 4.165-4.166-3.29h-0.002c-0.131 0.146-0.26 0.296-0.389 0.458-0.082 0.102-0.162 0.204-0.24 0.308l-1.604-3.114-1.11-0.728 0.624 1.784c0.09 0.09 0.16 0.271 0.063 0.343-0.043 0.115-0.234 0.095-0.347 0.031l-1.558 0.009 3.931 1.675c-0.026 0.037-0.054 0.073-0.081 0.11-0.123 0.168-0.233 0.33-0.342 0.496l4.955 3.572-5.572-2.502c-0.091 0.177-0.176 0.353-0.259 0.545-0.019 0.041-0.036 0.083-0.055 0.124l-3.418-2.565 0.772 1.354c0.109 0.065 0.225 0.223 0.145 0.316-0.014 0.12-0.206 0.151-0.328 0.117l-1.857 0.351 1.186 0.597 3.501-0.168c-0.052 0.119-0.101 0.24-0.146 0.36-0.079 0.195-0.142 0.382-0.203 0.569l4.934 1.961-5.254-0.768c-0.041 0.194-0.079 0.386-0.108 0.592-0.02 0.13-0.038 0.258-0.053 0.388l-2.947-1.896-1.326-0.075 1.432 1.231c0.123 0.034 0.276 0.156 0.227 0.267 0.022 0.121-0.156 0.2-0.285 0.2l-1.344 0.787 4.242-0.514c-0.005 0.046-0.011 0.09-0.014 0.134-0.024 0.208-0.04 0.404-0.049 0.601l6.076 0.618-6.076 0.618c0.009 0.197 0.024 0.394 0.049 0.6 0.003 0.046 0.009 0.09 0.014 0.136l-4.242-0.514 1.344 0.787c0.129 0 0.308 0.08 0.283 0.2 0.049 0.111-0.102 0.233-0.227 0.267l-1.431 1.231 1.325-0.075 2.947-1.896c0.016 0.13 0.033 0.258 0.053 0.386 0.031 0.208 0.068 0.4 0.109 0.594l5.253-0.766-4.932 1.959c0.06 0.188 0.124 0.374 0.202 0.567 0.045 0.122 0.096 0.243 0.146 0.362l-3.501-0.169-1.186 0.598 1.855 0.351c0.125-0.034 0.317-0.001 0.329 0.117 0.08 0.095-0.033 0.252-0.145 0.316l-0.771 1.354 3.418-2.565c0.018 0.041 0.036 0.083 0.055 0.124 0.082 0.192 0.168 0.368 0.258 0.545l5.57-2.502-4.953 3.572c0.109 0.166 0.219 0.328 0.344 0.497 0.025 0.035 0.054 0.072 0.08 0.108l-3.932 1.675 1.559 0.009c0.111-0.064 0.305-0.084 0.345 0.032 0.098 0.072 0.027 0.253-0.062 0.343l-0.624 1.782 1.111-0.728 1.603-3.114c0.077 0.105 0.158 0.208 0.238 0.308 0.131 0.164 0.26 0.312 0.393 0.459l4.164-3.29-3.291 4.165c0.148 0.131 0.296 0.261 0.459 0.391 0.102 0.081 0.205 0.16 0.309 0.239l-3.114 1.602-0.729 1.109 1.783-0.624c0.091-0.09 0.271-0.159 0.344-0.061 0.116 0.042 0.096 0.235 0.032 0.345l0.008 1.558 1.677-3.929c0.037 0.028 0.073 0.055 0.109 0.081 0.168 0.124 0.33 0.235 0.496 0.342l3.574-4.952-2.503 5.569c0.176 0.09 0.353 0.176 0.545 0.258 0.041 0.018 0.083 0.037 0.124 0.055l-2.566 3.417 1.354-0.772c0.064-0.11 0.223-0.225 0.315-0.145 0.12 0.014 0.151 0.206 0.117 0.33l0.353 1.855 0.597-1.186-0.169-3.499c0.12 0.052 0.24 0.101 0.363 0.148 0.193 0.076 0.378 0.141 0.566 0.202l1.961-4.93-0.768 5.249c0.194 0.042 0.389 0.079 0.594 0.11 0.129 0.02 0.258 0.038 0.387 0.053l-1.896 2.945-0.075 1.324 1.233-1.43c0.031-0.124 0.155-0.275 0.267-0.228 0.124-0.023 0.202 0.154 0.202 0.282l0.787 1.345-0.514-4.242c0.045 0.006 0.09 0.012 0.135 0.015 0.207 0.024 0.404 0.04 0.6 0.049l0.619-6.074 0.618 6.074c0.196-0.011 0.394-0.024 0.601-0.049 0.047-0.003 0.09-0.009 0.135-0.015l-0.513 4.242 0.788-1.345c0-0.128 0.077-0.305 0.197-0.284 0.111-0.049 0.234 0.102 0.266 0.226l1.234 1.431-0.076-1.326-1.896-2.945c0.129-0.015 0.258-0.034 0.388-0.053 0.206-0.031 0.398-0.067 0.593-0.108l-0.768-5.25 1.962 4.93c0.188-0.061 0.374-0.125 0.567-0.201 0.122-0.047 0.242-0.096 0.361-0.148l-0.169 3.499 0.597 1.186 0.353-1.855c-0.034-0.124-0.002-0.316 0.118-0.328 0.092-0.081 0.25 0.034 0.313 0.145l1.354 0.771-2.566-3.417c0.041-0.017 0.082-0.035 0.124-0.053 0.192-0.084 0.369-0.169 0.544-0.26l-2.511-5.57 3.574 4.952 0.496-0.343c0.036-0.026 0.072-0.054 0.109-0.081l1.677 3.931 0.008-1.558c-0.063-0.111-0.084-0.304 0.032-0.345 0.071-0.098 0.253-0.029 0.343 0.061l1.784 0.623-0.729-1.109-3.116-1.602c0.105-0.078 0.208-0.157 0.309-0.238 0.164-0.13 0.313-0.26 0.459-0.391l-3.291-4.165 4.166 3.29c0.133-0.148 0.262-0.296 0.391-0.459 0.082-0.101 0.161-0.204 0.24-0.308l1.603 3.114 1.11 0.728-0.623-1.782c-0.09-0.092-0.159-0.271-0.062-0.345 0.04-0.115 0.233-0.095 0.343-0.031l1.561-0.009-3.933-1.675c0.027-0.037 0.054-0.073 0.081-0.11 0.123-0.167 0.234-0.33 0.342-0.496l-4.955-3.572 5.572 2.502c0.09-0.177 0.178-0.354 0.26-0.545 0.019-0.041 0.037-0.083 0.054-0.124l3.418 2.565-0.772-1.354c-0.109-0.064-0.225-0.221-0.145-0.314 0.014-0.12 0.204-0.151 0.328-0.117l1.856-0.353-1.187-0.597-3.499 0.169c0.05-0.121 0.099-0.241 0.146-0.362 0.077-0.193 0.142-0.38 0.202-0.567l-4.933-1.962 5.252 0.768c0.043-0.192 0.079-0.386 0.11-0.592 0.02-0.128 0.038-0.258 0.053-0.386l2.947 1.895 1.326 0.076-1.434-1.233c-0.123-0.033-0.274-0.155-0.226-0.265-0.022-0.121 0.155-0.2 0.284-0.2l1.346-0.787-4.244 0.514c0.005-0.046 0.012-0.09 0.016-0.136 0.024-0.206 0.038-0.403 0.049-0.6l-6.079-0.618 6.079-0.618c-0.011-0.197-0.024-0.394-0.049-0.601-0.004-0.044-0.011-0.088-0.016-0.134l4.244 0.514-1.346-0.787c-0.129 0-0.307-0.08-0.284-0.2-0.049-0.11 0.103-0.233 0.226-0.265l1.432-1.233-1.326 0.076-2.945 1.895c-0.017-0.13-0.033-0.258-0.055-0.386-0.029-0.206-0.066-0.4-0.108-0.594l-5.253 0.768 4.933-1.961c-0.062-0.188-0.125-0.374-0.201-0.567-0.048-0.121-0.097-0.243-0.146-0.362l3.499 0.169 1.187-0.597-1.856-0.353c-0.124 0.034-0.316 0.003-0.33-0.116-0.079-0.093 0.033-0.252 0.145-0.314l0.75-1.354-3.42 2.563c-0.019-0.041-0.034-0.083-0.054-0.124-0.082-0.191-0.169-0.369-0.259-0.545l-5.573 2.502 4.955-3.572c-0.106-0.167-0.217-0.328-0.342-0.496-0.027-0.037-0.053-0.073-0.08-0.108l3.93-1.677-1.558-0.009c-0.111 0.064-0.304 0.084-0.345-0.031-0.098-0.071-0.029-0.253 0.061-0.343l0.625-1.784-1.109 0.729-1.604 3.114c-0.08-0.105-0.158-0.208-0.24-0.308-0.13-0.165-0.258-0.313-0.391-0.459l-4.166 3.29 3.291-4.163c-0.147-0.134-0.295-0.263-0.459-0.392-0.101-0.081-0.204-0.162-0.31-0.24l3.118-1.602 0.727-1.109-1.781 0.623c-0.092 0.09-0.273 0.16-0.346 0.063-0.115-0.04-0.096-0.233-0.029-0.345l-0.01-1.558-1.679 3.929c-0.035-0.026-0.071-0.053-0.108-0.08-0.166-0.125-0.329-0.235-0.496-0.343l-3.573 4.952 2.503-5.568c-0.176-0.09-0.354-0.177-0.543-0.259-0.042-0.019-0.083-0.037-0.124-0.054l2.565-3.418-1.355 0.772c-0.064 0.111-0.222 0.226-0.314 0.145-0.121-0.012-0.151-0.203-0.117-0.326l-0.352-1.857-0.598 1.186 0.171 3.499c-0.122-0.05-0.243-0.099-0.363-0.148-0.194-0.076-0.38-0.14-0.567-0.201l-1.963 4.932 0.768-5.252c-0.193-0.04-0.386-0.078-0.592-0.108-0.129-0.02-0.258-0.038-0.388-0.053l1.896-2.945 0.075-1.325-1.231 1.43c-0.034 0.125-0.155 0.274-0.266 0.226-0.119 0.021-0.196-0.157-0.196-0.284l-0.788-1.346 0.513 4.242c-0.045-0.006-0.088-0.011-0.135-0.015-0.207-0.024-0.404-0.038-0.601-0.049l-0.619 6.077zm-5.45-8.308v0.001-0.001zm0 0.001v-0.001 0.001z" fill-rule="evenodd"/>
 <path fill="#fff" clip-rule="evenodd" d="m91.681 32.3 0.559 6.555c0.722 0.104 1.384 0.391 1.935 0.815l3.165-2.373-2.376 3.168c0.416 0.554 0.699 1.213 0.797 1.933l6.566 0.56-6.566 0.562c-0.097 0.719-0.379 1.381-0.795 1.935l2.379 3.187-3.167-2.392c-0.553 0.425-1.217 0.714-1.938 0.818l-0.559 6.549-0.557-6.54c-0.734-0.091-1.41-0.375-1.975-0.798l-3.088 2.321 2.301-3.101c-0.438-0.564-0.732-1.244-0.83-1.985l-6.494-0.556 6.495-0.554c0.099-0.74 0.394-1.419 0.831-1.984l-2.354-3.088 3.146 2.31c0.563-0.422 1.235-0.705 1.97-0.798l0.558-6.544z" fill-rule="evenodd"/>
 <path d="m154.98 51.323h-18.669c-1.714 0-3.307 0.434-4.778 1.297-1.472 0.865-2.375 1.886-2.711 3.059l-2.626 8.716c-0.111 0.293-0.168 0.601-0.168 0.931 0 1.013 0.475 1.837 1.425 2.472 0.949 0.635 2.152 0.952 3.606 0.952h18.61c1.752 0 3.354-0.421 4.807-1.27s2.367-1.88 2.739-3.085l2.626-8.716c0.113-0.293 0.168-0.587 0.168-0.88 0-1.012-0.475-1.843-1.426-2.496-0.948-0.654-2.15-0.98-3.603-0.98zm-16.152 15.224c-0.484 0-0.727-0.146-0.727-0.439v-0.146l3.576-11.847c0.15-0.392 0.502-0.587 1.063-0.587h4.471c0.484 0 0.727 0.146 0.727 0.439v0.148l-3.64 11.846c-0.113 0.391-0.468 0.586-1.062 0.586h-4.415zm56.674-7.392c0-0.064 0.018-0.114 0.055-0.145l0.951-3.331c0.111-0.293 0.168-0.587 0.168-0.88 0-1.012-0.475-1.843-1.426-2.496s-2.151-0.98-3.605-0.98h-27.051c-0.373 0-0.559 0.083-0.559 0.244 0 0.098 0.326 0.409 0.979 0.931 0.65 0.523 0.978 0.979 0.978 1.372 0 0.096-0.019 0.178-0.057 0.244l-4.248 14.001v0.146c0 0.329 0.243 0.488 0.727 0.488h10.677c0.559 0 0.912-0.214 1.061-0.635l4.248-14.001c0.111-0.392 0.467-0.587 1.062-0.587h4.416c0.483 0 0.727 0.146 0.727 0.439 0 0.555-0.384 1.83-1.146 3.819-0.764 1.991-1.146 3.313-1.146 3.966 0 0.326 0.242 0.49 0.729 0.49h10.618c0.597 0 1.137-0.148 1.62-0.441l2.292-1.322c0.187-0.131 0.279-0.246 0.279-0.343 0-0.131-0.391-0.236-1.173-0.317-0.786-0.082-1.176-0.302-1.176-0.662zm19.897 7.392h-4.416c-0.483 0-0.727-0.146-0.727-0.439-0.009-0.062-0.009-0.11-0.009-0.146l3.586-11.847c0.149-0.392 0.504-0.587 1.062-0.587h4.472c0.484 0 0.726 0.146 0.726 0.439 0 0.36-0.166 0.931-0.502 1.713-0.336 0.784-0.503 1.356-0.503 1.715 0 0.325 0.242 0.49 0.727 0.49h10.678c0.592 0 0.945-0.214 1.062-0.638l0.445-1.567c0.11-0.293 0.165-0.587 0.165-0.88 0-1.012-0.477-1.843-1.422-2.496-0.952-0.653-2.154-0.98-3.607-0.98h-18.666c-1.715 0-3.309 0.434-4.779 1.297-1.473 0.865-2.375 1.886-2.711 3.059l-2.627 8.716c-0.111 0.293-0.168 0.601-0.168 0.931 0 1.013 0.475 1.837 1.426 2.472 0.949 0.635 2.151 0.952 3.604 0.952h18.613c1.75 0 3.355-0.421 4.809-1.27 1.452-0.849 2.361-1.88 2.734-3.085 0.335-1.078 0.506-1.651 0.506-1.713 0-0.295-0.244-0.442-0.727-0.442h-10.676c-0.559 0-0.912 0.195-1.063 0.588l-0.949 3.132c-0.115 0.391-0.468 0.586-1.063 0.586zm51.64-11.748c0-1.012-0.47-1.843-1.422-2.496s-2.154-0.98-3.607-0.98h-18.67c-1.715 0-3.309 0.434-4.779 1.297-1.471 0.865-2.374 1.886-2.71 3.059l-2.63 8.716c-0.11 0.293-0.165 0.601-0.165 0.931 0 1.013 0.476 1.837 1.422 2.472 0.952 0.635 2.154 0.952 3.607 0.952h20.85c0.592 0 1.897-0.586 3.912-1.758 0.183-0.098 0.274-0.201 0.274-0.299s-0.128-0.146-0.391-0.146h-16.876c-0.488 0-0.727-0.146-0.727-0.439 0-1.142 0.446-1.712 1.343-1.712h11.566c1.715 0 3.309-0.425 4.779-1.273 1.471-0.85 2.393-1.876 2.765-3.085l1.288-4.358c0.111-0.294 0.166-0.588 0.166-0.881zm-12.799-1.273c0.488 0 0.727 0.146 0.727 0.439 0 0.067-0.763 2.612-2.289 7.639-0.109 0.424-0.464 0.636-1.062 0.636h-4.474c-0.482 0-0.727-0.164-0.727-0.49 0-0.032 0.769-2.579 2.295-7.637 0.146-0.392 0.5-0.587 1.062-0.587h4.468z" fill="#737378"/>
 <g transform="translate(-5 -12.5)" fill="#737375">
  <path d="m323.4 96.918 1.66 0.177c-0.262 0.824-0.744 1.471-1.452 1.929-0.708 0.451-1.618 0.684-2.716 0.684-1.386 0-2.49-0.366-3.297-1.093-0.817-0.727-1.221-1.752-1.221-3.063 0-1.367 0.409-2.424 1.233-3.174 0.824-0.751 1.886-1.13 3.198-1.13 1.264 0 2.301 0.373 3.106 1.105 0.8 0.738 1.202 1.775 1.202 3.106 0 0.085 0 0.207-0.006 0.372h-7.074c0.062 0.885 0.354 1.568 0.886 2.039 0.53 0.476 1.19 0.708 1.983 0.708 0.586 0 1.086-0.129 1.508-0.397 0.417-0.262 0.746-0.684 0.99-1.263zm-5.279-2.216h5.298c-0.067-0.684-0.274-1.19-0.604-1.532-0.513-0.524-1.178-0.793-1.989-0.793-0.739 0-1.361 0.213-1.868 0.635-0.501 0.421-0.777 0.982-0.837 1.69z"/>
  <path d="m315.37 98.364 0.274 1.147c-0.531 0.079-1.007 0.116-1.423 0.116-0.689 0-1.221-0.073-1.599-0.22-0.372-0.153-0.635-0.349-0.794-0.593-0.152-0.244-0.231-0.757-0.231-1.531v-4.419h-1.38v-1.014h1.38v-1.898l1.88-0.781v2.68h1.893v1.014h-1.893v4.485c0 0.373 0.03 0.61 0.092 0.721 0.073 0.104 0.177 0.189 0.329 0.25 0.146 0.062 0.366 0.098 0.642 0.098 0.212 0 0.488-0.019 0.83-0.055z"/>
  <path stroke="#737375" stroke-width=".216" stroke-miterlimit="2.61" d="m303.68 96.918 1.66 0.177c-0.263 0.824-0.745 1.471-1.453 1.929-0.714 0.451-1.617 0.684-2.716 0.684-1.392 0-2.49-0.366-3.302-1.093s-1.221-1.752-1.221-3.063c0-1.367 0.415-2.424 1.232-3.174 0.824-0.751 1.886-1.13 3.198-1.13 1.27 0 2.308 0.373 3.107 1.105 0.805 0.738 1.208 1.775 1.208 3.106 0 0.085-0.006 0.207-0.013 0.372h-7.067c0.055 0.885 0.354 1.568 0.885 2.039 0.525 0.476 1.185 0.708 1.978 0.708 0.592 0 1.093-0.129 1.508-0.397 0.422-0.262 0.752-0.684 0.996-1.263zm-5.28-2.216h5.299c-0.074-0.684-0.275-1.19-0.611-1.532-0.512-0.524-1.172-0.793-1.989-0.793-0.738 0-1.361 0.213-1.861 0.635-0.508 0.421-0.782 0.982-0.838 1.69z"/>
  <path id="q" d="m268.4 98.522c-0.599 0.434-1.172 0.739-1.722 0.916s-1.142 0.269-1.771 0.269c-1.043 0-1.843-0.22-2.404-0.653s-0.836-0.988-0.836-1.66c0-0.396 0.098-0.763 0.311-1.093 0.214-0.323 0.488-0.586 0.83-0.787 0.349-0.195 0.732-0.348 1.16-0.445 0.317-0.073 0.793-0.141 1.428-0.208 1.301-0.134 2.259-0.286 2.869-0.47 0.006-0.189 0.006-0.312 0.006-0.36 0-0.555-0.146-0.952-0.451-1.178-0.409-0.312-1.025-0.464-1.831-0.464-0.757 0-1.313 0.11-1.679 0.336-0.36 0.226-0.623 0.629-0.8 1.202l-1.568-0.189c0.141-0.567 0.378-1.037 0.702-1.385 0.329-0.354 0.806-0.629 1.422-0.818 0.623-0.189 1.337-0.287 2.154-0.287 0.813 0 1.465 0.086 1.972 0.244 0.507 0.165 0.879 0.366 1.117 0.617 0.237 0.244 0.402 0.555 0.5 0.934 0.056 0.231 0.079 0.653 0.079 1.264v1.824c0 1.282 0.037 2.088 0.104 2.424 0.067 0.335 0.207 0.659 0.409 0.97h-1.686c-0.163-0.282-0.273-0.618-0.315-1.003zm-0.135-3.063c-0.586 0.207-1.459 0.378-2.625 0.524-0.665 0.08-1.129 0.171-1.403 0.269-0.274 0.104-0.488 0.251-0.635 0.452-0.146 0.195-0.226 0.409-0.226 0.646 0 0.366 0.164 0.672 0.488 0.916 0.323 0.244 0.799 0.366 1.428 0.366 0.617 0 1.166-0.116 1.648-0.348s0.836-0.55 1.068-0.946c0.17-0.312 0.256-0.77 0.256-1.373v-0.506h0.001z" fill="#737375"/>
  <polygon points="259 99.5 259 99.5 259 87.7 260 87.7 260 99.5"/>
  <path id="r" d="m254.19 99.523v-1.189c-0.739 0.915-1.746 1.373-3.016 1.373-0.556 0-1.08-0.092-1.563-0.274-0.488-0.184-0.849-0.415-1.08-0.69-0.238-0.274-0.403-0.616-0.501-1.013-0.061-0.274-0.098-0.702-0.098-1.282v-5.011h1.611v4.48c0 0.72 0.03 1.202 0.098 1.452 0.104 0.36 0.317 0.641 0.642 0.849 0.329 0.207 0.732 0.305 1.214 0.305s0.935-0.104 1.361-0.311c0.421-0.214 0.72-0.501 0.892-0.861 0.177-0.366 0.268-0.891 0.268-1.58v-4.334h1.605v8.087h-1.433v-0.001z" fill="#737375"/>
  <path id="s" d="m232.11 99.523v-8.087h1.44v1.129c0.293-0.391 0.689-0.714 1.185-0.952 0.494-0.244 1.062-0.366 1.69-0.366 0.702 0 1.275 0.129 1.728 0.379 0.451 0.25 0.769 0.592 0.952 1.044 0.75-0.946 1.727-1.423 2.93-1.423 0.939 0 1.66 0.227 2.166 0.672 0.507 0.445 0.764 1.129 0.764 2.051v5.554h-1.6v-5.096c0-0.55-0.055-0.946-0.158-1.185s-0.293-0.434-0.568-0.586c-0.274-0.146-0.592-0.22-0.964-0.22-0.665 0-1.221 0.189-1.66 0.567-0.439 0.379-0.659 0.983-0.659 1.819v4.699h-1.611v-5.255c0-0.61-0.128-1.068-0.391-1.373-0.263-0.306-0.689-0.458-1.288-0.458-0.451 0-0.866 0.104-1.251 0.306-0.385 0.207-0.665 0.5-0.836 0.891-0.178 0.391-0.257 0.958-0.257 1.69v4.199h-1.612v0.001z" fill="#737375"/>
  <path d="m225.85 99.523v-8.087h1.21v1.221c0.308-0.567 0.595-0.952 0.857-1.135 0.261-0.178 0.548-0.275 0.865-0.275 0.451 0 0.915 0.153 1.386 0.446l-0.471 1.275c-0.323-0.201-0.652-0.299-0.982-0.299-0.299 0-0.562 0.085-0.795 0.269-0.235 0.183-0.399 0.433-0.501 0.75-0.149 0.488-0.223 1.02-0.223 1.6v4.235h-1.346z"/>
  <path id="t" d="m214.46 95.478c0-1.496 0.488-2.606 1.47-3.327 0.814-0.598 1.81-0.903 2.984-0.903 1.308 0 2.375 0.366 3.203 1.099 0.831 0.727 1.243 1.733 1.243 3.016 0 1.044-0.185 1.861-0.55 2.46-0.367 0.598-0.901 1.062-1.6 1.392-0.703 0.329-1.465 0.494-2.297 0.494-1.328 0-2.402-0.36-3.225-1.093-0.817-0.728-1.228-1.771-1.228-3.138zm1.654 0c0 1.037 0.268 1.813 0.799 2.325 0.531 0.519 1.201 0.775 2.002 0.775s1.467-0.257 1.997-0.775c0.528-0.519 0.794-1.307 0.794-2.368 0-1.001-0.266-1.764-0.8-2.276s-1.196-0.77-1.991-0.77c-0.801 0-1.471 0.257-2.002 0.77s-0.799 1.286-0.799 2.319z" fill="#737375"/>
  <path d="m209.91 99.523v-7.433h-1.418v-1.129h1.418v-0.916c0-0.573 0.058-1.001 0.171-1.281 0.155-0.379 0.425-0.684 0.815-0.916 0.391-0.231 0.938-0.348 1.641-0.348 0.452 0 0.953 0.043 1.5 0.141l-0.239 1.27c-0.333-0.056-0.649-0.08-0.949-0.08-0.487 0-0.831 0.092-1.032 0.281-0.205 0.189-0.306 0.537-0.306 1.056v0.794h1.848v1.129h-1.848v7.434h-1.601v-0.002z"/>
 </g>
 <g transform="translate(-5 -12.5)" fill="#737378">
  <path d="m409.88 81.073h23.975c0.562 0 1.849-0.586 3.857-1.765 0.226-0.098 0.335-0.195 0.335-0.293 0-0.128-0.391-0.244-1.172-0.342s-1.172-0.329-1.172-0.684v-0.149l2.96-9.84c0.109-0.295 0.164-0.588 0.164-0.882 0-1.012-0.47-1.843-1.422-2.496-0.952-0.652-2.154-0.98-3.607-0.98h-23.975c-0.335 0-0.506 0.083-0.506 0.246 0 0.065 0.043 0.131 0.115 0.197l1.453 1.321c0.336 0.293 0.8 0.439 1.397 0.439h13.745c0.488 0 0.727 0.148 0.727 0.441 0 1.143-0.464 1.714-1.392 1.714h-11.518c-1.751 0-3.351 0.432-4.804 1.297-1.452 0.865-2.367 1.886-2.74 3.061l-1.287 4.356c-0.11 0.293-0.165 0.604-0.165 0.931 0 1.011 0.476 1.834 1.422 2.476 0.954 0.635 2.156 0.952 3.609 0.952zm10.394-10.869h4.475c0.445 0 0.671 0.146 0.671 0.441 0 0.064-0.763 2.611-2.295 7.638-0.109 0.391-0.464 0.586-1.062 0.586h-4.413c-0.488 0-0.727-0.146-0.727-0.439 0-0.066 0.763-2.612 2.289-7.638 0.117-0.393 0.464-0.588 1.062-0.588z"/>
  <path d="m398.47 61.49c1.978 0 3.748-0.539 5.311-1.616 1.568-1.077 2.35-2.284 2.35-3.623 0-1.012-0.476-1.845-1.429-2.498-0.945-0.653-2.148-0.978-3.601-0.978-1.94 0-3.698 0.539-5.286 1.616-1.58 1.077-2.374 2.299-2.374 3.671 0 1.012 0.477 1.836 1.429 2.472 0.945 0.637 2.148 0.956 3.6 0.956z"/>
  <path d="m386.51 80.585c0 0.323 0.219 0.488 0.671 0.488h10.729c0.556 0 1.081-0.146 1.563-0.439l2.295-1.325c0.184-0.098 0.275-0.195 0.275-0.293 0-0.128-0.391-0.244-1.172-0.342s-1.172-0.329-1.172-0.684v-0.149l4.132-13.56v-0.148c0-0.327-0.22-0.49-0.665-0.49h-13.807c-0.336 0-0.506 0.083-0.506 0.246 0 0.098 0.329 0.407 0.977 0.931 0.652 0.522 0.982 0.978 0.982 1.37 0 0.098-0.019 0.18-0.055 0.246l-4.248 14.003c0.001 0.06 0.001 0.109 0.001 0.146z"/>
  <path d="m381.48 77.99v-0.149l6.091-20.122v-0.146c0-0.229-0.171-0.343-0.507-0.343h-0.22l-14.367 1.959c-0.372 0.032-0.556 0.129-0.556 0.294 0 0.129 0.323 0.456 0.977 0.978s0.977 0.979 0.977 1.37c0 1.208-0.464 1.811-1.397 1.811h-11.566c-1.715 0-3.308 0.424-4.779 1.274-1.471 0.848-2.374 1.877-2.71 3.084l-2.631 8.714c-0.109 0.293-0.164 0.586-0.164 0.882 0 1.011 0.476 1.834 1.422 2.476 0.952 0.635 2.154 0.952 3.607 0.952h23.975c0.562 0 1.099-0.129 1.623-0.391l2.234-1.325c0.226-0.128 0.336-0.244 0.336-0.342 0-0.128-0.391-0.237-1.172-0.317-0.782-0.079-1.173-0.304-1.173-0.659zm-13.642 0.879h-4.413c-0.488 0-0.727-0.164-0.727-0.488v-0.098l3.577-11.848c0.146-0.424 0.5-0.638 1.062-0.638h4.468c0.488 0 0.727 0.163 0.727 0.49v0.148l-3.64 11.848c-0.11 0.391-0.464 0.586-1.062 0.586z"/>
  <path d="m345.61 77.966v-0.146l2.96-9.906c0.116-0.296 0.171-0.592 0.171-0.888 0-1.018-0.476-1.855-1.428-2.513-0.946-0.658-2.148-0.986-3.602-0.986h-27.05c-0.372 0-0.562 0.083-0.562 0.246 0 0.099 0.33 0.412 0.977 0.937 0.653 0.526 0.983 0.986 0.983 1.381 0 0.098-0.019 0.18-0.062 0.246l-4.248 14.096v0.146c0 0.33 0.244 0.495 0.732 0.495h10.675c0.556 0 0.91-0.214 1.063-0.642l4.242-14.096c0.115-0.394 0.47-0.592 1.062-0.592h4.419c0.482 0 0.727 0.148 0.727 0.444v0.148l-4.248 14.096c-0.037 0.067-0.055 0.116-0.055 0.146 0 0.33 0.244 0.495 0.726 0.495h10.675c0.599 0 1.136-0.146 1.624-0.446l2.289-1.33c0.183-0.098 0.28-0.195 0.28-0.293 0-0.135-0.391-0.25-1.178-0.348-0.78-0.097-1.171-0.33-1.171-0.69z"/>
 </g>
 <path d="m302.41 48.99c1.922 0 3.649-0.539 5.176-1.616 1.525-1.077 2.288-2.284 2.288-3.623 0-1.012-0.464-1.845-1.392-2.498-0.922-0.653-2.094-0.978-3.51-0.978-1.892 0-3.606 0.539-5.15 1.616-1.545 1.077-2.32 2.299-2.32 3.671 0 1.012 0.465 1.836 1.393 2.472s2.099 0.956 3.515 0.956z" fill="#e0264a"/>
 <path d="m290.75 68.085c0 0.323 0.22 0.488 0.652 0.488h10.468c0.544 0 1.05-0.146 1.521-0.439l2.239-1.325c0.177-0.098 0.269-0.195 0.269-0.293 0-0.128-0.378-0.244-1.141-0.342-0.764-0.098-1.148-0.329-1.148-0.684v-0.149l4.035-13.56v-0.148c0-0.327-0.22-0.49-0.653-0.49h-13.464c-0.324 0-0.488 0.083-0.488 0.246 0 0.098 0.316 0.407 0.951 0.931 0.635 0.522 0.953 0.978 0.953 1.37 0 0.098-0.013 0.18-0.049 0.246l-4.145 14.003v0.146z" fill="#e0264a"/>
 <use xlink:href="#t" transform="translate(56.1 -12.5)" height="150" width="450" y="0" x="0"/>
 <use xlink:href="#s" transform="translate(99.4 -12.5)" height="150" width="450" y="0" x="0"/>
 <use xlink:href="#r" transform="matrix(-1 0 0 -1 538 178)" height="150" width="450" y="0" x="0"/>
 <use xlink:href="#q" transform="translate(59.5 -12.5)" height="150" width="450" y="0" x="0"/>
</svg>
