<?xml version="1.0" encoding="UTF-8" standalone="no"?>
<svg id="Layer_1" xmlns:rdf="http://www.w3.org/1999/02/22-rdf-syntax-ns#" xmlns="http://www.w3.org/2000/svg" enable-background="new 0 0 612 792" xml:space="preserve" height="104.5" viewBox="0 0 199.96136 104.5" width="199.96" version="1.1" y="0px" x="0px" xmlns:cc="http://creativecommons.org/ns#" xmlns:dc="http://purl.org/dc/elements/1.1/"><g id="g4821" transform="matrix(1.2025 0 0 1.2025 -272.95 -422.95)"><path id="path4825" style="fill-rule:evenodd;clip-rule:evenodd;fill:#00878a" d="m369.17 419.59-5.582-10.368c3.409-1.462 5.11-3.798 5.11-6.996 0-4.712-3.378-7.066-10.136-7.066h-9.194c.687.787 1.027 1.681 1.027 2.673v24.351h6.831c-.682-.729-1.021-1.772-1.021-3.14v-20.666c1.049-.097 1.758-.151 2.117-.151 2.825.151 4.244 1.619 4.244 4.4 0 3.562-1.805 5.44-5.418 5.652l5.736 12.099c.575 1.203 1.436 1.806 2.591 1.806h5.97c-.83-.522-1.598-1.383-2.275-2.594zm-24.042-.627-9.656-23.884h-3.621l-9.197 23.177c-.782 1.886-1.754 3.198-2.904 3.927h7.619c-.731-.521-1.097-1.072-1.097-1.647 0-.365.106-.813.313-1.341l1.419-3.927h9.579l1.651 4.643c.371.891.135 1.646-.706 2.272h8.874c-.888-.573-1.642-1.648-2.274-3.22zm-31.74-23.804c1.15.729 1.73 2.099 1.73 4.078v13.678c0 4.033-1.837 6.048-5.507 6.048-3.979 0-5.96-1.987-5.96-5.97v-17.834h-7.149c.832.627 1.251 1.601 1.251 2.904v13.678c0 7.325 3.774 10.988 11.316 10.988 3.088 0 5.522-.889 7.305-2.661 1.777-1.782 2.676-4.292 2.676-7.55v-13.199c0-1.987.604-3.373 1.803-4.16h-7.465zm-20.82 14.145h-6.991c.938 1.204 1.412 2.274 1.412 3.215v6.289c-1.043.474-2.305.709-3.764.709-2.414 0-4.366-.954-5.858-2.868-1.497-1.909-2.241-4.467-2.241-7.656 0-3.467.865-6.175 2.597-8.138 1.721-1.962 4.083-2.944 7.071-2.944 2.72 0 5.105.964 7.144 2.911v-4.875c-2.72-.886-5.447-1.336-8.167-1.336-4.346 0-7.932 1.322-10.767 3.959-2.826 2.652-4.235 6.067-4.235 10.259 0 4.353 1.343 7.78 4.042 10.29 2.697 2.516 6.275 3.771 10.725 3.771 3.616 0 6.622-.735 9.032-2.201v-11.385zm-26.557 9.659-9.662-23.884h-3.606l-9.197 23.177c-.783 1.886-1.753 3.198-2.906 3.927h7.622c-.734-.521-1.103-1.072-1.103-1.647 0-.365.104-.813.316-1.341l1.414-3.927h9.581l1.655 4.643c.363.891.125 1.646-.712 2.272h8.877c-.883-.573-1.647-1.648-2.279-3.22zm-27.024-23.804h-6.753c.684.787 1.023 1.681 1.023 2.673v19.01c0 3.038-.394 5.449-1.181 7.229-.943 2.097-2.643 3.926-5.105 5.498h6.444c3.712-3.3 5.571-8.354 5.571-15.16v-19.25h.001zm90.2 16.973 3.604-9.041 3.458 9.041h-7.062zm-79.114 0 3.611-9.041 3.451 9.041h-7.062z"/><path id="path4827" style="fill-rule:evenodd;clip-rule:evenodd;fill:#ef404a" d="m388.84 395.78-5.261.233-2.279-2.591c-.57-.573-1.1-.891-1.569-.945-1.677-.101-2.72-.335-3.145-.705l-5.805-5.178c-1.106-.95-2.102-1.442-2.992-1.497l-4.949-.396c-4.977-4.82-8.67-7.592-11.076-8.327 1.624 1.209 3.194 2.678 4.715 4.4.836.942 2.015 2.416 3.54 4.401.721.994 1.743 1.52 3.057 1.569 1.938.16 3.618.29 5.025.394l6.68 6.053c.578.575 1.285.938 2.129 1.094.309.107 1.096.19 2.353.239l2.279 2.516-1.493 1.572-4.479-.395-7.468-6.68-14.371-.863c-2.101-.104-3.747-.469-4.954-1.105-.889-.467-1.988-1.407-3.296-2.826l-6.758-7.304c-1.418-1.516-2.441-2.303-3.061-2.36.049 0-1.894.114-5.815.316-3.932.209-6.975.237-9.119.08-2.242-.157-4.452-.474-6.593-.942l1.492-2.439c1.777.212 2.797.349 3.062.396 1.624.106 3.557.029 5.817-.233 1.829-.163 3.347-.602 4.559-1.336-1.681.207-3.965.236-6.836.075-2.413-.208-4.424-.601-6.055-1.181l-4.637-8.875c-.156-.313-.233-.598-.233-.859 0-.941.73-1.419 2.194-1.419-.362-.361-1.016-.547-1.961-.547-1.464 0-2.194.758-2.194 2.277 0 .53.13 1.023.391 1.487l4.161 8.646-2.435 3.778c-1.677-.061-2.883-.061-3.614 0-.999-.113-2.517-.306-4.558-.591-2.044-.289-3.585-.488-4.63-.589-2.251-.154-4.061-.029-5.423.391l1.101 1.731-2.202 2.665-2.279-.308-1.643-3.227 1.965-3.378c1.928-.573 3.503-.968 4.705-1.181 2.781-.413 5.758-.496 8.959-.233 3.502.267 5.368.394 5.57.394-.777-.417-1.57-.757-2.348-1.021-2.831-.575-4.971-.967-6.444-1.178-1.671-2.464-2.51-3.849-2.51-4.161.516-2.567 1.018-4.509 1.487-5.82-.889.995-1.777 2.126-2.67 3.382-.889 1.257-1.334 2.096-1.334 2.516-.052.681.709 1.987 2.279 3.929l-2.442-.085c-.787-.782-1.343-1.292-1.68-1.529-.344-.233-.957-.533-1.85-.903l-7.232-2.831 1.261-2.43c4.087 1.569 6.543 2.484 7.379 2.748.737-.419 1.537-1.115 2.399-2.081.87-.971 1.584-2.164 2.164-3.578-2.357 1.885-4.061 2.96-5.11 3.224l-8.094-3.066-2.901 5.344c-1.362 2.461-3.036 3.908-5.03 4.32-.419.16-.761.208-1.023.16-.203 0-.314-.129-.314-.396 0-.105.135-.176.392-.238 1.362-.412 2.095-1.359 2.201-2.824.111-1.096-.169-2.043-.825-2.83-.647-.783-1.583-1.226-2.788-1.337-2.521-.151-3.849 1.023-4.004 3.538h-.549c-.731-.057-1.072-.655-1.023-1.806.046-.368.153-.655.313-.865.626-.626 1.1-1.096 1.414-1.419l-1.414.867c-.313.262-.547.288-.702.08-.106-.113-.062-.261.155-.474l2.361-2.042c.465.37.889.575 1.252.626 1.096-.052 1.907-.129 2.435-.236 1.52.106 2.698.682 3.53 1.73.057-.782-.174-1.57-.703-2.357-.419-.417-.787-.781-1.095-1.101.57-.47.989-.708 1.251-.708.262.055.957.262 2.082.635 1.126.361 1.899.495 2.314.393 1.101-.79 1.966-1.548 2.598-2.283 1.464-.571 2.564-.917 3.296-1.019-.522-.047-1.097-.106-1.726-.16-1.777-.102-2.984.198-3.609.902-.636.712-1.211 1.04-1.728.988-.323 0-.769-.068-1.338-.2-.576-.127-1.023-.193-1.342-.193-.464-.057-.918 0-1.329.161l-4.323 1.174c-.262 0-.392-.103-.392-.314 0-.315.759-.735 2.275-1.257.681-.207 1.86-.551 3.535-1.024 3.255-.889 7.387-1.304 12.415-1.254 3.815 0 6.496.054 8.012.16 2.826.206 5.841.913 9.037 2.119l21.756 8.642c5.351 2.095 12.176 5.11 20.509 9.037 4.089 1.987 7.39 3.632 9.904 4.942 6.227 3.358 11.389 6.503 15.476 9.433 2.511 1.834 3.951 2.852 4.318 3.064 1.938 1.049 3.903 1.65 5.888 1.803-.261 0 .972-.055 3.693-.153.63 0 1.104.143 1.417.424.313.29.445.648.396 1.062-.054 1-.686 1.517-1.893 1.573zm3.423-4.122c-.517-.469-1.584-1.419-2.635-1.14-.45.129-1.32-.024-2.551.082-1.228.097-2.186.134-2.868.078-1.417-.104-3.333-1.018-5.73-2.75-6.34-4.611-12.752-8.537-19.247-11.785-4.148-2.09-9.306-4.582-15.483-7.46-10.686-4.613-18.751-7.992-24.195-10.135-6.492-2.727-11.316-4.533-14.451-5.418-1.419-.318-2.468-.557-3.149-.714-1.313-.259-2.699-.445-4.167-.544-1.464-.109-3.866-.161-7.217-.161-5.613.052-10.272.549-13.992 1.487-4.764 1.211-7.198 2.6-7.3 4.168v.864l-2.752 2.435c-.684.629-1.054 1.207-1.101 1.729l.627 1.487.706.396c.366.471.579.81.628 1.027l.631.786c.474.733 1.155 1.122 2.044 1.179.889.046 1.598-.264 2.121-.948-.156-.358-.233-.702-.233-1.016.099-1.524.832-2.227 2.194-2.124 1.256.057 1.832.7 1.73 1.964-.108 1.046-.736 1.645-1.88 1.803-.788.106-1.212.504-1.261 1.183-.053 1.044.261 1.881.938 2.507.42.424.811.632 1.184.632 3.613 0 6.519-1.666 8.714-5.028l9.115 3.85-3.614.865-3.139 5.348 2.515 5.021 4.792.625 3.54-4.391-.474-.792c.474 0 3.295.344 8.479 1.024 2.1.26 4.481.37 7.154.312 4.872 1.417 10.603 1.885 17.199 1.417 3.618-.262 5.558-.341 5.814-.236.948.682 1.624 1.261 2.048 1.728l7.458 8.019c1.627 1.777 3.463 2.899 5.501 3.377.682.158 2.884.361 6.603.625l10.602.554 7.468 6.595 6.129.475 2.356-2.516 5.579-.235c2.821-.104 4.342-1.307 4.557-3.618.048-1.052-.372-2.068-.987-2.631z"/><path id="path4829" style="fill-rule:evenodd;clip-rule:evenodd;fill:#ef404a" d="m247.54 438.49c-.641 0-.858-.045-1.105-.472-.653-1.115-1.32-2.55-2.14-3.835h.174c1.167 0 1.834-.476 1.834-1.699 0-.875-.275-1.507-1.572-1.507-.189 0-.399.016-.708.031-.051.394-.066.809-.066 1.124v4.485c0 .392.024.887.038 1.354.12.063.299.092.394.092h.12v.415h-2.353c.08-1.349.094-2.689.094-4.036 0-1.343-.023-2.541-.056-3.479-.049-.127-.233-.17-.371-.17h-.12v-.405c.452 0 .891.028 1.343.028.498 0 1.577-.062 2.314-.062 1.759 0 2.774.701 2.774 1.985 0 1.096-.514 1.763-1.928 2.066.658 1.038 1.497 2.464 2.131 3.371.103.099.212.285.444.285h.161v.427c-.297-.026-1.107.002-1.402.002z"/><path id="path4831" style="fill-rule:evenodd;clip-rule:evenodd;fill:#ef404a" d="m267.96 434.9c-.537 0-.753.026-1.126.026-.294 0-.794-.026-.973-.026l1.07-2.859c.372.874 1.029 2.859 1.029 2.859zm3.522 3.566v-.407h-.106c-.131 0-.285-.032-.381-.102-1.117-2.573-2.011-5.042-3.058-7.637h-1.126c-1.077 2.628-2.286 5.984-3.38 8.146h1.605v-.422h-.122c-.047 0-.153 0-.21-.018.28-.901.933-2.414.933-2.414.451-.021.75-.021 1.214-.021.438 0 .912 0 1.358.021.405.969.688 1.838 1.023 2.854h2.25z"/><path id="path4833" style="fill-rule:evenodd;clip-rule:evenodd;fill:#ef404a" d="m293.11 437.69c-.754.65-1.801.922-2.711.922-2.52 0-4.309-1.383-4.309-4.173 0-2.453 1.772-4.186 4.354-4.186 1.438 0 2.283.432 2.541.594.014.587.014.882.014 1.452h-.41v-.12c0-.155-.021-.179-.113-.407-.347-.508-.82-.932-1.766-.932-1.832 0-2.637 1.445-2.637 3.613 0 2.258 1.032 3.473 2.757 3.473 1.058 0 1.69-.5 2.289-1.179l-.009.943z"/><path id="path4835" style="fill-rule:evenodd;clip-rule:evenodd;fill:#ef404a" d="m310.78 438.47c.097-1.453.11-2.89.11-4.349 0-1.178-.014-2.26-.049-3.125-.034-.153-.227-.186-.385-.186h-.099v-.423h2.324c-.071 1.407-.088 2.546-.088 3.77 0 .66-.005 2.785.03 3.693.048.167.208.197.42.197h.078v.422c-.592.001-1.751.001-2.341.001z"/><path id="path4837" style="fill-rule:evenodd;clip-rule:evenodd;fill:#ef404a" d="m337.94 430.79h-.1c-.181 0-.299.043-.354.161-.045 1.675-.069 3.269-.069 4.957 0 .897 0 1.696.024 2.597h-1.053c-1.637-2.02-3.36-3.858-5.136-5.758-.009.412-.022.82-.022 1.219 0 1.404.035 2.545.072 3.947.057.102.174.146.347.146h.113v.415h-1.964v-.415h.118c.175 0 .285-.045.347-.146.097-2.156.127-4.19.127-6.34v-1.252h1.115c1.814 2.103 3.116 3.673 5.063 5.631.01-.273.01-.582.01-.792 0-1.511-.021-2.703-.087-4.2-.05-.113-.171-.17-.35-.17h-.12v-.405h1.919v.405z"/><path id="path4839" style="fill-rule:evenodd;clip-rule:evenodd;fill:#ef404a" d="m356.54 438.6c-2.788 0-4.405-1.643-4.405-4.044 0-2.491 1.831-4.295 4.677-4.295 1.06 0 1.975.153 2.888.712v1.391h-.415v-.124c0-.133-.016-.118-.083-.326-.625-.702-1.174-1.059-2.274-1.059-1.809 0-2.854 1.445-2.854 3.6 0 2.039.959 3.555 2.868 3.555.724 0 1.28-.312 1.424-.448.015-.36.021-.667.021-1.009 0-.329-.007-.709-.021-1.03-.062-.102-.227-.129-.36-.129h-.102v-.425h1.971c-.017.608-.04.987-.04 1.572 0 .403.023 1.021.054 1.421-.905.44-2.359.638-3.349.638z"/></g></svg>
