<svg xmlns="http://www.w3.org/2000/svg" xmlns:xlink="http://www.w3.org/1999/xlink" width="200" height="188.115" x="0" y="0" enable-background="new 0 0 200 188.115" version="1.1" viewBox="0 0 200 188.115" xml:space="preserve"><g id="Layer_3"><g><path d="M0.003,149.58v20.186c0,0-0.203,1.938,2.49,2.837c0,0,2.375,0.781,5.647,0.781h26.757l0.695-3.678H11.731 c0,0-2.809-0.086-2.809-1.506v-18.619L0.003,149.58z"/><path d="M41.568,150.663c1.905-0.994,5.853-1.104,5.853-1.104h21.065c3.231,0,5.356,0.801,5.356,0.801 c2.816,1.021,2.844,2.926,2.844,2.926v16.373c0,2.015-2.43,2.844-2.43,2.844c-2.125,0.938-6.322,0.883-6.322,0.883H48.636 c-4.611,0-6.737-0.855-6.737-0.855c-2.429-0.828-2.429-2.816-2.429-2.816v-16.564C39.47,151.685,41.568,150.663,41.568,150.663z M48.277,154.418v13.998c0,0,0.607,1.27,2.568,1.27h14.495c0,0,2.402-0.386,2.402-1.242V154.17c0,0-0.386-0.939-1.629-0.939 H50.182C50.182,153.23,48.277,153.369,48.277,154.418z"/><polygon points="81.242 149.559 80.497 153.23 94.605 153.23 94.605 173.385 103.495 173.385 103.495 153.259 117.604 153.259 116.94 149.531"/><path d="M121.496,149.531v19.905c0,0-0.082,2.044,1.85,2.872c0,0,1.905,1.104,7.014,1.104h19.381c0,0,4.252-0.055,6.102-0.718 c0,0,2.788-0.607,2.788-3.01v-20.071h-8.835v18.857c0,0-0.275,1.27-3.119,1.27h-13.39c0,0-2.899-0.139-2.899-1.408v-18.774 L121.496,149.531z"/><path d="M199.852,149.559h-29.239c0,0-3.229-0.083-5.77,0.828c0,0-2.209,0.884-2.209,2.678v7.067c0,0,0.249,1.409,1.408,2.072 c0,0,0.967,0.745,2.871,0.745h24.158v5.245c0,0-0.028,1.491-2.789,1.491h-25.538l0.662,3.699h28.079c0,0,3.728,0.056,5.853-0.801 c0,0,2.65-0.744,2.65-2.981v-7.233c0,0,0.249-1.214-1.573-2.457c0,0-0.718-0.719-3.976-0.719h-22.971v-4.721 c0,0,0.441-1.214,2.65-1.214h25.015L199.852,149.559z"/></g><g><path d="M71.049,180.805c1.456,0,1.522,0.618,1.522,0.618v2.576c0,0.786-2.225,0.669-2.225,0.669l2.242,3.43h-2.041l-2.326-3.446 h-4.483v3.446h-2.024v-7.293H71.049z M63.772,181.439v2.543h6.123c0,0,0.619-0.034,0.619-0.603v-1.589 c0,0,0.051-0.368-0.686-0.368L63.772,181.439z"/><path d="M76.398,181.439c0-0.686,1.439-0.652,1.439-0.652h8.08c1.54,0,1.506,0.686,1.506,0.686v6.643H85.45v-3.431h-7.042v3.413 h-1.991L76.398,181.439z M78.406,183.999h7.009v-2.241c0,0-0.017-0.335-0.887-0.335h-5.503c0,0-0.619-0.05-0.619,0.368V183.999z"/><path d="M91.285,181.439v6.057c0,0,0.084,0.619,1.288,0.619h9.568l0.167-0.653h-8.465c0,0-0.519,0-0.519-0.535v-5.202 c0,0,0-0.302,0.82-0.302h7.645l0.167-0.636h-9.201C92.755,180.787,91.285,180.82,91.285,181.439z"/><rect width="2.008" height="7.293" x="106.153" y="180.805"/><path d="M112.04,180.805v7.311h2.024v-6.658h6.808c0,0,0.652-0.018,0.652,0.484v6.174h2.007v-6.676c0,0,0.033-0.635-1.521-0.635 H112.04z"/><path d="M127.344,181.439v6.039c0,0,0.134,0.637,1.338,0.637h8.346c0,0,1.239-0.018,1.239-0.72v-3.396h-4.551v0.652h2.525v2.51 c0,0-0.033,0.335-0.736,0.335h-5.637c0,0-0.469,0.065-0.469-0.72v-5.002c0,0-0.033-0.335,0.804-0.335h7.744l0.202-0.652h-9.318 C128.831,180.787,127.344,180.82,127.344,181.439z"/></g></g><g id="Layer_2"><g><defs><path id="SVGID_1_" d="M63.403,26.394l14.145-16.01c0,0,8.594-9.195,21.57-9.195c0,0,13.364-0.73,23.204,9.109l46.149,52.507 c0,0,8.216,8.021,9.246,17.003c0,0,2.061,9.719-4.565,19.879c0,0-6.037,13.694-39.903,22.382c0,0-29.893,9.276-61.108,0.883 c0,0-33.279-6.479-45.058-22.675c0,0-10.896-13.842-0.736-31.218L63.403,26.394z"/></defs><clipPath id="SVGID_2_"><use overflow="visible" xlink:href="#SVGID_1_"/></clipPath><path fill="#003E21" fill-rule="evenodd" d="M63.403,26.394l14.145-16.01 c0,0,8.594-9.195,21.57-9.195c0,0,13.364-0.73,23.204,9.109l46.149,52.507c0,0,8.216,8.021,9.246,17.003 c0,0,2.061,9.719-4.565,19.879c0,0-6.037,13.694-39.903,22.382c0,0-29.893,9.276-61.108,0.883c0,0-33.279-6.479-45.058-22.675 c0,0-10.896-13.842-0.736-31.218L63.403,26.394z" clip-path="url(#SVGID_2_)" clip-rule="evenodd"/><g clip-path="url(#SVGID_2_)"><defs><path id="SVGID_3_" d="M63.403,26.394l14.145-16.01c0,0,8.594-9.195,21.57-9.195c0,0,13.364-0.73,23.204,9.109l46.149,52.507 c0,0,8.216,8.021,9.246,17.003c0,0,2.061,9.719-4.565,19.879c0,0-6.037,13.694-39.903,22.382c0,0-29.893,9.276-61.108,0.883 c0,0-33.279-6.479-45.058-22.675c0,0-10.896-13.842-0.736-31.218L63.403,26.394z"/></defs><clipPath id="SVGID_4_"><use overflow="visible" xlink:href="#SVGID_3_"/></clipPath><g clip-path="url(#SVGID_4_)"><polygon fill="#FFF" fill-rule="evenodd" points="127.74 15.033 127.74 123.493 133.184 123.493 133.184 21.382" clip-rule="evenodd"/><polygon fill="#FFF" fill-rule="evenodd" points="72.174 15.124 72.174 123.312 66.775 123.312 66.775 21.611" clip-rule="evenodd"/></g></g><polygon fill="#FFCE33" fill-rule="evenodd" points="77.441 16.772 77.441 127.248 122.353 127.665 122.353 0 77.294 0" clip-path="url(#SVGID_2_)" clip-rule="evenodd"/></g></g></svg>