<?xml version="1.0" encoding="UTF-8" standalone="no"?>
<!-- Created with Inkscape (http://www.inkscape.org/) -->

<svg
   xmlns:dc="http://purl.org/dc/elements/1.1/"
   xmlns:cc="http://creativecommons.org/ns#"
   xmlns:rdf="http://www.w3.org/1999/02/22-rdf-syntax-ns#"
   xmlns:svg="http://www.w3.org/2000/svg"
   xmlns="http://www.w3.org/2000/svg"
   version="1.1"
   width="225.7"
   height="35.38"
   id="svg2985"
   xml:space="preserve"><metadata
     id="metadata2991"><rdf:RDF><cc:Work
         rdf:about=""><dc:format>image/svg+xml</dc:format><dc:type
           rdf:resource="http://purl.org/dc/dcmitype/StillImage" /><dc:title></dc:title></cc:Work></rdf:RDF></metadata><defs
     id="defs2989"><clipPath
       id="clipPath2999"><path
         d="m -0.138,155 116.238,0 0,-78.72 -116.238,0 0,78.72 z"
         id="path3001" /></clipPath><clipPath
       id="clipPath3005"><path
         d="m -0.138,419.3 595.238,0 0,-419.564 -595.238,0 0,419.564 z"
         id="path3007" /></clipPath><clipPath
       id="clipPath3011"><path
         d="m 0.03,419.6 595.27,0 0,-419.57 -595.27,0 0,419.57 z"
         id="path3013" /></clipPath><clipPath
       id="clipPath3023"><path
         d="m 116.6,156.5 115.2,0 0,-74.72 -115.2,0 0,74.72 z"
         id="path3025" /></clipPath><clipPath
       id="clipPath3029"><path
         d="m -0.138,419.3 595.238,0 0,-419.564 -595.238,0 0,419.564 z"
         id="path3031" /></clipPath><clipPath
       id="clipPath3035"><path
         d="m 0.03,419.6 595.27,0 0,-419.57 -595.27,0 0,419.57 z"
         id="path3037" /></clipPath><clipPath
       id="clipPath3047"><path
         d="m -0.138,419.3 595.238,0 0,-419.564 -595.238,0 0,419.564 z"
         id="path3049" /></clipPath><clipPath
       id="clipPath3053"><path
         d="m 0.03,419.6 595.27,0 0,-419.57 -595.27,0 0,419.57 z"
         id="path3055" /></clipPath><clipPath
       id="clipPath3063"><path
         d="m 470.9,158 135.1,0 0,-74.72 -135.1,0 0,74.72 z"
         id="path3065" /></clipPath><clipPath
       id="clipPath3069"><path
         d="m -0.138,419.3 595.238,0 0,-419.564 -595.238,0 0,419.564 z"
         id="path3071" /></clipPath><clipPath
       id="clipPath3075"><path
         d="m 0.03,419.6 595.27,0 0,-419.57 -595.27,0 0,419.57 z"
         id="path3077" /></clipPath><clipPath
       id="clipPath3087"><path
         d="m -0.138,419.3 595.238,0 0,-419.564 -595.238,0 0,419.564 z"
         id="path3089" /></clipPath><clipPath
       id="clipPath3093"><path
         d="m 0.03,419.6 595.27,0 0,-419.57 -595.27,0 0,419.57 z"
         id="path3095" /></clipPath><clipPath
       id="clipPath3103"><path
         d="m 408.1,157.1 62.3,0 0,-75.68 -62.3,0 0,75.68 z"
         id="path3105" /></clipPath><clipPath
       id="clipPath3109"><path
         d="m -0.138,419.3 595.238,0 0,-419.564 -595.238,0 0,419.564 z"
         id="path3111" /></clipPath><clipPath
       id="clipPath3115"><path
         d="m 0.03,419.6 595.27,0 0,-419.57 -595.27,0 0,419.57 z"
         id="path3117" /></clipPath><clipPath
       id="clipPath3127"><path
         d="m 292.3,158 115.3,0 0,-74.72 -115.3,0 0,74.72 z"
         id="path3129" /></clipPath><clipPath
       id="clipPath3133"><path
         d="m -0.138,419.3 595.238,0 0,-419.564 -595.238,0 0,419.564 z"
         id="path3135" /></clipPath><clipPath
       id="clipPath3139"><path
         d="m 0.03,419.6 595.27,0 0,-419.57 -595.27,0 0,419.57 z"
         id="path3141" /></clipPath><clipPath
       id="clipPath3151"><path
         d="m -0.138,419.3 595.238,0 0,-419.564 -595.238,0 0,419.564 z"
         id="path3153" /></clipPath><clipPath
       id="clipPath3157"><path
         d="m 0.03,419.6 595.27,0 0,-419.57 -595.27,0 0,419.57 z"
         id="path3159" /></clipPath><clipPath
       id="clipPath3167"><path
         d="m 232.3,156.1 59.5,0 0,-75.68 -59.5,0 0,75.68 z"
         id="path3169" /></clipPath><clipPath
       id="clipPath3173"><path
         d="m -0.138,419.3 595.238,0 0,-419.564 -595.238,0 0,419.564 z"
         id="path3175" /></clipPath><clipPath
       id="clipPath3179"><path
         d="m 0.03,419.6 595.27,0 0,-419.57 -595.27,0 0,419.57 z"
         id="path3181" /></clipPath><clipPath
       id="clipPath3191"><path
         d="m -0.138,419.3 595.238,0 0,-419.564 -595.238,0 0,419.564 z"
         id="path3193" /></clipPath><clipPath
       id="clipPath3197"><path
         d="m 0.03,419.6 595.27,0 0,-419.57 -595.27,0 0,419.57 z"
         id="path3199" /></clipPath><clipPath
       id="clipPath3969"><path
         d="m -0.138,382.4 595.238,0 0,-232.4 -595.238,0 0,232.4 z"
         id="path3971" /></clipPath><clipPath
       id="clipPath3975"><path
         d="m -0.138,419.3 595.238,0 0,-419.564 -595.238,0 0,419.564 z"
         id="path3977" /></clipPath><clipPath
       id="clipPath3981"><path
         d="m 0.03,419.6 595.27,0 0,-419.57 -595.27,0 0,419.57 z"
         id="path3983" /></clipPath><clipPath
       id="clipPath3993"><path
         d="m -0.138,419.3 595.238,0 0,-419.564 -595.238,0 0,419.564 z"
         id="path3995" /></clipPath><clipPath
       id="clipPath3999"><path
         d="m 0.03,419.6 595.27,0 0,-419.57 -595.27,0 0,419.57 z"
         id="path4001" /></clipPath><clipPath
       id="clipPath4039"><path
         d="m 486.3,53.74 110.2,0 0,-56.004 -110.2,0 0,56.004 z"
         id="path4041" /></clipPath><clipPath
       id="clipPath4045"><path
         d="m -0.138,419.3 595.238,0 0,-419.564 -595.238,0 0,419.564 z"
         id="path4047" /></clipPath><clipPath
       id="clipPath4051"><path
         d="m 0.03,419.6 595.27,0 0,-419.57 -595.27,0 0,419.57 z"
         id="path4053" /></clipPath></defs><g
     transform="matrix(1.25,0,0,-1.25,-14.55,467)"
     id="g2993"><path
       d="m 14.04,371.2 175.76,0 0,-23.5 -175.76,0 0,23.5 z"
       id="path4005"
       style="fill:#231f20;fill-opacity:1;fill-rule:nonzero;stroke:none" /><path
       d="m 94.59,368.4 -2.9,-11.6 c 0,-0.2 -0.1,-0.8 -0.1,-1.1 0,-0.2 0,-0.5 0.1,-0.8 l -4.09,0 0,0.9 c -0.51,-0.7 -1.02,-0.9 -1.7,-0.9 l -1.53,0 c -0.68,0 -1.71,0.3 -2.13,0.6 -0.43,0.3 -0.77,1 -0.77,1.8 0,0.3 0.1,0.8 0.17,1.3 l 0.94,3.9 c 0.26,0.9 0.85,1.8 1.19,1.8 0.43,0.3 1.28,0.6 1.96,0.6 l 2.3,0 c 0.42,0 0.85,-0.2 1.11,-0.3 0.1,-0.2 0.25,-0.3 0.51,-0.7 l 0.59,2.7 c 0.1,0.4 0.17,0.6 0.17,0.9 0,0.3 -0.1,0.6 -0.17,0.9 l 4.35,0 z m -8.6,-11.5 1.1,0 c 0.34,0 0.6,0 0.77,0.1 0.17,0.2 0.25,0.4 0.34,0.8 l 0.94,3.7 c 0.1,0.3 0.1,0.5 0.1,0.7 0,0.6 -0.34,0.7 -0.85,0.7 l -1.11,0 c -0.25,0 -0.59,0 -0.76,-0.2 -0.17,-0.1 -0.34,-0.7 -0.43,-1.1 l -0.85,-3.5 c -0.17,-0.5 -0.17,-0.9 -0.1,-1.1 0.17,-0.1 0.43,-0.1 0.86,-0.1"
       id="path4007"
       style="fill:#ffffff;fill-opacity:1;fill-rule:evenodd;stroke:none" /><path
       d="m 78.15,364.3 c 0.17,0.1 0.34,0.3 0.6,0.4 0.42,0.2 0.85,0.2 1.36,0.2 l 2.64,0 -0.77,-3.3 c -0.17,0.2 -0.42,0.4 -0.68,0.4 -0.25,0 -0.68,0.1 -0.93,0.1 l -1.62,0 c -0.26,0 -0.6,0 -0.85,-0.1 -0.17,-0.1 -0.43,-0.4 -0.43,-0.6 l -1.11,-4.6 c -0.1,-0.2 -0.17,-0.6 -0.17,-1 0,-0.2 0.1,-0.5 0.17,-0.8 l -4.42,0 c 0.34,0.3 0.51,0.8 0.68,1.3 0.1,0.2 0.25,0.6 0.34,1 l 1.45,5.9 c 0,0.2 0.1,0.5 0.1,0.8 0,0.3 -0.1,0.6 -0.1,0.9 l 3.74,0 0,-0.6"
       id="path4009"
       style="fill:#ffffff;fill-opacity:1;fill-rule:evenodd;stroke:none" /><path
       d="m 63.34,364.9 6.81,0 c 0.59,0 1.45,-0.2 1.96,-0.8 0.25,-0.4 0.59,-0.9 0.59,-1.7 0,-0.6 -0.1,-1 -0.25,-1.4 l -1.02,-4.2 c 0,0 -0.18,-0.6 -0.18,-1 0,-0.2 0.1,-0.6 0.18,-0.8 l -3.92,0 0.17,0.6 c -0.43,-0.5 -0.6,-0.5 -1.19,-0.6 l -2.39,0 c -0.34,0 -1.36,0.2 -1.96,0.6 -0.42,0.2 -0.93,0.9 -0.93,1.8 0,0.3 0.1,0.6 0.17,0.9 0,0.3 0.1,0.6 0.1,0.7 0.26,0.8 0.68,1.6 0.86,1.9 0.42,0.5 1.19,0.7 2.38,0.7 l 3.4,0 c 0.43,0 0.94,0 0.94,0.6 l 0,0.3 c 0.1,0.5 -0.85,0.5 -1.02,0.5 l -3.75,0 c -0.42,0 -1.36,-0.1 -1.95,-0.4 l 1.02,2.3 z m 4.93,-5.1 -1.87,0 c -0.25,0 -0.59,0 -0.76,-0.1 -0.1,0 -0.26,-0.5 -0.26,-0.8 l -0.34,-1.4 c 0,-0.1 -0.1,-0.1 -0.1,-0.2 0,-0.3 0.17,-0.4 0.34,-0.5 0.52,0.1 1.79,-0.1 2.13,0.1 0.1,0 0.17,0.3 0.26,0.5 l 0.59,2.4"
       id="path4011"
       style="fill:#ffffff;fill-opacity:1;fill-rule:evenodd;stroke:none" /><path
       d="M 55.25,364.9 54.99,364 c 0.34,0.6 0.77,0.9 1.53,0.9 l 1.79,0 c 0.77,0 1.54,-0.2 2.05,-0.8 0.34,-0.4 0.68,-0.9 0.68,-1.7 0,-0.5 -0.17,-1.3 -0.26,-1.6 l -1.02,-4 c 0,0 -0.1,-0.6 -0.1,-1 0,-0.1 0,-0.5 0.1,-0.8 l -4.85,0 c 0.25,0.2 0.51,0.8 0.51,1 0.17,0.3 0.34,1 0.42,1.3 l 1.11,4.4 c 0,0.3 0.1,0.7 0.1,0.8 0,0.6 -0.6,0.5 -0.86,0.5 l -0.68,0 c -0.17,0 -0.59,-0.1 -0.76,-0.3 -0.1,0 -0.34,-0.5 -0.34,-0.7 l -1.37,-5.2 c 0,0 -0.1,-0.6 -0.1,-1 0,-0.2 0.1,-0.5 0.1,-0.8 l -4.51,0 c 0.43,0.6 0.77,1.5 0.94,2.3 l 1.45,5.9 c 0.1,0.2 0.1,0.5 0.1,0.8 0,0.3 0,0.6 -0.1,0.9 l 4.34,0"
       id="path4013"
       style="fill:#ffffff;fill-opacity:1;fill-rule:evenodd;stroke:none" /><path
       d="m 49.88,364.9 -2.04,-8.1 c 0,-0.3 -0.1,-0.6 -0.1,-1 0,-0.2 0,-0.5 0.1,-0.8 l -4.77,0 c 0.34,0.4 0.51,0.8 0.6,1.2 0.17,0.2 0.25,0.7 0.42,1.1 l 1.45,5.9 c 0,0.3 0.1,0.5 0.1,0.8 0,0.3 -0.1,0.6 -0.1,0.9 l 4.34,0"
       id="path4015"
       style="fill:#ffffff;fill-opacity:1;fill-rule:evenodd;stroke:none" /><path
       d="m 99.18,364.9 -2.04,-8.1 c -0.1,-0.3 -0.1,-0.6 -0.1,-1 0,-0.2 0,-0.5 0.1,-0.8 l -4.85,0 c 0.34,0.4 0.51,0.8 0.59,1.2 0.17,0.2 0.26,0.7 0.34,1.1 l 1.54,5.9 c 0,0.2 0.1,0.5 0.1,0.8 0,0.3 -0.1,0.6 -0.17,0.9 l 4.51,0"
       id="path4017"
       style="fill:#ffffff;fill-opacity:1;fill-rule:evenodd;stroke:none" /><path
       d="M 36.34,364.9 36.09,364 c 0.34,0.6 0.68,0.9 1.53,0.9 l 3.58,0 c 0.68,0 1.53,-0.2 2.04,-0.8 0.26,-0.4 0.6,-0.9 0.6,-1.7 0,-0.5 -0.1,-1.3 -0.17,-1.6 l -1.02,-4 c 0,0 -0.17,-0.6 -0.17,-1 0,-0.1 0.1,-0.5 0.17,-0.8 l -5.71,0 c 0.17,0.2 0.51,0.8 0.51,1 0.1,0.3 0.34,1 0.43,1.3 l 1.1,4.4 c 0,0.3 0.1,0.7 0.1,0.8 0,0.6 -0.6,0.5 -0.85,0.5 l -1.62,0 c -0.17,0 -0.6,-0.1 -0.77,-0.3 -0.1,0 -0.34,-0.5 -0.34,-0.7 l -1.36,-5.2 c 0,0 -0.1,-0.6 -0.1,-1 0,-0.2 0.1,-0.5 0.1,-0.8 l -5.7,0 c 0.42,0.6 0.76,1.5 1.02,2.3 l 1.36,5.7 c -0.1,0 -0.17,0 -0.26,0 l -2.47,0 c -0.17,0 -0.59,-0.1 -0.76,-0.3 -0.1,0 -0.34,-0.5 -0.34,-0.7 l -1.36,-5.2 c 0,0 -0.1,-0.6 -0.1,-1 0,-0.2 0.1,-0.5 0.1,-0.8 l -5.71,0 c 0.43,0.6 0.77,1.5 0.94,2.3 l 1.44,5.9 c 0.1,0.2 0.1,0.5 0.1,0.8 0,0.3 0,0.6 -0.1,0.9 l 5.79,0 -0.25,-0.9 c 0.34,0.6 0.77,0.9 1.53,0.9 l 6.98,0"
       id="path4019"
       style="fill:#ffffff;fill-opacity:1;fill-rule:evenodd;stroke:none" /><path
       d="m 101.4,355 2.9,12.2 14.5,0 -0.5,-2.3 -0.2,-0.6 -6.6,0 -0.6,-2.5 5.7,0 -0.6,-2.6 -5.7,0 -1,-4.2 -7.9,0"
       id="path4021"
       style="fill:#ed1c24;fill-opacity:1;fill-rule:evenodd;stroke:none" /><path
       d="m 119.2,364.3 0.7,2.9 11.1,0 -2.9,-12.2 -8,0 2.2,9.3 -3.1,0"
       id="path4023"
       style="fill:#ed1c24;fill-opacity:1;fill-rule:evenodd;stroke:none" /><path
       d="m 156.1,364.9 6.8,0 c 0.6,0 1.4,-0.2 1.9,-0.8 0.3,-0.4 0.6,-0.9 0.6,-1.7 0,-0.6 -0.1,-1 -0.2,-1.4 l -1,-4.2 c 0,0 -0.2,-0.6 -0.2,-1 0,-0.2 0.1,-0.6 0.2,-0.8 l -4,0 0.2,0.6 c -0.4,-0.5 -0.6,-0.5 -1.2,-0.6 l -2.4,0 c -0.3,0 -1.3,0.2 -1.9,0.6 -0.5,0.2 -1,0.9 -1,1.8 0,0.3 0.1,0.6 0.2,0.9 0,0.3 0.1,0.6 0.1,0.7 0.2,0.8 0.7,1.6 0.8,1.9 0.5,0.5 1.2,0.7 2.4,0.7 l 3.4,0 c 0.5,0 1,0 1,0.6 l 0,0.3 c 0.1,0.5 -0.9,0.5 -1.1,0.5 l -3.7,0 c -0.4,0 -1.4,-0.1 -2,-0.4 l 1.1,2.3 z m 4.6,-5.1 -1.6,0 c -0.2,0 -0.6,0 -0.7,-0.1 -0.1,0 -0.3,-0.5 -0.3,-0.8 l -0.3,-1.4 c 0,-0.1 -0.1,-0.1 -0.1,-0.2 0,-0.3 0.2,-0.4 0.3,-0.5 0.5,0.1 1.6,-0.1 1.9,0.1 0.2,0 0.3,0.3 0.3,0.5 l 0.5,2.4"
       id="path4025"
       style="fill:#ffffff;fill-opacity:1;fill-rule:evenodd;stroke:none" /><path
       d="m 178,364.9 -0.1,-0.9 c 0.3,0.6 0.6,0.9 1.5,0.9 l 1.8,0 c 0.7,0 1.5,-0.2 2,-0.8 0.3,-0.4 0.6,-0.9 0.6,-1.7 0,-0.5 -0.1,-1.3 -0.2,-1.6 l -1,-4 c 0,0 -0.1,-0.6 -0.1,-1 0,-0.1 0,-0.5 0.1,-0.8 l -4.8,0 c 0.1,0.2 0.5,0.8 0.5,1 0.1,0.3 0.3,1 0.4,1.3 l 1,4.4 c 0.1,0.3 0.2,0.7 0.2,0.8 0,0.6 -0.6,0.5 -0.8,0.5 l -0.7,0 c -0.2,0 -0.6,-0.1 -0.8,-0.3 -0.1,0 -0.3,-0.5 -0.3,-0.7 l -0.7,-2.6 -0.7,-2.6 c 0,0 0,-0.3 -0.1,-0.5 0,-0.1 0,-0.3 0,-0.5 0,-0.1 0,-0.3 0,-0.5 0.1,-0.2 0.1,-0.2 0.1,-0.3 l -4.5,0 c 0.2,0.2 0.3,0.7 0.5,1.1 0.2,0.3 0.3,0.8 0.4,1.2 l 1.1,4.4 c 0,0.3 0.1,0.7 0.1,0.8 0,0.6 -0.6,0.5 -0.8,0.5 l -1.1,0 c -0.1,0 -0.5,-0.1 -0.7,-0.3 -0.1,0 -0.4,-0.5 -0.4,-0.7 l -1.3,-5.2 c 0,0 -0.1,-0.6 -0.1,-1 0,-0.2 0.1,-0.5 0.1,-0.8 l -4.5,0 c 0.4,0.6 0.7,1.5 0.9,2.3 l 1.4,5.9 c 0.1,0.2 0.1,0.5 0.1,0.8 0,0.3 0,0.6 -0.1,0.9 l 4.4,0 -0.3,-0.9 c 0.4,0.6 0.8,0.9 1.6,0.9 l 5.3,0"
       id="path4027"
       style="fill:#ffffff;fill-opacity:1;fill-rule:evenodd;stroke:none" /><path
       d="m 151.8,355 -6.9,0 c -0.6,0 -1.4,0.2 -1.9,0.7 -0.3,0.5 -0.6,1.1 -0.6,1.7 0,0.7 0.1,1 0.2,1.4 l 1,4.3 c 0.5,1.1 1.2,1.8 2.2,1.8 l 5.2,0 c 0.4,0 1.4,-0.2 2,-0.6 0.4,-0.3 0.9,-0.9 0.9,-1.8 0,-0.3 0,-0.6 -0.2,-1 0,-0.1 -0.1,-0.6 -0.1,-0.6 -0.2,-0.9 -0.6,-1.7 -0.9,-1.9 -0.4,-0.4 -1.1,-0.7 -2.3,-0.7 l -3.4,0 c -0.5,0 -0.9,-0.1 -1,-0.6 l 0,-0.3 c 0,-0.5 0.9,-0.5 1,-0.5 l 3.8,0 c 0.5,0 1.3,0 1.9,0.4 l -0.9,-2.3 z m -4.4,6.5 0.2,1.1 c 0.1,0.3 0.4,0.4 0.7,0.4 l 1.4,0 c 0.4,0.1 0.4,-0.2 0.2,-0.6 l -0.1,-0.8 c 0,-0.4 -0.3,-0.6 -0.7,-0.6 l -1.1,0 c -0.5,0 -0.6,0.2 -0.6,0.5"
       id="path4029"
       style="fill:#ffffff;fill-opacity:1;fill-rule:evenodd;stroke:none" /><path
       d="m 133.9,363 1.6,0 -1.3,-5.5 c -0.4,-1.3 -0.4,-2.5 1.1,-2.5 l 5.5,0 0.4,1.9 -2.3,0 c -0.6,0 -0.8,0.4 -0.6,1 l 1.2,5.1 2.7,0 0.5,1.9 -2.7,0 0.5,2.3 -4,0 -0.5,-2.3 -1.6,0 -0.5,-1.9"
       id="path4031"
       style="fill:#ffffff;fill-opacity:1;fill-rule:evenodd;stroke:none" /><path
       d="m 20.42,350.2 0,2.3 1.79,0 0,-0.4 -1.28,0 0,-0.5 1.11,0 0,-0.5 -1.11,0 0,-0.9 -0.51,0 z m 10.99,1.1 c 0,0.3 0,0.4 0.1,0.6 0.1,0.1 0.17,0.3 0.26,0.4 0.1,0 0.17,0.1 0.34,0.1 0.17,0.1 0.34,0.1 0.51,0.1 0.42,0 0.68,-0.1 0.93,-0.3 0.26,-0.2 0.35,-0.5 0.35,-0.9 0,-0.3 -0.1,-0.7 -0.35,-0.8 -0.25,-0.3 -0.51,-0.4 -0.93,-0.4 -0.34,0 -0.68,0.1 -0.85,0.4 -0.26,0.1 -0.34,0.5 -0.34,0.8 z m 0.51,0 c 0,-0.2 0.1,-0.4 0.17,-0.6 0.17,-0.1 0.34,-0.2 0.51,-0.2 0.25,0 0.42,0.1 0.51,0.2 0.17,0.2 0.25,0.4 0.25,0.6 0,0.3 -0.1,0.5 -0.17,0.6 -0.17,0.2 -0.34,0.2 -0.59,0.2 -0.17,0 -0.34,0 -0.51,-0.2 -0.1,-0.1 -0.17,-0.3 -0.17,-0.6 z m 11.24,-1.1 0,2.3 1.1,0 c 0.26,0 0.51,-0.1 0.6,-0.1 0.17,-0.1 0.25,-0.1 0.34,-0.2 0,-0.1 0.1,-0.2 0.1,-0.4 0,-0.1 -0.1,-0.3 -0.18,-0.4 -0.1,-0.1 -0.25,-0.2 -0.51,-0.2 0.1,-0.1 0.17,-0.1 0.26,-0.2 0.1,-0.1 0.17,-0.2 0.34,-0.4 l 0.26,-0.4 -0.6,0 -0.34,0.4 c -0.17,0.3 -0.26,0.4 -0.34,0.4 0,0.1 -0.1,0.1 -0.1,0.1 -0.1,0 -0.17,0 -0.34,0 l -0.1,0 0,-0.9 -0.51,0 z m 0.51,1.3 0.42,0 c 0.26,0 0.43,0 0.43,0.1 0.1,0 0.17,0 0.17,0.1 0,0 0.1,0 0.1,0.1 0,0.1 -0.1,0.1 -0.1,0.2 -0.1,0.1 -0.17,0.1 -0.26,0.1 0,0 -0.17,0 -0.34,0 l -0.42,0 0,-0.6 z m 10.98,-1.3 0,2.3 0.77,0 0.42,-1.6 0.51,1.6 0.77,0 0,-2.3 -0.51,0 0,1.8 -0.51,-1.8 -0.51,0 -0.51,1.8 0,-1.8 -0.43,0 z m 11.84,2.3 0.51,0 0,-1.3 c 0,-0.1 0.1,-0.3 0.1,-0.4 0,-0.1 0.1,-0.2 0.17,-0.2 0.1,-0.1 0.17,-0.1 0.34,-0.1 0.1,0 0.26,0 0.34,0.1 0,0 0.1,0.1 0.1,0.2 0,0.1 0,0.3 0,0.4 l 0,1.3 0.6,0 0,-1.3 c 0,-0.2 -0.1,-0.4 -0.1,-0.5 0,-0.2 -0.1,-0.2 -0.17,-0.3 -0.1,-0.1 -0.17,-0.2 -0.26,-0.2 -0.17,-0.1 -0.34,-0.1 -0.51,-0.1 -0.25,0 -0.42,0 -0.59,0.1 -0.1,0.1 -0.26,0.1 -0.26,0.2 -0.1,0.1 -0.17,0.1 -0.17,0.2 -0.1,0.2 -0.1,0.4 -0.1,0.6 l 0,1.3 z m 11.49,-2.3 0,2.2 0.51,0 0,-1.9 1.36,0 0,-0.3 -1.87,0 z m 13.45,0 -0.59,0 -0.26,0.5 -1.02,0 -0.17,-0.5 -0.59,0 1.02,2.3 0.51,0 1.1,-2.3 z m -1.02,0.9 -0.34,0.8 -0.34,-0.8 0.68,0 z m 15.09,0.2 c 0,0.3 0.1,0.4 0.2,0.6 0,0.1 0,0.3 0.2,0.4 0.1,0 0.2,0.1 0.4,0.1 0,0.1 0.3,0.1 0.5,0.1 0.4,0 0.6,-0.1 0.9,-0.3 0.3,-0.2 0.3,-0.5 0.3,-0.9 0,-0.3 0,-0.7 -0.3,-0.8 -0.3,-0.3 -0.5,-0.4 -0.9,-0.4 -0.4,0 -0.7,0.1 -1,0.4 -0.1,0.1 -0.3,0.5 -0.3,0.8 z m 0.6,0 c 0,-0.2 0.1,-0.4 0.2,-0.6 0.1,-0.1 0.3,-0.2 0.5,-0.2 0.2,0 0.4,0.1 0.5,0.2 0.1,0.2 0.2,0.4 0.2,0.6 0,0.3 -0.1,0.5 -0.2,0.6 -0.1,0.2 -0.3,0.2 -0.5,0.2 -0.2,0 -0.4,0 -0.5,-0.2 -0.1,-0.1 -0.2,-0.3 -0.2,-0.6 z m 11.2,-1.1 0,2.3 0.5,0 1.1,-1.5 0,1.5 0.5,0 0,-2.3 -0.5,0 -1.1,1.5 0,-1.5 -0.5,0 z m 11.5,0 0,2.3 1.9,0 0,-0.4 -1.4,0 0,-0.5 1.3,0 0,-0.4 -1.3,0 0,-0.7 1.5,0 0,-0.3 -2,0 z m 18.1,0 0,1.9 -0.8,0 0,0.4 2,0 0,-0.4 -0.7,0 0,-1.9 -0.5,0 z m 10.4,0 0,2.3 2,0 0,-0.4 -1.4,0 0,-0.5 1.3,0 0,-0.4 -1.3,0 0,-0.7 1.4,0 0,-0.3 -2,0 z m 13.7,0 -0.6,0 -0.2,0.5 -1,0 -0.3,-0.5 -0.5,0 0.9,2.3 0.6,0 1.1,-2.3 z m -1,0.9 -0.3,0.8 -0.4,-0.8 0.7,0 z m 10.1,-0.9 0,2.3 0.8,0 0.5,-1.6 0.5,1.6 0.7,0 0,-2.3 -0.5,0 0,1.8 -0.5,-1.8 -0.5,0 -0.5,1.8 0,-1.8 -0.5,0"
       id="path4033"
       style="fill:#ffffff;fill-opacity:1;fill-rule:evenodd;stroke:none" /></g></svg>