<?xml version="1.0" encoding="UTF-8" standalone="no"?>
<!-- Created with Inkscape (http://www.inkscape.org/) -->

<svg
   xmlns:dc="http://purl.org/dc/elements/1.1/"
   xmlns:cc="http://creativecommons.org/ns#"
   xmlns:rdf="http://www.w3.org/1999/02/22-rdf-syntax-ns#"
   xmlns:svg="http://www.w3.org/2000/svg"
   xmlns="http://www.w3.org/2000/svg"
   xmlns:sodipodi="http://sodipodi.sourceforge.net/DTD/sodipodi-0.dtd"
   xmlns:inkscape="http://www.inkscape.org/namespaces/inkscape"
   version="1.0"
   width="722.23199"
   height="192.92401"
   viewBox="-0.68 -0.847 916.33184 1958.1788"
   id="svg2"
   xml:space="preserve"
   inkscape:version="0.92.1 r15371"
   sodipodi:docname="Sauber_F1_Team logo.svg"><metadata
   id="metadata204"><rdf:RDF><cc:Work
       rdf:about=""><dc:format>image/svg+xml</dc:format><dc:type
         rdf:resource="http://purl.org/dc/dcmitype/StillImage" /><dc:title></dc:title></cc:Work></rdf:RDF></metadata><sodipodi:namedview
   pagecolor="#ffffff"
   bordercolor="#666666"
   borderopacity="1"
   objecttolerance="10"
   gridtolerance="10"
   guidetolerance="10"
   inkscape:pageopacity="0"
   inkscape:pageshadow="2"
   inkscape:window-width="1366"
   inkscape:window-height="715"
   id="namedview202"
   showgrid="false"
   inkscape:zoom="0.84"
   inkscape:cx="244.24539"
   inkscape:cy="141.63157"
   inkscape:window-x="-8"
   inkscape:window-y="-8"
   inkscape:window-maximized="1"
   inkscape:current-layer="svg2"
   inkscape:pagecheckerboard="false"
   fit-margin-top="0"
   fit-margin-left="0"
   fit-margin-right="0"
   fit-margin-bottom="0" /><defs
   id="defs4"><radialGradient
     gradientUnits="userSpaceOnUse"
     r="326.17001"
     cy="349.5"
     cx="417.5"
     id="def1"><stop
       id="stop4715"
       stop-color="#4E4E52"
       offset="0.19" /><stop
       id="stop4717"
       stop-color="#FFFFFF"
       offset="1.00" /></radialGradient></defs><path
   inkscape:connector-curvature="0"
   style="fill:#ffffff;fill-opacity:1;stroke:none;stroke-width:2.54629517;stroke-opacity:1"
   d="M -3207.8415,978.2424 V -0.847 H 457.48584 4122.8133 v 979.0894 979.0893 H 457.48584 -3207.8415 Z"
   id="path4571" /><text
   x="-116.51536"
   y="1032.7198"
   id="text2766"
   xml:space="preserve"
   style="font-style:normal;font-variant:normal;font-weight:normal;font-stretch:normal;font-size:16px;line-height:0%;font-family:'Arial Black';-inkscape-font-specification:'Arial Black';text-align:start;writing-mode:lr-tb;text-anchor:start;fill:#000000;fill-opacity:1;stroke:none;stroke-width:1px;stroke-linecap:butt;stroke-linejoin:miter;stroke-opacity:1"><tspan
     x="-116.51536"
     y="1032.7198"
     id="tspan2768" /></text>







<path
   id="path13"
   style="fill:#d0180d;stroke-width:2.72188568"
   d="m -3043.1801,1126.9983 c 22.9999,16.0319 45.3194,33.0982 69.1359,47.9324 127.4931,82.2282 258.3342,159.3937 382.6699,246.4668 57.2685,38.6235 106.5074,91.5914 132.7736,156.1001 13.8,34.5408 22.7822,71.8578 21.6662,109.2021 -115.4624,25.8851 -237.4845,21.4484 -350.4972,-13.7728 -94.6944,-28.9064 -181.6042,-80.2684 -255.7484,-145.6208 v -400.3078 m 703.8525,-731.53398 c 25.994,5.5799 48.504,20.5774 72.2932,31.6826 90.911,48.9395 171.2883,118.3477 230.8704,202.7805 77.982,110.9713 124.7712,244.7248 126.3227,380.76458 4.0284,133.1819 -34.1869,267.0715 -106.589,378.8321 -46.2993,72.6472 -107.1607,135.6317 -176.7865,186.1771 -9.8532,7.458 -20.142,14.3987 -31.0295,20.2779 -2.7763,-42.8968 -4.8722,-86.6647 -18.6994,-127.7924 -12.2485,-43.9585 -31.0839,-86.1205 -56.4519,-124.1452 -27.2733,-42.0259 -61.8684,-78.5264 -97.1985,-113.8021 -19.7609,-18.9987 -42.5975,-34.3502 -65.4069,-49.375 -51.4437,-33.3431 -104.711,-63.8282 -158.5771,-93.0612 -106.6979,-48.4496 -213.042,-101.96188 -302.5648,-178.63738 -49.0484,-41.1277 -80.5679,-99.5121 -98.8861,-160.0741 -11.7042,-36.2555 -12.0036,-74.743 -9.4994,-112.3867 7.0497,-52.0424 31.7099,-100.9003 66.9856,-139.5511 47.143,-51.117 114.9997,-81.221 183.9995,-86.1476 33.0981,-0.1089 66.6045,-2.2864 99.2127,4.6272 78.7442,13.6638 148.2611,63.3382 193.7166,128.0375 35.6023,58.8744 49.4022,127.6836 60.8886,194.642 4.11,20.5503 3.8106,41.8354 9.0639,62.1679 25.8579,0.4083 51.7158,0.762 77.5465,-0.245 1.1976,-134.9239 -0.3538,-269.875 0.7894,-404.7716 m -703.8525,-158.4411 h 1573.25 V 1810.2733 h -1573.25 v -223.9569 c 45.7277,35.3846 94.2861,67.4212 146.7096,92.0542 184.5983,88.1348 406.432,91.5099 594.1877,10.561 199.2148,-82.6365 354.5529,-261.9815 411.1681,-469.7431 19.652,-70.0886 27.7904,-143.1167 25.5313,-215.8182 -1.9053,-122.21268 -37.426,-243.39108 -99.9477,-348.26528 -14.6437,-24.4426 -30.0224,-48.6402 -48.7489,-70.143 -61.9229,-80.1868 -140.2588,-147.7713 -229.3461,-196.0575 -178.8552,-97.9062 -399.7634,-113.2304 -591.0031,-43.3869 -75.6684,27.1373 -146.1381,67.8566 -208.5509,118.3748 v -226.8692"
   inkscape:connector-curvature="0" /><g
   id="g126"
   transform="translate(1986.2743,1949.3768)"><path
     id="path4562-2"
     d="m -3146.2312,-312.2571 100.9799,-9.6064 c 6.0771,33.1654 18.4074,57.5246 36.9908,73.0779 18.5831,15.5534 43.6524,23.3301 75.2088,23.3301 33.4258,0 58.6125,-6.919 75.5596,-20.757 16.9464,-13.8378 25.4198,-30.0201 25.4201,-48.547 -3e-4,-11.8937 -3.5649,-22.0147 -10.6937,-30.3634 -7.13,-8.3483 -19.5769,-15.6103 -37.3416,-21.7861 -12.1553,-4.1169 -39.8546,-11.4362 -83.0981,-21.9577 -55.6326,-13.4946 -94.6687,-30.0772 -117.1084,-49.7478 -31.5563,-27.6755 -47.3343,-61.4126 -47.3343,-101.2112 0,-25.6169 7.4215,-49.576 22.2646,-71.877 14.8428,-22.3004 36.2309,-39.2833 64.1643,-50.9488 27.9327,-11.6645 61.6513,-17.497 101.1551,-17.4975 64.5147,5e-4 113.0758,13.8384 145.6843,41.5137 32.6079,27.6763 49.7299,64.6155 51.3665,110.8177 l -103.7848,4.4601 c -4.4416,-25.8457 -13.9668,-44.4296 -28.5758,-55.7519 -14.6098,-11.3215 -36.5236,-16.9824 -65.7421,-16.9829 -30.154,5e-4 -53.7627,6.0617 -70.8261,18.1838 -10.9863,7.777 -16.4797,18.184 -16.4794,31.2209 -3e-4,11.8942 5.1423,22.0724 15.4275,30.535 13.0899,10.7505 44.8798,21.958 95.3697,33.6227 50.4897,11.6653 87.831,23.7306 112.0247,36.1958 24.1924,12.4659 43.1263,29.5059 56.801,51.1202 13.6736,21.6149 20.5112,48.3185 20.5115,80.1113 -3e-4,28.8196 -8.1816,55.8092 -24.5437,80.969 -16.3627,25.1598 -39.5039,43.8581 -69.4237,56.0949 -29.9202,12.2369 -67.2032,18.3552 -111.8491,18.3552 -64.9825,0 -114.888,-14.6956 -149.7165,-44.0869 -34.8288,-29.3911 -55.6325,-72.22 -62.4111,-128.4867 z"
     style="font-style:normal;font-variant:normal;font-weight:bold;font-stretch:normal;font-size:63.39319229px;line-height:100%;font-family:Arial;-inkscape-font-specification:'Arial Bold';text-align:start;writing-mode:lr-tb;text-anchor:start;opacity:1;fill:#000000;fill-opacity:1;stroke:none;stroke-width:1.02059901px;stroke-linecap:butt;stroke-linejoin:miter;stroke-opacity:1"
     inkscape:connector-curvature="0" /><path
     id="path4560-5"
     transform="matrix(10.15,0,0,10.15,-3553.18,-0.847)"
     d="m 102.43555,-51.265625 c -4.767116,4.9e-5 -8.359268,0.832473 -10.777347,2.5 -2.418098,1.667596 -4.123025,4.236746 -5.113281,7.707031 l 8.808594,1.554688 c 0.598778,-1.667517 1.382368,-2.833249 2.349609,-3.498047 0.967232,-0.664739 2.313785,-0.996064 4.041015,-0.996094 2.55626,3e-5 4.29559,0.388607 5.2168,1.166016 0.92119,0.777468 1.38083,2.079026 1.38086,3.904297 v 0.945312 c -1.75029,0.721133 -4.89287,1.498278 -9.429691,2.332031 -3.362315,0.630995 -5.935905,1.369819 -7.720703,2.214844 -1.784778,0.845064 -3.171873,2.061721 -4.162109,3.650391 -0.990286,1.588709 -1.486328,3.397682 -1.486328,5.425781 0,3.064719 1.089319,5.599883 3.265625,7.605469 2.176266,2.005566 5.15285,3.007812 8.929687,3.007812 2.141724,0 4.156469,-0.394884 6.044919,-1.183594 1.8884,-0.788709 3.66217,-1.971399 5.32032,-3.548828 0.0691,0.180276 0.18251,0.551875 0.34375,1.115235 0.36847,1.239399 0.68023,2.175675 0.93359,2.80664 h 9.60352 c -0.85212,-1.71262 -1.43328,-3.319797 -1.74415,-4.818359 -0.31091,-1.498542 -0.46683,-3.823668 -0.46679,-6.978516 l 0.10351,-11.08789 c -3e-5,-4.123803 -0.43134,-6.956345 -1.29492,-8.5 -0.86363,-1.543577 -2.35592,-2.817495 -4.47461,-3.820313 -2.11875,-1.002758 -5.34236,-1.503857 -9.67187,-1.503906 z m 5.90625,19.46875 v 1.892578 c -3e-5,2.27599 -0.12559,3.819628 -0.37891,4.630859 -0.36846,1.239419 -1.13998,2.288216 -2.31445,3.144532 -1.58904,1.126719 -3.25954,1.689473 -5.00977,1.689453 -1.566018,2e-5 -2.855848,-0.48412 -3.869139,-1.453125 -1.01333,-0.968975 -1.519561,-2.117719 -1.519531,-3.447266 -3e-5,-1.352069 0.63376,-2.466836 1.900391,-3.345703 0.829034,-0.540818 2.590673,-1.094814 5.285159,-1.658203 2.69444,-0.56334 4.66262,-1.04748 5.90625,-1.453125 z"
     style="font-style:normal;font-variant:normal;font-weight:bold;font-stretch:normal;font-size:63.39319229px;line-height:100%;font-family:Arial;-inkscape-font-specification:'Arial Bold';text-align:start;writing-mode:lr-tb;text-anchor:start;opacity:1;fill:#000000;fill-opacity:1;stroke:none;stroke-width:0.10055163px;stroke-linecap:butt;stroke-linejoin:miter;stroke-opacity:1"
     inkscape:connector-curvature="0" /><path
     id="path4556-3"
     d="m -2050.1432,-148.6037 v -54.5511 c -13.5576,19.4418 -31.381,34.7663 -53.4701,45.9739 -22.0898,11.2075 -45.4063,16.8113 -69.9496,16.8113 -25.0113,0 -47.4513,-5.3749 -67.32,-16.1252 -19.8688,-10.7501 -34.2442,-25.8459 -43.1267,-45.2877 -8.8825,-19.4415 -13.3238,-46.3169 -13.3238,-80.6259 V -512.964 h 98.5256 v 167.4273 c 0,51.2347 1.8112,82.6273 5.4345,94.1779 3.623,11.5508 10.2266,20.6997 19.8104,27.4471 9.5836,6.7475 21.7386,10.1212 36.4648,10.1211 16.8299,1e-4 31.9068,-4.5172 45.2307,-13.552 13.3234,-9.0345 22.4396,-20.2422 27.3486,-33.6227 4.9084,-13.3803 7.3629,-46.1453 7.3632,-98.295 V -512.964 h 98.5253 v 364.3603 z"
     style="font-style:normal;font-variant:normal;font-weight:bold;font-stretch:normal;font-size:63.39319229px;line-height:100%;font-family:Arial;-inkscape-font-specification:'Arial Bold';text-align:start;writing-mode:lr-tb;text-anchor:start;opacity:1;fill:#000000;fill-opacity:1;stroke:none;stroke-width:1.02059901px;stroke-linecap:butt;stroke-linejoin:miter;stroke-opacity:1"
     inkscape:connector-curvature="0" /><path
     id="path4554-7"
     transform="matrix(10.15,0,0,10.15,-3553.18,-0.847)"
     d="m 164.4082,-64.111328 v 49.554687 h 9.01563 v -5.273437 c 1.47387,2.005586 3.22948,3.521565 5.26758,4.546875 2.0381,1.02533 4.10546,1.537109 6.20117,1.537109 4.26042,0 7.88288,-1.656168 10.86523,-4.96875 2.98227,-3.312571 4.47263,-8.03269 4.47266,-14.162109 -3e-5,-5.926581 -1.46203,-10.474497 -4.38672,-13.640625 -2.92481,-3.166069 -6.62216,-4.747998 -11.08984,-4.748047 -4.09928,4.9e-5 -7.64489,1.666879 -10.63868,5.001953 v -17.847656 z m 17.75586,20.113281 c 2.372,3e-5 4.31791,0.906703 5.83789,2.720703 1.51992,1.814059 2.2793,4.771776 2.2793,8.873047 0,3.853429 -0.75331,6.675309 -2.26172,8.466797 -1.50845,1.791507 -3.33487,2.68751 -5.47656,2.6875 -2.78662,10e-6 -5.02005,-1.261265 -6.70117,-3.785156 -1.19758,-1.780217 -1.79495,-4.529821 -1.79492,-8.248047 -3e-5,-3.605508 0.77145,-6.293515 2.31445,-8.0625 1.54296,-1.768946 3.47672,-2.652314 5.80273,-2.652344 z"
     style="font-style:normal;font-variant:normal;font-weight:bold;font-stretch:normal;font-size:63.39319229px;line-height:100%;font-family:Arial;-inkscape-font-specification:'Arial Bold';text-align:start;writing-mode:lr-tb;text-anchor:start;opacity:1;fill:#000000;fill-opacity:1;stroke:none;stroke-width:0.10055163px;stroke-linecap:butt;stroke-linejoin:miter;stroke-opacity:1"
     inkscape:connector-curvature="0" /><path
     id="path4550-8"
     transform="matrix(10.15,0,0,10.15,-3553.18,-0.847)"
     d="m 221.47266,-51.265625 c -4.85925,4.9e-5 -8.87859,1.683848 -12.05664,5.052734 -3.17807,3.368946 -4.76758,8.027459 -4.76758,13.976563 0,4.980138 1.20883,9.105539 3.62695,12.373047 3.06292,4.078758 7.78489,6.117187 14.16406,6.117187 4.03015,0 7.38544,-0.906663 10.06836,-2.720703 2.68293,-1.814029 4.647,-4.457399 5.89063,-7.927734 l -9.67188,-1.587891 c -0.5297,1.802778 -1.3133,3.110624 -2.34961,3.921875 -1.03633,0.811242 -2.31406,1.216797 -3.83398,1.216797 -2.23387,0 -4.09879,-0.783462 -5.5957,-2.349609 -1.49694,-1.566148 -2.28052,-3.757392 -2.34961,-6.574219 h 24.31836 c 0.13815,-7.278641 -1.3704,-12.682305 -4.5254,-16.208984 -3.15508,-3.526631 -7.45996,-5.289014 -12.91796,-5.289063 z m 0.58593,7.267578 c 1.98053,3e-5 3.66119,0.715568 5.04297,2.146485 1.38174,1.430975 2.1086,3.520348 2.17774,6.269531 h -14.50977 c -0.023,-2.591439 0.65727,-4.642502 2.03906,-6.152344 1.38176,-1.509793 3.13128,-2.263642 5.25,-2.263672 z"
     style="font-style:normal;font-variant:normal;font-weight:bold;font-stretch:normal;font-size:63.39319229px;line-height:100%;font-family:Arial;-inkscape-font-specification:'Arial Bold';text-align:start;writing-mode:lr-tb;text-anchor:start;opacity:1;fill:#000000;fill-opacity:1;stroke:none;stroke-width:0.10055163px;stroke-linecap:butt;stroke-linejoin:miter;stroke-opacity:1"
     inkscape:connector-curvature="0" /><path
     id="path4546-9"
     d="m -989.1878,-148.6037 h -98.5253 V -512.964 h 91.5128 v 51.8065 c 23.3147,-40.0893 84.8172,-68.5456 130.2313,-46.1739 v 78.3008 c -16.5963,-10.5211 -43.0427,-5.7089 -57.3014,-5.7091 -13.7912,2e-4 -25.4789,3.717 -35.0621,11.1503 -9.5842,7.4339 -17.1224,20.8715 -22.6155,40.3129 -5.4934,19.442 -8.2398,60.155 -8.2398,122.1397 z"
     style="font-style:normal;font-variant:normal;font-weight:bold;font-stretch:normal;font-size:63.39319229px;line-height:100%;font-family:Arial;-inkscape-font-specification:'Arial Bold';text-align:start;writing-mode:lr-tb;text-anchor:start;opacity:1;fill:#000000;fill-opacity:1;stroke:none;stroke-width:1.02059901px;stroke-linecap:butt;stroke-linejoin:miter;stroke-opacity:1"
     inkscape:connector-curvature="0" /><path
     id="path4544-8"
     d="m -657.8112,-148.6037 v -502.9682 h 352.3774 v 85.086 h -248.5926 v 119.0519 h 214.582 v 85.086 h -214.582 v 213.7443 z"
     style="font-style:normal;font-variant:normal;font-weight:bold;font-stretch:normal;font-size:63.39319229px;line-height:100%;font-family:Arial;-inkscape-font-specification:'Arial Bold';text-align:start;writing-mode:lr-tb;text-anchor:start;opacity:1;fill:#000000;fill-opacity:1;stroke:none;stroke-width:1.02059901px;stroke-linecap:butt;stroke-linejoin:miter;stroke-opacity:1"
     inkscape:connector-curvature="0" /><path
     id="text2770-2"
     d="m -19.1481,-148.6037 h -98.5253 v -387.7938 l -100.2969,64.444 -38.971,-73.0977 157.8506,-108.5792 h 79.9426 z"
     style="font-style:normal;font-variant:normal;font-weight:bold;font-stretch:normal;font-size:63.39319229px;line-height:100%;font-family:Arial;-inkscape-font-specification:'Arial Bold';text-align:start;writing-mode:lr-tb;text-anchor:start;opacity:1;fill:#000000;fill-opacity:1;stroke:none;stroke-width:1.02059901px;stroke-linecap:butt;stroke-linejoin:miter;stroke-opacity:1"
     inkscape:connector-curvature="0" /><path
     id="path4540-8"
     d="m 422.20394,-134.1451 v -413.92 H 268.22238 v -84.2793 H 680.6096 v 84.2793 H 526.98229 v 413.92 z"
     style="font-style:normal;font-variant:normal;font-weight:bold;font-stretch:normal;font-size:63.39319229px;line-height:100%;font-family:Arial;-inkscape-font-specification:'Arial Bold';text-align:start;writing-mode:lr-tb;text-anchor:start;fill:#000000;fill-opacity:1;stroke:none;stroke-width:1.02059901px;stroke-linecap:butt;stroke-linejoin:miter;stroke-opacity:1"
     inkscape:connector-curvature="0" /><path
     id="path4538-9"
     transform="matrix(10.15,0,0,10.15,-3553.18,-0.847)"
     d="m 430.14648,-49.494141 c -4.90576,3e-5 -8.96338,1.668914 -12.17187,5.00586 -3.2085,3.337005 -4.8125,7.95107 -4.8125,13.84375 0,4.932936 1.22085,9.019327 3.66211,12.255859 3.09225,4.040089 7.85855,6.058594 14.29883,6.058594 4.06873,0 7.45738,-0.898475 10.16601,-2.695313 2.70859,-1.796827 4.68981,-4.412171 5.94532,-7.849609 l -9.76563,-1.574219 c -0.5348,1.785695 -1.32487,3.079266 -2.37109,3.882813 -1.04629,0.803566 -2.33663,1.207031 -3.8711,1.207031 -2.25527,0 -4.13915,-0.776825 -5.65039,-2.328125 -1.51127,-1.5513 -2.30135,-3.721591 -2.37109,-6.511719 h 24.55273 c 0.13946,-7.209635 -1.38313,-12.561446 -4.56836,-16.054687 -3.18526,-3.493202 -7.53276,-5.240205 -13.04297,-5.240235 z m 0.5918,7.199219 c 1.99946,3e-5 3.69676,0.70765 5.0918,2.125 1.39495,1.417409 2.12749,3.487814 2.19726,6.210938 h -14.64648 c -0.0233,-2.566867 0.66164,-4.598223 2.05664,-6.09375 1.39497,-1.495478 3.16177,-2.242158 5.30078,-2.242188 z"
     style="font-style:normal;font-variant:normal;font-weight:bold;font-stretch:normal;font-size:63.39319229px;line-height:100%;font-family:Arial;-inkscape-font-specification:'Arial Bold';text-align:start;writing-mode:lr-tb;text-anchor:start;fill:#000000;fill-opacity:1;stroke:none;stroke-width:0.10055163px;stroke-linecap:butt;stroke-linejoin:miter;stroke-opacity:1"
     inkscape:connector-curvature="0" /><path
     id="path4534-2"
     transform="matrix(10.15,0,0,10.15,-3553.18,-0.847)"
     d="m 468.99805,-49.494141 c -4.81274,3e-5 -8.4396,0.826802 -10.88086,2.478516 -2.44122,1.651773 -4.16042,4.195423 -5.16016,7.632813 l 8.89258,1.541015 c 0.60448,-1.651724 1.39458,-2.806351 2.37109,-3.464844 0.97647,-0.658433 2.33631,-0.988251 4.08008,-0.988281 2.58072,3e-5 4.33562,0.384258 5.26563,1.154297 0.92996,0.770099 1.39645,2.059227 1.39648,3.867187 v 0.9375 c -1.76703,0.714286 -4.94124,1.484705 -9.52148,2.310547 -3.3945,0.625015 -5.99305,1.356345 -7.79493,2.19336 -1.80186,0.837054 -3.20144,2.041618 -4.20117,3.615234 -0.99976,1.573636 -1.5,3.366133 -1.5,5.375 0,3.035665 1.09778,5.546642 3.29492,7.533203 2.19709,1.986552 5.20262,2.978516 9.01563,2.978516 2.16225,0 4.197,-0.390644 6.10352,-1.171875 1.90646,-0.781232 3.69708,-1.953152 5.37109,-3.515625 0.0697,0.178581 0.18487,0.547449 0.34765,1.105469 0.37196,1.227645 0.68562,2.154311 0.94141,2.779297 h 9.69531 c -0.86029,-1.696385 -1.44789,-3.28713 -1.76172,-4.771485 -0.31392,-1.484325 -0.47073,-3.789126 -0.4707,-6.914062 l 0.10547,-10.980469 c -6e-5,-4.0847 -0.43677,-6.89286 -1.30859,-8.421875 -0.87192,-1.528946 -2.37665,-2.789883 -4.51563,-3.783203 -2.139,-0.993251 -5.39465,-1.490205 -9.76562,-1.490235 z m 5.96484,19.285157 v 1.875 c -3e-5,2.254423 -0.12903,3.784343 -0.38477,4.58789 -0.37204,1.227655 -1.15018,2.265084 -2.33593,3.113282 -1.60424,1.116039 -3.28968,1.673847 -5.05664,1.673828 -1.58103,1.9e-5 -2.88326,-0.479641 -3.90625,-1.439454 -1.02299,-0.959783 -1.53516,-2.097106 -1.53516,-3.414062 0,-1.339232 0.6392,-2.445874 1.91797,-3.316406 0.83698,-0.535695 2.61567,-1.082586 5.33594,-1.640625 2.72021,-0.55801 4.70932,-1.03766 5.96484,-1.439453 z"
     style="font-style:normal;font-variant:normal;font-weight:bold;font-stretch:normal;font-size:63.39319229px;line-height:100%;font-family:Arial;-inkscape-font-specification:'Arial Bold';text-align:start;writing-mode:lr-tb;text-anchor:start;fill:#000000;fill-opacity:1;stroke:none;stroke-width:0.10055163px;stroke-linecap:butt;stroke-linejoin:miter;stroke-opacity:1"
     inkscape:connector-curvature="0" /><path
     id="text3545-6"
     d="m 1441.5213,-495.0507 h 91.6812 v 49.2762 c 32.8019,-38.2878 71.8575,-57.432 117.1673,-57.4323 24.0704,3e-4 44.9553,4.7581 62.6546,14.2731 17.6986,9.5157 32.2118,23.9021 43.5395,43.1592 16.5189,-19.2571 34.3357,-33.6435 53.451,-43.1592 19.1148,-9.515 39.5275,-14.2728 61.2389,-14.2731 27.6097,3e-4 50.9727,5.381 70.088,16.1422 19.1145,10.7618 33.3917,26.5642 42.8318,47.4071 6.843,15.4062 10.2647,40.3275 10.2654,74.7638 v 230.7486 h -99.4687 v -206.2803 c -3e-4,-35.7959 -3.4223,-58.9046 -10.2654,-69.3266 -9.2039,-13.5931 -23.3633,-20.3897 -42.4777,-20.39 -13.9236,3e-4 -27.0207,4.0782 -39.2918,12.234 -12.2716,8.1563 -21.1212,20.1071 -26.5485,35.8527 -5.4282,15.746 -8.1421,40.6105 -8.1416,74.5939 v 173.3163 h -99.4684 v -197.7844 c -3e-4,-35.1162 -1.7701,-57.772 -5.3098,-67.9672 -3.5401,-10.1948 -9.0267,-17.7845 -16.4601,-22.769 -7.4339,-4.984 -17.5222,-7.476 -30.2654,-7.4763 -15.3393,3e-4 -29.1444,3.9649 -41.4157,11.8942 -12.2714,7.9298 -21.062,19.3708 -26.3715,34.3233 -5.31,14.9531 -7.9646,39.7611 -7.9646,74.4241 v 175.3553 h -99.4685 z"
     style="font-style:normal;font-variant:normal;font-weight:bold;font-stretch:normal;font-size:63.39319229px;line-height:100%;font-family:Arial;-inkscape-font-specification:'Arial Bold';text-align:start;writing-mode:lr-tb;text-anchor:start;fill:#000000;fill-opacity:1;stroke:none;stroke-width:1.02059901px;stroke-linecap:butt;stroke-linejoin:miter;stroke-opacity:1"
     inkscape:connector-curvature="0" /></g></svg>