<?xml version="1.0" encoding="UTF-8" standalone="no"?>
<!-- Created with Inkscape (http://www.inkscape.org/) -->

<svg
   xmlns:dc="http://purl.org/dc/elements/1.1/"
   xmlns:cc="http://creativecommons.org/ns#"
   xmlns:rdf="http://www.w3.org/1999/02/22-rdf-syntax-ns#"
   xmlns:svg="http://www.w3.org/2000/svg"
   xmlns="http://www.w3.org/2000/svg"
   xmlns:sodipodi="http://sodipodi.sourceforge.net/DTD/sodipodi-0.dtd"
   xmlns:inkscape="http://www.inkscape.org/namespaces/inkscape"
   version="1.1"
   width="219.69322"
   height="58.710293"
   id="svg2"
   xml:space="preserve"
   inkscape:version="0.48.4 r9939"
   sodipodi:docname="Tyrrell_F1.svg"><sodipodi:namedview
     pagecolor="#ffffff"
     bordercolor="#666666"
     borderopacity="1"
     objecttolerance="10"
     gridtolerance="10"
     guidetolerance="10"
     inkscape:pageopacity="0"
     inkscape:pageshadow="2"
     inkscape:window-width="1600"
     inkscape:window-height="838"
     id="namedview3017"
     showgrid="false"
     fit-margin-top="0"
     fit-margin-left="0"
     fit-margin-right="0"
     fit-margin-bottom="0"
     inkscape:zoom="2.5608247"
     inkscape:cx="110.30185"
     inkscape:cy="29.424019"
     inkscape:window-x="-8"
     inkscape:window-y="-8"
     inkscape:window-maximized="1"
     inkscape:current-layer="svg2" /><metadata
     id="metadata8"><rdf:RDF><cc:Work
         rdf:about=""><dc:format>image/svg+xml</dc:format><dc:type
           rdf:resource="http://purl.org/dc/dcmitype/StillImage" /></cc:Work></rdf:RDF></metadata><defs
     id="defs6" /><g
     transform="matrix(1.25,0,0,-1.25,-10.948149,150.53628)"
     id="g10"><g
       transform="scale(0.1,0.1)"
       id="g12"><path
         d="m 365.48,1024.78 -82.507,0 27.41,69.33 256.695,0 -27.406,-69.33 -82.512,0 -67.945,-189.686 -91.676,0 67.941,189.686"
         inkscape:connector-curvature="0"
         id="path16"
         style="fill:#2e3192;fill-opacity:1;fill-rule:evenodd;stroke:none" /><path
         d="m 1311.3,878.938 c -6.62,-11.497 -27.78,-53.856 -108.69,-53.856 -66.46,0 -87.54,33.82 -80.64,75.195 13.05,78.153 83.07,103.763 129.66,103.763 41.54,0 88.25,-21.017 79.31,-74.536 -1.54,-9.195 -3.54,-19.047 -8.55,-29.555 l -133.64,0 c -3.02,-18.058 1.32,-33.164 23.71,-33.164 15.54,0 25.61,6.242 30.21,12.153 l 68.63,0 z m -47.19,54.835 c 0.63,1.637 1.38,3.938 1.65,5.582 2.14,12.805 -5.19,22.985 -23.25,22.985 -19.15,0 -33.55,-10.508 -41.98,-28.567 l 63.58,0"
         inkscape:connector-curvature="0"
         id="path18"
         style="fill:#2e3192;fill-opacity:1;fill-rule:evenodd;stroke:none" /><path
         d="m 1429.7,1099.85 82.51,0 -106.83,-270.498 -82.51,0 106.83,270.498"
         inkscape:connector-curvature="0"
         id="path20"
         style="fill:#2e3192;fill-opacity:1;fill-rule:evenodd;stroke:none" /><path
         d="m 1549.48,1099.85 82.5,0 -106.84,-270.498 -82.5,0 106.84,270.498"
         inkscape:connector-curvature="0"
         id="path22"
         style="fill:#2e3192;fill-opacity:1;fill-rule:evenodd;stroke:none" /><path
         d="m 1088.91,1001.54 c -20.96,12.54 -47.05,7.33 -64.73,-10.599 -7.81,-4.91 -15.13,-10.964 -21.02,-17.769 l -0.73,0 10.59,26.598 -69.36,0 -67.098,-170.418 71.52,0 28.152,71.257 c 8.106,20.305 17.231,32.7 29.066,39.789 1.22,-18.425 10.19,-35.425 25.83,-44.785 25.84,-15.465 59.72,-4.285 75.67,24.965 15.96,29.246 7.95,65.496 -17.89,80.962"
         inkscape:connector-curvature="0"
         id="path24"
         style="fill:#2e3192;fill-opacity:1;fill-rule:evenodd;stroke:none" /><path
         d="m 870.773,1001.54 c -20.953,12.54 -47.039,7.33 -64.722,-10.599 -7.809,-4.91 -15.125,-10.964 -21.024,-17.769 l -0.722,0 10.582,26.598 -69.356,0 -67.101,-170.418 71.523,0 28.145,71.257 c 8.109,20.305 17.238,32.7 29.07,39.789 1.219,-18.425 10.191,-35.425 25.832,-44.785 25.84,-15.465 59.723,-4.285 75.676,24.965 15.953,29.246 7.937,65.496 -17.903,80.962"
         inkscape:connector-curvature="0"
         id="path26"
         style="fill:#2e3192;fill-opacity:1;fill-rule:evenodd;stroke:none" /><path
         d="m 634.934,999.77 -65.09,-102.118 -0.723,0 -18.195,102.118 -72.242,0 30.043,-156.625 c -0.899,-5.383 -2.75,-8.946 -5.27,-11.473 -18.262,18.449 -45.5,24.82 -67.375,13.535 -26.762,-13.809 -35.121,-48.488 -18.68,-77.465 16.45,-28.976 51.477,-41.277 78.243,-27.469 0.71,0.368 1.261,0.903 1.949,1.301 24.883,8.184 63.988,58.731 77.515,77.27 l 134.235,180.926 -74.41,0"
         inkscape:connector-curvature="0"
         id="path28"
         style="fill:#2e3192;fill-opacity:1;fill-rule:evenodd;stroke:none" /><path
         d="m 231.008,1198.47 c -39.988,11.54 -69.344,8.23 -108.778,-31.2 -7.222,-7.23 -11.621,-15.47 -13.824,-24.1 -46.156,-75.51 -18.0193,-168.248 109.012,-154.783 -52.813,20.093 -62.719,45.923 -49.512,66.013 l -2.515,5.26 c 33.793,-8.13 71.863,6.54 91.347,37.61 22.938,36.56 29.387,85.3 -25.73,101.2"
         inkscape:connector-curvature="0"
         id="path30"
         style="fill:#ed1c24;fill-opacity:1;fill-rule:evenodd;stroke:none" /><path
         d="m 1749.52,1190.84 c 40.03,4.35 73.13,-3.54 89.44,-39.41 3.45,-7.59 4.46,-16.31 5.81,-24.36 6.12,-78.82 -65.89,-164.117 -193.11,-146.734 61.19,16.004 83.92,41.004 81.68,62.044 l -0.66,10.78 c -30.45,-11.25 -58.7,6.27 -60.43,38.73 -1.7,38.2 27.16,93.5 77.27,98.95"
         inkscape:connector-curvature="0"
         id="path32"
         style="fill:#ed1c24;fill-opacity:1;fill-rule:evenodd;stroke:none" /></g></g></svg>