<svg xmlns="http://www.w3.org/2000/svg" viewBox="0 0 500 500">
  <path d="M 214.27,358.09 L 207.3,351.46 L 203.35,347.68 L 198.06,342.67 L 191.14,336.1 L 188.4,333.5 L 185.49,330.71 L 177.93,323.54 L 173.48,319.32 L 169.25,315.34 L 166.44,312.7 L 163.55,309.91 L 160.14,306.13 L 157.62,302.49 L 156.7,300.74 L 156.01,298.81 L 155.81,293.28 L 156.97,287.92 L 158.21,282.95 L 158.6,280.18 L 158.63,276.52 L 158.55,275.56 L 158.16,272.4 L 156.55,266.34 L 155.37,263.8 L 153.64,260.91 L 151.93,258.54 L 148.3,254.36 L 145.14,251.35 L 141.06,247.84 L 139.53,246.55 L 134.29,241.91 L 128.24,236.2 L 122.01,230.05 L 119.09,227.08 L 115.39,223.15 L 113.07,220.63 L 110.2,217.47 L 105.18,211.74 L 101.65,207.49 L 98.49,203.59 L 96.17,200.6 L 93.35,196.89 L 91.05,193.83 L 86.43,187.38 L 84.33,184.36 L 81.44,180.06 L 78.82,176.13 L 76.97,173.29 L 74.1,168.94 L 73.51,168.05 L 70.69,163.46 L 68.99,159.75 L 68.44,157.55 L 68.22,155.6 L 68.47,152.78 L 68.76,151.7 L 70.35,149.08 L 73.16,147.37 L 76.55,146.63 L 80.13,146.14 L 84.33,145.67 L 85.86,145.52 L 88.83,145.15 L 91.03,144.68 L 94.63,143.37 L 96.41,142.36 L 97.5,141.57 L 99.4,139.76 L 100.93,137.59 L 101.92,135.34 L 102.57,132.97 L 102.86,129.11 L 102.47,124.17 L 102.15,121.63 L 101.77,119.23 L 101.18,115.4 L 100.71,112.51 L 99.95,107.67 L 99.5,102.97 L 99.45,100.33 L 99.67,95.96 L 100.12,92.92 L 101.06,89.26 L 102.94,84.99 L 103.55,83.92 L 109.31,77.37 L 114.23,73.37 L 118.75,69.96 L 123.15,66.9 L 127.42,64.16 L 133.9,60.55 L 138.42,58.35 L 143.93,55.9 L 146.82,54.64 L 148.08,54.1 L 153.61,51.68 L 156.53,50.39 L 163.72,47.18 L 167.33,45.5 L 170.56,43.94 L 177.51,40.11 L 181.04,37.89 L 184.84,35.72 L 187.02,35.0 L 193.12,35.15 L 196.68,36.7 L 203.13,41.37 L 207.77,43.94 L 212.57,45.55 L 218.08,46.84 L 223.02,47.8 L 228.18,48.79 L 230.88,49.4 L 235.57,50.71 L 241.6,52.89 L 244.69,54.32 L 250.67,58.1 L 251.14,58.47 L 257.68,64.9 L 260.38,68.33 L 262.92,72.09 L 266.41,78.54 L 268.9,84.64 L 270.71,90.42 L 271.67,94.15 L 273.18,101.14 L 273.77,104.16 L 274.36,107.59 L 274.88,111.45 L 275.18,115.13 L 275.08,124.49 L 274.56,131.59 L 273.89,139.02 L 273.23,143.54 L 271.35,149.94 L 269.57,154.76 L 267.2,161.58 L 265.74,166.05 L 263.56,172.63 L 261.96,177.1 L 259.93,181.92 L 257.17,187.9 L 255.51,192.12 L 254.23,196.77 L 252.92,205.78 L 252.79,208.45 L 253.11,217.67 L 253.26,219.23 L 254.0,226.34 L 255.19,233.36 L 256.62,238.99 L 257.39,241.56 L 259.22,246.63 L 261.12,251.17 L 262.92,255.05 L 265.12,259.45 L 269.99,267.75 L 274.26,273.51 L 280.02,279.96 L 283.97,283.91 L 291.66,290.93 L 296.62,295.18 L 298.01,296.32 L 302.53,299.9 L 305.54,302.17 L 309.45,304.79 L 313.57,306.92 L 317.28,307.85 L 322.91,307.78 L 327.11,307.21 L 332.06,306.55 L 334.35,306.32 L 340.68,306.1 L 345.77,306.67 L 349.3,307.9 L 351.16,308.92 L 353.87,310.77 L 356.72,313.07 L 362.74,318.28 L 365.54,320.65 L 370.4,324.66 L 372.7,326.58 L 375.02,328.54 L 377.05,330.27 L 380.14,332.91 L 383.72,335.95 L 387.53,339.23 L 391.73,343.16 L 394.94,346.55 L 398.94,351.44 L 400.87,354.13 L 403.76,358.7 L 407.71,366.09 L 410.83,373.31 L 413.27,379.93 L 413.87,381.56 L 415.5,386.23 L 418.56,395.3 L 420.31,400.73 L 422.59,407.87 L 423.95,412.07 L 425.06,415.43 L 427.21,422.18 L 429.26,429.52 L 429.88,432.61 L 431.04,438.78 L 431.53,441.6 L 431.78,444.02 L 431.63,446.64 L 431.14,448.47 L 428.84,451.19 L 426.52,452.28 L 423.72,453.19 L 420.14,454.25 L 417.25,455.04 L 415.47,455.54 L 411.74,456.53 L 407.71,457.51 L 405.61,458.01 L 402.33,458.77 L 399.51,459.47 L 393.04,461.17 L 390.44,461.84 L 383.52,463.74 L 380.58,464.46 L 376.95,464.98 L 373.37,465.0 L 370.7,464.56 L 366.87,462.97 L 364.52,461.37 L 362.0,459.14 L 359.68,456.48 L 357.31,453.16 L 355.5,450.3 L 352.1,443.73 L 349.7,438.73 L 348.56,436.36 L 346.59,432.11 L 343.87,426.65 L 341.74,423.32 L 339.44,420.13 L 337.64,418.45 L 335.59,417.46 L 335.02,417.34 L 331.46,417.76 L 328.92,419.26 L 327.86,420.23 L 326.3,422.06 L 324.03,425.59 L 322.54,428.14 L 321.09,430.28 L 318.66,432.8 L 315.18,435.28 L 314.22,435.77 L 311.99,436.78 L 309.28,437.57 L 307.18,437.85 L 298.11,436.19 L 295.39,434.98 L 292.67,433.32 L 290.4,431.57 L 289.24,430.58 L 285.7,427.3 L 281.9,423.66 L 278.69,420.52 L 274.51,416.45 L 272.51,414.5 L 268.56,410.59 L 266.09,408.17 L 264.23,406.37 L 258.97,401.23 L 254.99,397.32 L 252.62,395.0 L 247.95,390.43 L 244.98,387.49 L 242.66,385.24 L 238.73,381.39 L 235.5,378.22 L 231.54,374.52 L 226.97,370.17 L 224.55,367.87 L 221.31,364.78 L 219.66,363.2 L 216.4,360.09 Z"
        stroke="white" stroke-width="4.5"
        fill="none" stroke-linecap="round" stroke-linejoin="round"/>
</svg>