<svg xmlns="http://www.w3.org/2000/svg" viewBox="0 0 500 500"><path fill="none" stroke="#fff" stroke-linecap="round" stroke-linejoin="round" stroke-width="4.5" d="M 67.46,289.98 L 68.98,291.12 L 72.06,293.49 L 74.43,295.29 L 79.01,298.8 L 80.65,300.06 L 85.93,304.11 L 88.5,306.06 L 91.36,308.26 L 96.89,312.51 L 100.16,315.0 L 105.26,318.91 L 107.7,320.78 L 113.23,325.0 L 119.44,329.77 L 122.26,331.93 L 127.64,336.03 L 133.52,340.56 L 138.74,344.52 L 141.33,346.49 L 144.55,348.98 L 148.75,352.25 L 152.95,355.57 L 158.52,359.79 L 163.66,363.8 L 166.96,366.69 L 168.03,367.57 L 170.45,369.53 L 171.63,370.51 L 173.6,372.09 L 175.92,373.54 L 177.94,374.23 L 179.29,374.49 L 180.52,374.61 L 181.61,374.56 L 183.96,373.52 L 185.24,372.02 L 185.64,371.19 L 186.0,369.06 L 185.93,367.38 L 185.83,366.4 L 185.48,363.8 L 185.27,362.54 L 184.72,359.91 L 184.27,358.25 L 182.97,355.02 L 181.78,352.48 L 180.52,349.81 L 180.31,349.35 L 178.89,346.22 L 177.8,343.57 L 176.68,340.49 L 175.88,337.81 L 174.76,333.3 L 174.55,327.66 L 175.07,324.15 L 175.8,320.69 L 176.78,317.65 L 178.46,314.07 L 180.9,310.06 L 182.32,308.21 L 184.91,305.53 L 187.33,303.5 L 193.37,299.3 L 196.93,297.31 L 199.8,295.81 L 203.62,293.82 L 206.18,292.47 L 209.97,290.31 L 212.06,288.84 L 215.38,286.35 L 218.91,283.65 L 222.97,279.95 L 224.89,277.39 L 225.65,276.04 L 227.57,272.53 L 230.39,267.59 L 232.55,264.04 L 234.59,261.36 L 238.52,257.64 L 243.95,254.81 L 246.75,253.46 L 250.71,250.12 L 251.54,248.93 L 254.88,241.8 L 256.07,236.89 L 256.69,234.14 L 257.92,230.15 L 259.27,227.28 L 262.09,223.16 L 263.97,221.24 L 265.46,219.93 L 268.57,217.61 L 271.01,216.09 L 276.2,213.72 L 279.43,212.87 L 280.92,212.68 L 284.34,212.72 L 288.25,213.41 L 290.64,214.19 L 293.96,215.52 L 296.55,216.71 L 300.67,218.96 L 303.23,220.34 L 307.93,221.92 L 314.26,222.75 L 319.03,221.0 L 321.87,219.22 L 325.5,216.49 L 329.91,211.4 L 330.95,210.0 L 332.57,208.17 L 335.03,205.47 L 338.07,202.67 L 341.77,200.92 L 344.8,200.46 L 348.41,200.87 L 350.64,201.6 L 352.37,202.5 L 353.84,203.52 L 355.45,204.8 L 358.08,207.44 L 359.01,208.41 L 363.06,210.73 L 367.04,211.35 L 372.28,210.95 L 376.55,210.4 L 379.64,209.76 L 382.34,209.07 L 382.88,208.93 L 386.49,207.98 L 393.46,206.16 L 395.24,205.63 L 397.59,204.83 L 403.82,202.08 L 407.4,200.37 L 410.53,198.59 L 414.14,195.41 L 418.07,191.41 L 421.06,187.97 L 423.29,185.17 L 426.68,180.93 L 430.12,176.63 L 433.87,171.99 L 443.11,160.77 L 445.91,157.14 L 449.59,152.66 L 454.04,147.35 L 458.36,142.37 L 460.28,140.14 L 461.99,137.96 L 463.84,134.76 L 464.67,132.77 L 465.0,131.51 L 464.91,129.16 L 464.17,127.64 L 462.91,126.55 L 461.16,125.75 L 460.0,125.51 L 458.72,125.39 L 458.62,125.39 L 456.16,125.49 L 454.97,125.63 L 453.59,125.84 L 450.51,126.53 L 448.9,127.0 L 446.62,127.74 L 444.92,128.36 L 441.83,129.49 L 437.59,131.06 L 434.7,132.1 L 431.92,133.12 L 426.92,134.9 L 421.32,136.87 L 415.18,138.98 L 408.83,141.14 L 405.7,142.16 L 401.88,143.32 L 397.61,144.53 L 394.65,145.38 L 390.66,146.52 L 389.31,146.9 L 383.52,148.49 L 380.09,149.41 L 377.0,150.24 L 374.21,150.95 L 369.23,152.23 L 364.93,153.32 L 361.31,154.23 L 358.37,154.94 L 355.43,155.67 L 350.94,156.72 L 346.06,157.85 L 343.02,158.54 L 339.21,159.4 L 335.36,160.22 L 329.55,161.48 L 323.27,162.79 L 318.93,163.66 L 314.14,164.59 L 311.32,165.11 L 307.69,165.8 L 298.37,167.5 L 294.27,168.19 L 288.51,169.16 L 283.98,169.92 L 276.94,171.06 L 272.34,171.63 L 270.65,171.84 L 265.2,172.48 L 258.47,173.22 L 255.07,173.58 L 248.32,174.26 L 244.5,174.62 L 234.09,175.64 L 225.17,176.52 L 221.76,176.85 L 213.34,177.7 L 206.04,178.36 L 199.94,178.98 L 197.17,179.41 L 195.3,180.0 L 194.09,180.64 L 192.14,181.99 L 191.38,182.75 L 190.7,183.82 L 190.13,185.86 L 190.15,187.61 L 190.55,189.32 L 191.03,190.51 L 191.53,191.57 L 192.54,193.37 L 193.64,194.99 L 194.99,196.67 L 195.72,197.45 L 197.45,199.21 L 198.64,200.37 L 200.04,201.72 L 202.34,203.88 L 204.8,206.23 L 208.55,210.02 L 210.97,212.94 L 213.51,217.04 L 214.29,219.15 L 214.69,221.26 L 214.81,224.06 L 214.17,226.86 L 213.55,228.07 L 212.44,229.63 L 211.35,230.7 L 210.16,231.46 L 208.53,231.95 L 206.7,232.12 L 205.8,232.14 L 202.41,232.05 L 200.77,231.6 L 198.99,230.86 L 198.05,230.37 L 196.03,228.97 L 193.11,226.1 L 190.96,223.23 L 189.18,220.0 L 186.64,215.19 L 184.6,211.8 L 183.53,210.5 L 179.98,206.8 L 178.13,205.25 L 176.63,204.26 L 174.76,203.31 L 172.75,202.67 L 170.99,202.43 L 168.62,202.6 L 167.41,202.91 L 166.06,203.48 L 164.99,204.16 L 163.59,205.56 L 162.86,206.99 L 162.71,209.0 L 163.02,210.8 L 163.4,211.82 L 164.14,213.46 L 164.8,214.6 L 165.11,215.05 L 165.82,216.04 L 166.63,217.23 L 167.98,219.1 L 168.67,220.0 L 170.59,222.47 L 171.65,223.85 L 173.84,226.52 L 174.45,227.28 L 176.04,229.23 L 179.46,234.28 L 180.67,236.51 L 181.68,238.78 L 182.68,242.2 L 183.68,246.59 L 183.94,249.0 L 180.48,265.6 L 176.82,270.63 L 173.95,273.26 L 170.49,275.25 L 168.31,276.34 L 160.37,279.24 L 158.42,279.64 L 153.59,279.85 L 149.01,279.43 L 147.25,279.17 L 144.17,278.55 L 140.47,277.41 L 137.84,276.32 L 133.69,274.21 L 130.94,272.43 L 127.91,270.06 L 124.49,266.2 L 122.45,263.56 L 119.89,259.67 L 117.83,255.86 L 114.1,249.43 L 111.92,245.99 L 109.12,242.46 L 106.56,239.54 L 104.15,237.36 L 99.78,234.49 L 96.56,233.19 L 94.33,232.76 L 89.63,232.81 L 84.77,233.78 L 83.11,234.42 L 77.54,237.05 L 73.03,239.19 L 70.17,240.52 L 65.49,242.67 L 59.07,245.35 L 56.27,246.49 L 51.22,248.55 L 45.74,250.88 L 44.91,251.26 L 41.26,253.13 L 40.71,253.49 L 38.63,255.07 L 36.54,257.33 L 35.31,259.72 L 35.0,261.95 L 35.5,264.23 L 36.49,266.29 L 37.77,268.09 L 38.68,269.16 L 40.0,270.58 L 41.57,271.98 L 43.06,273.17 L 44.03,273.88 L 45.39,274.85 L 48.52,276.94 L 50.7,278.27 L 53.21,279.85 L 55.06,281.02 L 56.79,282.11 L 60.87,284.83 Z"/></svg>