<svg xmlns="http://www.w3.org/2000/svg" viewBox="0 0 500 500">
  <path d="M 111.56,288.28 L 111.82,281.75 L 112.11,275.21 L 112.25,271.58 L 112.8,258.91 L 113.16,250.38 L 113.56,241.16 L 113.74,236.22 L 114.9,208.82 L 115.12,203.81 L 115.66,191.24 L 116.03,182.42 L 116.46,172.3 L 117.01,159.63 L 117.22,153.93 L 117.51,146.96 L 117.91,137.44 L 118.24,129.86 L 118.53,123.5 L 118.97,113.34 L 119.37,102.3 L 119.55,95.95 L 119.66,90.07 L 119.73,85.64 L 119.73,74.32 L 119.66,67.38 L 119.62,60.92 L 119.62,56.56 L 119.87,49.92 L 120.31,46.0 L 121.11,42.19 L 122.05,39.79 L 123.5,37.61 L 124.59,36.49 L 125.25,36.05 L 127.24,35.15 L 129.02,35.0 L 130.51,35.25 L 132.54,36.13 L 134.76,37.69 L 136.76,39.43 L 138.46,41.14 L 139.7,42.48 L 141.15,44.11 L 144.02,47.12 L 145.83,48.65 L 147.9,50.1 L 150.22,51.37 L 157.48,53.22 L 159.88,53.22 L 165.72,52.43 L 171.79,51.01 L 175.27,50.07 L 179.59,48.72 L 183.62,47.38 L 191.21,45.42 L 196.15,44.98 L 200.32,44.95 L 206.02,45.2 L 210.78,45.6 L 216.08,46.22 L 222.46,47.2 L 231.98,49.16 L 241.78,51.12 L 249.18,52.61 L 255.61,53.91 L 259.93,54.82 L 269.84,56.82 L 277.64,58.38 L 284.43,59.76 L 292.38,61.32 L 301.02,63.06 L 306.25,64.08 L 313.26,65.46 L 319.17,66.58 L 324.47,67.56 L 361.97,74.46 L 366.48,75.3 L 372.94,76.46 L 376.42,77.15 L 379.58,77.84 L 382.78,78.78 L 388.11,81.07 L 389.67,81.98 L 392.4,83.97 L 395.08,87.17 L 396.43,91.27 L 396.53,92.03 L 396.53,95.62 L 396.32,97.62 L 394.97,102.45 L 392.18,107.64 L 389.38,110.98 L 387.2,113.12 L 386.51,113.78 L 383.72,116.14 L 380.96,118.24 L 375.84,121.8 L 373.34,123.54 L 371.05,125.14 L 367.75,127.53 L 360.56,132.98 L 354.35,138.24 L 350.03,142.49 L 346.91,145.98 L 342.63,151.35 L 338.7,156.87 L 337.29,158.97 L 334.86,162.86 L 331.66,168.19 L 328.07,173.53 L 325.67,176.36 L 323.38,178.65 L 318.16,182.6 L 315.14,184.09 L 309.48,185.69 L 304.69,186.09 L 300.26,186.13 L 293.58,185.94 L 288.61,185.98 L 284.0,186.34 L 275.43,188.3 L 270.57,190.3 L 265.08,193.35 L 257.53,199.59 L 252.34,205.87 L 247.48,213.14 L 245.81,215.79 L 241.81,222.5 L 238.15,228.75 L 234.92,233.75 L 232.08,237.64 L 229.69,240.65 L 226.06,244.79 L 223.7,246.75 L 221.92,247.69 L 218.87,248.67 L 216.87,248.89 L 215.1,248.64 L 213.5,247.91 L 209.94,243.12 L 209.36,241.81 L 208.67,239.96 L 207.98,237.35 L 207.62,234.81 L 207.54,233.21 L 207.51,232.19 L 207.58,229.65 L 207.94,225.44 L 208.38,222.28 L 209.32,216.73 L 210.67,210.23 L 211.1,208.2 L 212.92,199.81 L 214.48,192.48 L 215.57,187.8 L 217.13,181.3 L 219.23,171.79 L 219.85,168.96 L 221.05,162.78 L 222.57,154.04 L 223.44,148.05 L 223.92,144.02 L 224.39,137.44 L 223.95,127.72 L 220.32,115.48 L 218.25,111.34 L 217.64,110.33 L 215.1,106.73 L 212.74,104.08 L 208.27,100.38 L 206.27,99.25 L 204.2,98.42 L 200.43,97.91 L 198.18,98.53 L 195.82,100.42 L 194.98,101.61 L 193.97,103.57 L 193.02,106.37 L 192.62,107.89 L 192.12,110.22 L 191.68,112.8 L 191.5,114.1 L 191.1,116.86 L 190.63,120.85 L 190.26,124.12 L 189.83,128.62 L 189.54,131.67 L 189.03,137.95 L 188.59,144.74 L 188.27,149.79 L 187.91,155.92 L 187.69,159.55 L 187.36,165.14 L 186.96,172.84 L 186.56,180.32 L 186.2,188.49 L 186.09,190.56 L 185.58,201.19 L 185.25,208.23 L 184.89,215.42 L 184.38,227.26 L 184.2,231.29 L 183.98,236.48 L 183.55,246.39 L 183.15,254.66 L 182.82,261.45 L 182.46,268.68 L 182.02,277.17 L 181.73,283.27 L 181.3,291.91 L 181.01,298.08 L 180.68,303.71 L 180.32,310.53 L 179.66,322.99 L 179.48,328.29 L 179.77,337.69 L 180.14,340.63 L 181.88,347.96 L 182.93,350.65 L 185.87,355.08 L 187.87,356.82 L 192.08,359.29 L 196.76,361.1 L 200.57,362.01 L 202.9,362.3 L 207.76,362.19 L 210.67,361.72 L 215.42,360.45 L 218.0,359.47 L 221.96,357.58 L 225.11,355.66 L 228.85,352.93 L 231.54,350.54 L 235.5,346.36 L 240.51,339.32 L 242.1,336.49 L 245.01,330.46 L 247.04,325.53 L 249.87,318.16 L 252.01,313.08 L 254.81,307.74 L 257.24,303.82 L 261.2,298.45 L 264.58,294.56 L 267.3,291.98 L 286.76,281.6 L 296.09,279.6 L 300.88,279.35 L 305.71,279.64 L 312.6,280.95 L 319.32,283.34 L 327.34,287.12 L 335.36,291.15 L 338.85,292.82 L 347.67,297.03 L 351.16,298.92 L 354.57,301.02 L 360.41,305.81 L 363.83,310.46 L 365.35,314.31 L 366.0,317.1 L 366.4,321.03 L 366.15,325.05 L 365.89,326.47 L 365.06,329.16 L 362.45,333.99 L 360.41,336.56 L 354.9,341.72 L 352.17,343.71 L 349.81,345.28 L 344.66,348.22 L 337.91,351.81 L 333.84,353.95 L 329.23,356.35 L 325.27,358.42 L 318.3,362.01 L 312.86,364.91 L 304.62,369.31 L 300.19,371.7 L 291.58,376.39 L 285.81,379.54 L 280.66,382.41 L 276.88,384.48 L 269.22,388.77 L 264.87,391.16 L 259.49,394.17 L 255.06,396.64 L 253.58,397.48 L 246.61,401.36 L 242.58,403.58 L 234.99,407.82 L 228.85,411.24 L 223.59,414.18 L 215.35,418.79 L 209.61,421.95 L 204.42,424.85 L 200.25,427.17 L 193.42,431.02 L 181.92,437.52 L 178.25,439.62 L 169.83,444.45 L 152.47,454.33 L 145.1,458.47 L 142.27,459.99 L 134.79,463.37 L 129.93,464.6 L 126.74,465.0 L 122.89,465.0 L 117.48,463.22 L 116.03,462.17 L 112.21,458.14 L 110.65,455.96 L 108.77,452.88 L 106.73,448.56 L 105.79,445.76 L 104.16,438.79 L 103.68,434.25 L 103.47,428.26 L 103.5,424.52 L 103.72,420.71 L 104.48,412.72 L 105.46,403.03 L 106.04,397.3 L 106.41,393.41 L 107.28,383.5 L 107.68,377.95 L 108.19,368.11 L 108.62,357.55 L 108.91,350.58 L 109.42,338.78 L 109.86,328.25 L 110.22,319.83 L 110.33,317.0 L 110.87,304.25 L 111.09,298.84 L 111.34,292.96 Z"
        stroke="white" stroke-width="4.5"
        fill="none" stroke-linecap="round" stroke-linejoin="round"/>
</svg>