<svg xmlns="http://www.w3.org/2000/svg" viewBox="0 0 500 500">
  <path d="M 410.69,184.25 L 413.57,183.06 L 421.86,179.6 L 427.28,177.31 L 430.91,175.79 L 431.61,175.5 L 435.97,173.68 L 439.95,172.06 L 443.83,170.37 L 447.06,168.93 L 448.79,168.2 L 454.64,166.05 L 457.66,164.93 L 459.6,163.99 L 460.33,163.57 L 462.1,162.22 L 463.12,161.12 L 463.81,160.18 L 464.5,158.76 L 464.71,158.11 L 465.0,156.18 L 464.92,154.74 L 464.67,153.53 L 464.04,151.53 L 462.85,148.76 L 461.73,146.32 L 460.06,142.48 L 459.39,140.86 L 457.96,137.42 L 456.41,133.86 L 455.27,131.31 L 453.31,127.04 L 451.89,123.83 L 450.66,121.04 L 449.52,118.48 L 448.37,115.85 L 447.16,113.14 L 445.85,110.2 L 444.95,108.14 L 443.53,104.93 L 442.64,102.97 L 441.16,99.64 L 440.53,98.39 L 439.37,96.72 L 438.53,96.03 L 436.84,95.49 L 435.11,95.57 L 434.01,95.8 L 431.34,96.61 L 429.8,97.18 L 428.13,97.82 L 426.03,98.66 L 423.51,99.66 L 421.53,100.39 L 419.82,101.01 L 415.92,102.43 L 412.42,103.72 L 407.98,105.39 L 406.04,106.12 L 403.02,107.24 L 399.94,108.39 L 396.48,109.68 L 395.66,109.97 L 391.56,111.54 L 387.89,112.91 L 382.74,114.85 L 380.1,115.83 L 377.43,116.83 L 371.43,119.18 L 367.18,120.94 L 365.34,121.71 L 361.05,123.58 L 357.94,124.94 L 352.59,127.25 L 347.44,129.46 L 343.23,131.29 L 339.98,132.69 L 334.08,135.23 L 329.77,137.09 L 325.1,139.09 L 318.1,142.15 L 311.7,144.99 L 308.66,146.34 L 303.2,148.78 L 299.44,150.45 L 297.05,151.51 L 291.59,153.93 L 285.21,156.78 L 283.08,157.72 L 279.04,159.53 L 275.96,160.97 L 274.77,161.57 L 273.29,162.51 L 271.83,163.89 L 271.31,164.68 L 270.96,165.89 L 270.93,166.49 L 271.35,168.47 L 271.79,169.62 L 272.64,171.41 L 273.25,172.56 L 274.02,174.08 L 274.66,175.41 L 275.92,178.6 L 276.48,180.29 L 276.96,181.87 L 277.83,184.54 L 279.35,188.5 L 280.44,190.94 L 281.48,193.17 L 283.06,196.57 L 284.29,199.27 L 284.88,200.71 L 285.69,203.0 L 286.09,204.42 L 286.34,206.32 L 286.23,207.61 L 285.77,208.9 L 285.19,209.76 L 284.19,210.65 L 283.48,211.15 L 282.9,211.49 L 280.85,212.47 L 279.1,213.2 L 277.42,213.82 L 276.23,214.26 L 274.52,214.86 L 271.14,216.22 L 267.89,217.66 L 264.83,219.01 L 262.89,219.82 L 259.74,221.14 L 256.97,222.34 L 252.76,224.45 L 250.86,225.51 L 248.03,227.18 L 245.63,228.64 L 241.63,231.06 L 239.15,232.47 L 236.46,233.93 L 233.59,235.52 L 232.21,236.35 L 229.69,238.16 L 228.67,239.08 L 227.15,240.91 L 226.15,243.06 L 226.0,245.25 L 226.19,246.14 L 227.19,248.46 L 227.79,249.67 L 228.34,250.83 L 228.71,252.04 L 228.84,252.94 L 228.5,254.5 L 227.61,255.79 L 226.77,256.59 L 225.9,257.27 L 224.86,258.0 L 223.44,258.9 L 221.6,260.02 L 220.69,260.59 L 218.75,261.88 L 217.23,262.98 L 215.81,264.09 L 213.69,265.8 L 210.52,268.28 L 207.1,270.86 L 203.89,273.28 L 202.85,274.05 L 199.24,276.8 L 197.28,278.3 L 195.05,279.99 L 193.26,281.36 L 188.86,284.7 L 186.2,286.74 L 182.9,289.24 L 178.32,292.68 L 174.46,295.62 L 172.03,297.58 L 170.4,298.89 L 169.02,299.98 L 168.17,300.6 L 166.52,301.62 L 165.79,301.98 L 164.56,302.37 L 163.25,302.33 L 162.11,301.71 L 161.65,301.27 L 161.19,300.68 L 160.17,298.83 L 159.81,298.0 L 158.83,295.29 L 157.85,292.24 L 157.27,290.24 L 156.69,288.28 L 156.21,286.57 L 155.06,282.74 L 154.02,279.36 L 153.06,276.24 L 151.77,271.92 L 151.02,269.34 L 150.54,267.78 L 149.81,265.4 L 148.27,262.94 L 146.7,262.21 L 143.41,260.88 L 140.51,260.05 L 138.81,259.77 L 136.28,259.54 L 135.24,259.46 L 132.85,259.23 L 130.8,258.77 L 129.72,258.38 L 128.2,257.5 L 126.97,256.15 L 126.8,255.86 L 126.2,253.29 L 126.16,251.38 L 125.99,249.73 L 125.18,248.25 L 122.95,247.25 L 120.86,247.1 L 117.94,247.27 L 116.86,247.39 L 114.07,247.9 L 112.11,248.4 L 111.03,248.73 L 108.05,249.85 L 105.5,250.98 L 102.4,252.42 L 101.96,252.61 L 98.88,253.92 L 96.56,254.88 L 94.67,255.67 L 90.62,257.57 L 89.91,257.94 L 87.27,259.32 L 83.56,261.23 L 79.45,263.25 L 73.64,266.17 L 69.41,268.53 L 66.74,270.07 L 65.68,270.69 L 61.36,273.24 L 56.36,275.99 L 53.82,277.36 L 50.13,280.07 L 48.17,282.51 L 46.86,284.87 L 44.61,290.56 L 42.27,298.27 L 41.79,299.89 L 40.59,303.79 L 38.9,308.98 L 37.15,314.58 L 35.44,322.55 L 35.0,328.46 L 35.0,330.94 L 35.13,333.78 L 35.54,340.16 L 35.94,345.49 L 36.27,349.37 L 36.54,352.85 L 36.56,357.16 L 36.29,360.77 L 36.13,362.37 L 36.0,363.89 L 35.88,365.43 L 35.77,368.85 L 35.92,370.35 L 36.33,371.65 L 37.42,372.94 L 38.23,373.44 L 39.02,373.83 L 41.69,375.13 L 42.82,375.71 L 45.27,377.0 L 47.05,377.92 L 50.26,379.56 L 52.42,380.67 L 55.76,382.29 L 58.49,383.65 L 62.2,385.55 L 65.34,387.25 L 70.49,390.24 L 74.12,392.38 L 75.37,393.09 L 77.66,394.32 L 80.54,395.8 L 86.71,399.13 L 89.69,400.88 L 91.58,401.93 L 94.6,403.32 L 96.48,403.97 L 97.81,404.3 L 99.52,404.51 L 101.4,404.34 L 102.71,403.89 L 102.84,403.82 L 104.38,402.68 L 106.0,400.63 L 106.67,399.55 L 107.98,397.07 L 109.0,395.01 L 110.63,391.78 L 111.69,389.63 L 113.34,386.25 L 115.21,382.36 L 117.44,377.98 L 120.61,372.67 L 121.95,370.67 L 124.91,366.62 L 127.74,363.39 L 130.47,360.7 L 132.24,359.08 L 133.85,357.68 L 137.1,354.87 L 140.6,351.81 L 143.39,349.22 L 145.37,347.16 L 150.27,341.95 L 154.37,338.22 L 156.65,335.88 L 158.33,333.55 L 160.19,329.94 L 161.44,326.76 L 162.44,323.48 L 163.21,320.5 L 163.94,317.15 L 165.67,309.85 L 167.13,306.14 L 170.23,301.73 L 173.07,299.06 L 176.13,296.66 L 181.49,292.85 L 182.32,292.22 L 188.18,287.74 L 191.53,285.16 L 195.47,282.14 L 197.74,280.43 L 200.58,278.24 L 206.58,273.67 L 207.73,272.82 L 211.18,270.19 L 215.19,267.09 L 220.98,262.78 L 223.42,261.23 L 226.31,259.63 L 231.96,256.98 L 234.67,255.88 L 237.76,254.67 L 242.17,252.92 L 246.61,251.15 L 250.34,249.62 L 254.1,248.1 L 258.53,246.31 L 261.93,244.91 L 266.41,243.06 L 271.31,241.04 L 274.73,239.6 L 280.21,237.33 L 283.29,236.06 L 287.06,234.47 L 290.5,233.02 L 293.23,231.85 L 296.67,230.41 L 302.53,227.93 L 307.72,225.74 L 312.24,223.82 L 316.07,222.2 L 318.89,221.01 L 321.7,219.82 L 326.29,217.88 L 328.77,216.84 L 331.93,215.49 L 335.83,213.82 L 344.86,210.05 L 347.0,209.19 L 353.15,206.82 L 359.34,204.53 L 362.61,203.32 L 368.78,201.0 L 371.68,199.9 L 374.95,198.69 L 379.3,197.07 L 383.68,195.44 L 384.76,195.02 L 389.1,193.33 L 391.98,192.15 L 397.91,189.6 L 401.87,187.92 L 406.36,186.04 Z"
        stroke="white" stroke-width="4.5"
        fill="none" stroke-linecap="round" stroke-linejoin="round"/>
</svg>