<svg xmlns="http://www.w3.org/2000/svg" viewBox="0 0 500 500">
  <path d="M 371.35,199.45 L 365.49,208.72 L 362.41,213.55 L 354.54,225.94 L 352.65,228.94 L 347.45,237.11 L 344.49,241.78 L 340.29,248.39 L 335.73,255.55 L 331.87,261.63 L 329.05,266.05 L 322.71,276.03 L 316.14,286.31 L 312.13,292.35 L 306.08,301.48 L 300.55,309.79 L 297.62,314.21 L 292.02,322.56 L 287.94,328.64 L 280.85,339.22 L 275.95,346.49 L 271.46,353.21 L 270.31,354.87 L 264.08,364.19 L 258.22,373.13 L 252.1,383.19 L 250.91,385.26 L 247.01,391.98 L 243.04,399.03 L 238.48,407.27 L 235.21,413.13 L 230.87,420.7 L 226.83,427.12 L 222.26,433.46 L 216.07,440.44 L 211.65,444.07 L 208.61,445.93 L 206.01,447.04 L 202.3,447.86 L 197.03,447.6 L 193.43,446.6 L 190.13,445.22 L 183.71,442.26 L 177.18,439.88 L 171.28,439.51 L 167.54,440.21 L 162.53,442.07 L 156.89,445.15 L 151.95,448.45 L 148.54,450.9 L 138.93,457.25 L 134.85,459.55 L 126.35,463.11 L 115.4,465.0 L 108.17,464.59 L 99.0,462.33 L 95.63,460.96 L 87.54,456.06 L 83.98,452.87 L 82.72,451.49 L 77.63,444.18 L 73.89,435.13 L 72.81,430.9 L 71.62,419.36 L 72.1,408.75 L 73.14,400.96 L 74.59,393.61 L 76.3,387.01 L 77.67,382.67 L 80.23,376.32 L 86.35,365.67 L 92.4,356.92 L 95.89,352.09 L 99.45,347.01 L 101.9,342.89 L 105.13,337.36 L 109.47,330.13 L 113.44,323.86 L 119.75,314.58 L 125.65,306.38 L 128.32,303.19 L 129.8,301.59 L 134.77,297.44 L 139.93,294.8 L 145.72,293.62 L 149.32,293.76 L 151.92,294.28 L 156.0,295.77 L 160.63,298.7 L 164.9,303.3 L 168.8,309.64 L 170.8,315.14 L 171.65,319.11 L 172.06,324.97 L 171.77,329.27 L 170.28,335.99 L 168.2,341.33 L 163.94,348.68 L 158.04,357.06 L 154.18,362.33 L 151.62,365.86 L 146.54,372.76 L 141.56,379.62 L 138.63,383.7 L 135.74,387.86 L 131.95,393.98 L 129.43,399.25 L 128.32,402.41 L 127.65,405.37 L 127.5,408.34 L 127.83,410.94 L 128.39,412.76 L 129.76,415.28 L 131.62,417.32 L 133.4,418.55 L 137.78,420.1 L 142.42,420.25 L 145.27,419.84 L 151.43,417.84 L 152.88,417.17 L 158.67,414.24 L 161.56,412.65 L 167.57,409.38 L 170.32,407.93 L 173.73,406.23 L 179.71,403.44 L 186.09,400.77 L 193.99,397.4 L 200.52,394.06 L 204.42,391.72 L 213.1,385.3 L 219.22,379.51 L 223.12,375.06 L 225.83,371.65 L 229.54,366.56 L 234.03,360.07 L 236.36,356.69 L 241.15,349.31 L 243.12,344.78 L 244.12,338.55 L 243.71,330.57 L 242.08,325.93 L 240.19,323.19 L 233.14,317.33 L 228.79,314.13 L 226.12,311.8 L 223.45,309.01 L 219.26,302.93 L 217.63,299.78 L 213.62,290.94 L 210.8,284.93 L 209.13,281.45 L 207.01,276.99 L 204.6,271.91 L 201.71,265.86 L 198.56,259.26 L 195.07,251.73 L 193.62,247.94 L 192.1,242.52 L 191.32,231.69 L 192.92,221.37 L 194.7,215.7 L 198.07,208.65 L 202.12,203.19 L 206.42,199.59 L 211.65,196.74 L 215.88,194.96 L 224.27,191.65 L 229.39,189.39 L 236.03,186.31 L 242.78,183.12 L 246.98,181.15 L 257.62,176.11 L 266.79,171.77 L 270.61,169.95 L 277.18,166.76 L 281.41,164.64 L 289.91,160.19 L 295.66,157.11 L 302.89,153.25 L 308.46,150.25 L 314.65,146.98 L 322.56,142.75 L 331.94,137.78 L 344.11,131.95 L 350.79,129.17 L 356.73,126.8 L 360.59,125.2 L 365.67,122.86 L 370.87,119.45 L 371.35,119.04 L 374.02,115.85 L 375.76,110.4 L 375.76,108.24 L 375.39,105.87 L 373.98,101.97 L 373.02,100.23 L 370.72,97.08 L 360.66,90.8 L 358.7,90.36 L 355.1,89.8 L 352.39,89.65 L 348.53,89.8 L 345.19,90.25 L 341.85,91.03 L 336.03,93.14 L 333.13,94.59 L 328.2,97.63 L 324.86,99.97 L 320.0,103.35 L 316.84,105.2 L 311.65,107.54 L 307.49,108.8 L 304.45,109.36 L 300.63,109.65 L 296.84,109.43 L 292.24,108.21 L 289.87,106.94 L 286.12,103.38 L 283.93,99.6 L 283.26,97.71 L 282.45,92.73 L 282.52,89.36 L 283.52,84.5 L 284.41,81.94 L 285.04,80.53 L 286.68,77.48 L 288.5,74.78 L 291.39,71.29 L 294.51,68.28 L 299.52,64.09 L 304.38,60.34 L 308.42,57.15 L 309.72,56.04 L 314.51,51.96 L 318.4,48.62 L 321.67,45.91 L 326.68,42.05 L 329.09,40.42 L 332.91,38.19 L 342.93,35.04 L 351.76,35.0 L 358.59,36.3 L 363.67,38.04 L 375.36,43.83 L 380.07,46.65 L 387.97,51.73 L 391.72,54.15 L 396.02,56.89 L 399.85,59.34 L 405.15,62.75 L 413.46,68.88 L 421.81,77.56 L 425.19,83.31 L 427.64,90.92 L 428.34,95.52 L 428.38,102.27 L 427.08,109.32 L 425.04,114.96 L 421.48,121.86 L 418.51,126.8 L 413.35,134.74 L 410.53,139.08 L 405.11,147.35 L 401.59,152.77 L 398.69,157.22 L 391.72,167.94 L 388.27,173.21 L 383.85,179.97 L 381.74,183.27 L 379.1,187.42 L 371.72,198.93 Z"
        stroke="white" stroke-width="4.5"
        fill="none" stroke-linecap="round" stroke-linejoin="round"/>
</svg>