<svg xmlns="http://www.w3.org/2000/svg" viewBox="0 0 500 500">
  <path d="M 214.12,407.3 L 207.59,401.95 L 199.64,395.42 L 195.18,391.75 L 190.64,388.03 L 182.44,381.29 L 176.48,376.37 L 172.77,373.33 L 168.56,369.87 L 158.24,361.38 L 153.86,357.81 L 142.01,348.04 L 137.69,344.5 L 129.41,337.94 L 117.14,328.3 L 112.22,324.41 L 106.26,319.78 L 101.3,315.92 L 97.34,312.85 L 92.34,309.0 L 86.52,304.43 L 79.6,298.87 L 77.89,297.47 L 73.04,293.26 L 69.36,289.84 L 66.04,286.23 L 64.19,283.88 L 62.37,280.92 L 61.37,278.74 L 60.44,275.49 L 60.3,273.82 L 60.37,271.96 L 60.98,269.68 L 62.97,266.86 L 65.22,265.22 L 66.51,264.58 L 68.97,263.79 L 72.5,263.26 L 76.43,263.11 L 80.74,263.29 L 83.42,263.58 L 91.16,264.75 L 95.37,265.65 L 98.23,266.32 L 105.4,268.39 L 109.4,269.79 L 113.04,271.21 L 119.96,274.42 L 125.67,277.56 L 133.73,282.92 L 138.51,286.45 L 142.12,289.27 L 147.68,293.87 L 155.68,300.72 L 164.2,308.18 L 167.95,311.46 L 172.95,315.85 L 179.8,321.63 L 185.61,326.13 L 191.11,329.8 L 193.85,331.34 L 198.85,333.41 L 201.38,334.08 L 204.17,334.41 L 208.73,333.98 L 211.45,333.05 L 215.12,330.66 L 217.12,328.41 L 218.97,325.2 L 219.62,323.52 L 220.4,319.53 L 220.19,314.35 L 220.08,313.78 L 219.08,309.78 L 218.12,307.18 L 215.73,302.08 L 213.98,298.94 L 211.3,294.37 L 209.34,290.98 L 207.2,286.63 L 205.49,282.31 L 204.02,276.99 L 203.2,272.14 L 203.03,267.15 L 203.88,259.76 L 205.06,255.69 L 206.52,252.12 L 209.23,246.88 L 213.55,239.06 L 218.3,231.28 L 222.22,224.65 L 224.18,220.97 L 227.82,214.34 L 231.0,208.56 L 234.35,202.42 L 237.49,196.71 L 238.81,194.32 L 242.24,188.07 L 245.41,182.26 L 247.56,178.4 L 251.87,170.63 L 264.01,151.18 L 269.54,143.65 L 273.03,139.23 L 276.6,134.3 L 280.99,126.59 L 282.1,123.85 L 283.67,118.07 L 284.2,113.07 L 283.99,107.79 L 282.56,100.87 L 280.81,95.48 L 278.46,89.27 L 275.35,81.21 L 274.17,77.82 L 272.32,71.89 L 270.29,61.23 L 270.61,53.48 L 271.28,50.52 L 273.07,46.06 L 278.03,39.78 L 279.31,38.75 L 283.67,36.43 L 287.23,35.43 L 290.62,35.0 L 293.69,35.0 L 296.8,35.39 L 300.69,36.39 L 306.89,38.96 L 313.32,42.78 L 315.64,44.49 L 321.77,49.63 L 324.02,51.66 L 328.09,55.73 L 332.8,60.69 L 337.51,65.86 L 343.25,72.25 L 347.21,76.6 L 354.39,84.6 L 356.38,86.95 L 359.31,90.66 L 361.88,95.16 L 362.95,98.83 L 363.09,102.15 L 362.42,105.11 L 361.06,108.11 L 359.95,110.22 L 358.35,113.75 L 357.74,116.5 L 357.53,119.17 L 357.6,122.56 L 357.81,125.45 L 358.45,128.7 L 359.45,132.55 L 360.49,135.91 L 361.63,139.73 L 362.88,144.08 L 363.45,146.36 L 364.23,149.47 L 365.63,155.1 L 367.09,159.85 L 368.98,163.85 L 372.08,168.34 L 374.15,170.55 L 377.87,173.44 L 380.43,174.69 L 384.18,175.87 L 385.25,176.09 L 393.46,176.87 L 398.03,177.26 L 402.99,178.05 L 407.12,179.33 L 410.19,181.01 L 413.08,183.15 L 415.83,185.76 L 417.54,187.86 L 418.29,188.93 L 420.36,193.07 L 421.22,196.0 L 421.83,201.21 L 421.68,204.81 L 421.25,208.48 L 420.01,214.12 L 419.08,217.58 L 414.15,238.53 L 413.87,244.92 L 414.08,249.7 L 414.94,257.19 L 415.97,261.51 L 419.15,270.32 L 419.79,271.61 L 422.97,276.78 L 427.28,282.52 L 431.6,288.38 L 436.85,297.83 L 439.52,307.54 L 439.7,315.14 L 439.2,318.99 L 437.13,325.34 L 433.53,331.73 L 430.78,335.23 L 425.68,340.72 L 421.83,344.65 L 415.79,350.71 L 411.48,355.14 L 408.59,358.06 L 400.17,366.73 L 397.2,369.8 L 390.5,376.76 L 386.0,381.47 L 382.22,385.43 L 376.97,391.07 L 373.23,395.14 L 369.19,399.63 L 364.52,405.02 L 361.59,408.48 L 359.31,411.3 L 356.67,414.3 L 353.96,416.97 L 351.78,418.79 L 347.04,421.61 L 344.86,422.25 L 341.15,422.43 L 339.22,422.04 L 337.15,421.22 L 334.44,419.58 L 333.08,418.51 L 329.55,415.08 L 327.34,412.58 L 325.27,410.12 L 322.63,406.87 L 320.24,403.88 L 316.21,399.06 L 313.39,395.81 L 309.36,391.25 L 306.18,387.82 L 301.72,383.18 L 295.73,377.76 L 289.87,374.23 L 285.34,372.87 L 282.13,372.62 L 277.1,373.48 L 275.24,374.23 L 271.57,376.97 L 270.53,378.22 L 269.57,379.76 L 268.47,382.61 L 268.0,385.82 L 268.29,388.89 L 269.0,391.35 L 270.04,393.57 L 271.75,396.13 L 272.25,396.78 L 275.85,400.49 L 279.49,403.52 L 283.31,406.34 L 286.52,408.66 L 290.16,411.26 L 294.3,414.22 L 299.51,418.15 L 302.47,420.58 L 306.0,423.75 L 309.43,427.61 L 312.39,432.39 L 313.96,436.63 L 314.74,441.99 L 314.53,446.09 L 313.96,449.01 L 313.1,451.73 L 312.14,453.69 L 307.82,459.11 L 294.08,464.86 L 290.8,465.0 L 289.3,464.86 L 282.45,463.36 L 277.78,461.15 L 273.6,458.47 L 270.89,456.44 L 266.54,452.87 L 261.51,448.55 L 259.47,446.73 L 254.62,442.34 L 251.8,439.77 L 247.88,436.17 L 242.38,431.14 L 238.64,427.82 L 235.17,424.79 L 231.11,421.25 L 224.01,415.37 Z"
        stroke="white" stroke-width="4.5"
        fill="none" stroke-linecap="round" stroke-linejoin="round"/>
</svg>