<svg xmlns="http://www.w3.org/2000/svg" viewBox="0 0 500 500">
  <path d="M 136.18,339.38 L 137.87,345.99 L 140.56,356.36 L 142.91,365.21 L 146.47,378.51 L 148.45,385.95 L 151.47,397.07 L 155.02,410.08 L 157.09,417.48 L 158.78,423.43 L 160.43,428.8 L 162.71,435.83 L 164.19,439.96 L 167.83,448.39 L 169.77,452.02 L 171.96,455.5 L 173.86,457.98 L 177.25,461.32 L 180.14,463.26 L 182.21,464.17 L 187.5,465.0 L 190.06,464.71 L 194.07,463.18 L 197.75,460.74 L 201.47,457.64 L 202.5,456.69 L 206.8,452.93 L 210.27,450.29 L 217.0,446.98 L 222.58,446.65 L 223.33,446.78 L 228.53,448.35 L 231.84,449.75 L 238.82,452.69 L 243.24,454.38 L 252.0,456.94 L 257.71,457.89 L 264.61,458.18 L 266.67,458.1 L 276.84,456.82 L 285.64,454.05 L 290.19,451.98 L 299.9,446.03 L 306.96,439.92 L 312.54,433.72 L 316.76,427.85 L 319.28,423.68 L 322.83,416.53 L 324.65,411.86 L 327.42,403.26 L 330.64,390.83 L 333.16,380.7 L 335.31,372.36 L 338.2,360.58 L 341.05,348.6 L 343.16,339.79 L 345.43,330.29 L 347.67,321.36 L 350.1,311.61 L 352.25,303.26 L 356.22,287.77 L 358.41,279.26 L 359.9,273.51 L 362.33,264.17 L 364.24,256.98 L 366.43,248.68 L 368.53,240.66 L 370.6,233.02 L 371.34,230.08 L 373.12,223.51 L 374.9,216.94 L 377.09,208.88 L 379.57,200.12 L 381.26,194.13 L 383.78,184.55 L 384.61,180.54 L 385.19,174.88 L 385.19,170.0 L 384.03,162.56 L 383.33,160.25 L 380.06,154.17 L 378.04,151.9 L 376.26,150.37 L 372.29,147.69 L 368.7,145.87 L 365.19,144.55 L 359.65,143.06 L 355.23,142.11 L 351.59,141.45 L 346.84,140.83 L 341.43,140.62 L 334.03,140.62 L 326.67,141.24 L 316.05,143.64 L 311.88,145.29 L 306.8,147.85 L 301.43,151.28 L 297.67,154.09 L 289.19,161.57 L 282.54,169.3 L 277.87,175.87 L 274.69,180.45 L 271.1,185.54 L 267.42,190.74 L 263.74,195.91 L 259.69,201.65 L 254.11,209.55 L 250.81,214.34 L 243.53,225.17 L 238.0,233.39 L 233.9,239.42 L 230.56,244.38 L 223.45,254.92 L 218.49,262.07 L 212.46,269.21 L 206.1,274.67 L 197.38,279.17 L 190.1,281.03 L 183.99,281.78 L 180.81,281.82 L 172.38,280.74 L 165.35,278.1 L 159.4,274.67 L 156.92,272.77 L 151.63,267.44 L 148.08,262.69 L 144.65,256.53 L 142.75,251.94 L 142.0,249.83 L 139.69,241.07 L 137.83,230.91 L 137.21,225.91 L 136.96,222.64 L 136.92,216.69 L 137.17,214.13 L 137.54,211.69 L 137.87,210.0 L 139.57,204.67 L 141.26,201.57 L 143.2,199.46 L 145.39,198.18 L 147.42,197.6 L 149.94,197.44 L 152.62,197.81 L 156.38,199.09 L 158.08,199.92 L 161.1,201.45 L 163.41,202.69 L 167.83,204.96 L 171.43,206.36 L 174.77,207.31 L 177.54,207.69 L 180.56,207.73 L 182.91,207.4 L 186.26,206.16 L 188.37,204.83 L 190.02,203.43 L 191.3,201.98 L 192.58,199.96 L 194.19,194.42 L 194.19,190.08 L 193.95,188.39 L 193.12,185.21 L 191.47,181.12 L 190.1,178.55 L 188.66,176.24 L 184.98,171.24 L 182.38,168.31 L 179.9,165.66 L 172.71,158.02 L 168.86,153.43 L 162.87,145.21 L 158.78,138.22 L 155.72,131.53 L 153.99,126.65 L 153.08,123.26 L 152.75,121.49 L 152.42,113.72 L 152.83,110.62 L 153.7,107.64 L 155.56,104.59 L 158.49,102.4 L 160.35,101.9 L 162.71,101.82 L 163.74,101.94 L 166.47,102.73 L 169.24,104.05 L 172.38,106.16 L 175.27,108.68 L 178.7,112.27 L 181.51,115.66 L 182.75,117.27 L 185.72,121.32 L 189.98,126.61 L 195.02,132.19 L 200.06,136.4 L 204.11,138.64 L 210.1,140.74 L 213.08,141.4 L 217.62,142.11 L 221.76,142.48 L 228.57,142.36 L 238.62,140.25 L 249.77,135.04 L 257.5,129.01 L 262.62,123.31 L 267.13,116.9 L 269.98,112.27 L 273.99,105.54 L 277.75,99.13 L 281.47,92.85 L 284.65,87.44 L 288.45,80.7 L 290.27,77.4 L 292.91,72.07 L 294.52,67.73 L 295.14,64.38 L 295.19,59.55 L 294.28,56.2 L 292.38,52.48 L 290.39,49.92 L 289.03,48.72 L 285.68,46.24 L 280.6,43.51 L 275.89,41.53 L 273.74,40.7 L 269.94,39.38 L 265.19,37.89 L 261.88,36.98 L 257.54,36.07 L 251.14,35.25 L 242.42,35.0 L 233.86,35.5 L 228.7,36.2 L 217.58,38.35 L 211.14,40.0 L 203.57,42.31 L 200.31,43.47 L 188.95,48.22 L 183.62,50.91 L 173.74,56.78 L 167.79,61.12 L 163.0,65.08 L 157.17,70.79 L 154.15,74.09 L 149.81,79.42 L 143.74,88.51 L 138.86,97.64 L 135.14,106.03 L 132.75,112.19 L 130.85,117.77 L 129.28,122.89 L 127.5,129.34 L 126.22,134.59 L 122.87,149.96 L 120.02,162.89 L 117.91,174.71 L 117.09,180.33 L 116.38,185.99 L 115.76,192.44 L 115.31,198.51 L 114.98,204.26 L 114.81,223.97 L 115.39,235.54 L 116.63,248.18 L 118.08,258.51 L 119.94,269.63 L 121.05,275.54 L 122.54,282.93 L 125.52,296.32 L 129.36,312.36 L 133.78,329.83 Z"
        stroke="white" stroke-width="4.5"
        fill="none" stroke-linecap="round" stroke-linejoin="round"/>
</svg>