<svg xmlns="http://www.w3.org/2000/svg" viewBox="0 0 500 500"><path fill="none" stroke="#fff" stroke-linecap="round" stroke-linejoin="round" stroke-width="4.5" d="M 274.56,372.0 L 273.01,367.79 L 271.34,363.29 L 270.86,361.96 L 269.78,359.01 L 268.49,355.52 L 267.41,352.54 L 266.31,349.55 L 264.31,344.08 L 263.1,340.79 L 262.49,339.14 L 259.0,327.64 L 257.85,323.39 L 257.15,320.84 L 255.77,315.79 L 254.86,312.48 L 254.04,309.66 L 253.39,307.58 L 252.74,305.98 L 252.51,305.43 L 251.27,303.38 L 250.64,302.7 L 249.5,301.94 L 248.62,301.64 L 246.91,301.69 L 244.89,302.09 L 243.75,302.19 L 243.28,302.17 L 241.63,301.59 L 241.08,301.07 L 240.53,300.18 L 240.28,299.44 L 240.19,299.05 L 240.13,298.35 L 240.16,296.89 L 240.28,295.35 L 240.39,294.38 L 240.6,293.02 L 240.94,291.14 L 241.32,289.3 L 241.63,287.89 L 242.09,285.81 L 242.37,284.37 L 242.63,282.74 L 242.85,280.84 L 242.99,278.51 L 242.98,276.47 L 242.71,273.37 L 242.57,271.99 L 242.15,268.56 L 241.85,266.27 L 241.38,262.66 L 241.16,260.94 L 240.58,256.5 L 240.31,254.48 L 239.95,251.74 L 239.39,247.32 L 238.69,241.65 L 238.5,239.59 L 238.4,238.31 L 238.25,236.13 L 237.93,234.45 L 232.23,230.19 L 230.93,229.56 L 228.62,227.93 L 228.12,227.46 L 226.65,225.66 L 225.03,222.93 L 223.83,219.71 L 223.64,218.94 L 223.2,216.21 L 223.09,213.78 L 223.15,211.95 L 223.48,209.5 L 223.77,208.3 L 225.41,204.32 L 226.88,201.81 L 227.76,200.04 L 228.66,197.11 L 228.92,193.5 L 228.59,190.09 L 228.28,188.5 L 227.4,185.13 L 226.4,181.84 L 225.07,179.3 L 223.94,178.02 L 221.2,176.53 L 218.77,174.76 L 217.62,173.07 L 216.57,169.62 L 216.21,165.62 L 216.18,163.02 L 216.21,161.14 L 216.51,157.41 L 216.92,155.17 L 217.9,152.27 L 219.46,149.7 L 221.21,147.87 L 222.56,146.82 L 224.39,145.67 L 227.81,143.79 L 230.08,142.24 L 232.2,139.55 L 233.34,136.63 L 233.78,134.61 L 234.55,130.16 L 235.22,127.1 L 236.04,123.98 L 236.82,121.32 L 237.02,120.65 L 238.15,116.79 L 238.94,113.28 L 239.52,109.17 L 239.89,105.99 L 240.44,100.54 L 240.69,97.28 L 240.97,91.95 L 241.0,88.79 L 240.93,84.93 L 240.86,83.11 L 240.66,77.64 L 240.52,74.77 L 240.3,70.31 L 240.27,69.78 L 240.08,65.81 L 239.89,62.1 L 239.7,58.63 L 239.53,56.0 L 238.81,50.26 L 238.09,46.22 L 237.31,42.96 L 236.13,40.06 L 235.14,38.53 L 232.98,36.46 L 230.43,35.25 L 229.16,35.0 L 227.79,35.02 L 227.09,35.16 L 224.56,36.36 L 223.36,37.4 L 221.88,39.28 L 220.88,41.43 L 220.41,43.01 L 220.0,45.55 L 219.88,47.47 L 219.97,50.77 L 220.16,52.66 L 220.4,54.17 L 221.1,57.02 L 221.96,59.29 L 223.47,62.03 L 225.91,65.89 L 228.11,69.99 L 229.16,72.74 L 229.66,74.49 L 230.33,77.92 L 230.46,78.87 L 230.77,81.95 L 230.93,84.57 L 230.97,87.23 L 230.9,89.16 L 230.72,91.34 L 230.19,94.72 L 229.14,98.82 L 228.33,101.2 L 226.52,105.4 L 225.66,107.26 L 223.78,111.46 L 222.57,114.78 L 221.65,118.37 L 221.1,121.38 L 220.71,123.91 L 220.51,125.02 L 219.63,127.6 L 218.58,129.27 L 217.4,130.38 L 216.09,131.15 L 215.62,131.33 L 212.06,131.93 L 209.57,132.92 L 207.81,134.72 L 207.12,135.72 L 206.28,137.3 L 205.24,140.61 L 204.94,142.23 L 204.61,144.94 L 204.47,147.05 L 204.4,150.3 L 204.43,154.06 L 204.47,155.41 L 204.74,159.26 L 205.3,163.16 L 205.82,165.69 L 206.1,166.85 L 206.76,169.15 L 208.75,174.63 L 209.82,177.14 L 210.41,178.51 L 212.36,183.13 L 215.6,193.32 L 216.04,195.34 L 216.45,197.63 L 216.95,201.75 L 217.14,204.36 L 217.23,206.45 L 217.39,211.21 L 217.73,216.01 L 217.87,217.34 L 218.25,220.02 L 218.91,223.77 L 219.41,225.9 L 220.16,228.53 L 220.96,230.86 L 222.36,234.16 L 224.0,237.38 L 225.55,240.03 L 227.17,242.68 L 228.15,244.37 L 229.83,247.62 L 230.76,249.67 L 231.77,252.32 L 232.32,253.93 L 233.78,259.45 L 234.49,263.12 L 234.83,265.37 L 235.24,268.79 L 235.64,274.39 L 235.58,280.89 L 235.13,286.56 L 234.45,291.61 L 233.86,295.4 L 233.7,296.62 L 233.53,298.74 L 233.69,301.54 L 234.2,303.05 L 235.83,305.32 L 237.02,306.37 L 238.76,307.77 L 241.49,309.94 L 243.98,312.5 L 245.24,314.71 L 245.86,316.45 L 246.27,318.06 L 246.8,322.32 L 247.01,326.67 L 246.87,329.77 L 246.69,331.34 L 246.21,334.02 L 244.78,338.42 L 243.81,340.58 L 241.47,345.27 L 239.31,349.55 L 237.67,352.84 L 236.82,354.61 L 235.47,357.57 L 234.53,359.89 L 233.78,362.02 L 233.17,363.96 L 232.26,367.71 L 231.65,371.57 L 231.44,373.65 L 231.32,378.41 L 231.55,383.01 L 231.87,385.69 L 232.43,389.16 L 232.92,391.56 L 233.4,393.71 L 234.38,397.72 L 235.38,401.75 L 236.43,405.79 L 237.16,408.49 L 237.87,410.92 L 239.36,415.46 L 240.39,418.09 L 241.33,420.15 L 242.37,422.18 L 244.84,426.37 L 247.15,429.64 L 250.78,434.1 L 253.73,437.25 L 255.39,438.86 L 258.54,441.79 L 260.44,443.56 L 262.4,445.43 L 264.53,447.37 L 266.94,449.44 L 269.18,451.24 L 272.82,454.01 L 276.0,456.38 L 277.71,457.65 L 280.5,459.73 L 282.1,460.94 L 283.3,461.83 L 285.92,463.79 L 286.75,464.31 L 288.54,464.92 L 289.56,465.0 L 290.65,464.87 L 291.28,464.7 L 292.34,464.25 L 293.39,463.51 L 294.07,462.82 L 294.81,461.72 L 295.09,461.13 L 295.43,460.02 L 295.59,459.0 L 295.6,458.03 L 295.51,456.87 L 295.24,455.39 L 295.04,454.36 L 294.76,453.15 L 294.23,450.74 L 293.93,449.39 L 293.16,445.85 L 292.78,444.0 L 292.45,442.23 L 292.14,440.58 L 291.66,438.33 L 291.04,435.44 L 290.46,432.86 L 290.06,431.04 L 289.6,428.97 L 289.41,428.14 L 288.8,425.38 L 287.67,420.38 L 287.06,417.72 L 286.59,415.7 L 285.73,411.79 L 285.14,408.99 L 284.74,407.16 L 283.65,402.11 L 283.08,399.66 L 282.32,396.47 L 281.8,394.49 L 280.45,389.79 L 279.37,386.3 L 278.41,383.32 L 277.58,380.8 L 276.91,378.76 L 275.53,374.78 Z"/></svg>