<svg xmlns="http://www.w3.org/2000/svg" viewBox="0 0 500 500"><path fill="none" stroke="#fff" stroke-linecap="round" stroke-linejoin="round" stroke-width="4.5" d="M 166.08,358.37 L 163.27,353.3 L 160.48,348.23 L 158.81,345.24 L 155.24,338.77 L 152.13,333.11 L 148.24,326.11 L 146.3,322.59 L 142.14,315.03 L 137.69,307.01 L 135.52,303.08 L 135.02,302.17 L 128.46,290.45 L 126.38,286.82 L 122.66,280.25 L 120.99,277.29 L 118.14,272.28 L 112.96,263.17 L 109.82,257.66 L 107.74,254.0 L 104.9,248.96 L 100.01,240.37 L 95.46,232.35 L 91.54,225.43 L 89.63,222.24 L 85.27,214.94 L 84.18,213.09 L 81.49,208.52 L 77.15,200.96 L 74.54,195.81 L 72.4,191.29 L 70.73,187.6 L 67.98,179.43 L 67.45,175.88 L 67.39,173.68 L 74.45,159.91 L 78.67,157.48 L 80.9,156.72 L 84.71,156.1 L 88.37,156.25 L 91.63,156.92 L 95.46,158.39 L 98.51,159.97 L 101.21,161.58 L 104.52,163.72 L 107.18,165.54 L 109.62,167.18 L 116.21,171.55 L 120.14,174.09 L 123.8,176.47 L 126.49,178.23 L 132.68,182.09 L 136.37,184.06 L 142.4,185.87 L 145.98,185.9 L 149.79,185.08 L 154.54,182.68 L 158.2,179.37 L 160.16,176.56 L 161.71,173.07 L 162.45,169.85 L 162.71,167.09 L 162.74,161.41 L 162.65,157.8 L 162.42,149.69 L 162.21,141.95 L 162.07,134.8 L 162.1,132.75 L 162.21,129.5 L 163.03,123.87 L 164.5,119.07 L 166.23,115.2 L 167.9,112.21 L 170.62,108.28 L 176.75,100.72 L 180.64,96.3 L 185.21,91.35 L 188.23,88.01 L 190.66,85.31 L 193.74,81.94 L 197.73,77.52 L 198.37,76.84 L 202.71,72.04 L 208.33,65.8 L 211.82,61.96 L 216.27,57.06 L 221.05,51.76 L 225.53,46.87 L 230.28,41.74 L 235.61,37.23 L 239.3,35.67 L 243.38,35.0 L 246.01,35.03 L 252.17,36.2 L 259.9,40.33 L 262.57,42.44 L 267.96,47.39 L 272.5,52.2 L 274.85,55.28 L 276.2,57.56 L 278.51,63.98 L 279.1,68.55 L 278.8,73.06 L 277.31,77.43 L 273.21,82.59 L 269.46,86.16 L 264.89,90.53 L 262.83,92.49 L 260.46,94.78 L 258.09,97.09 L 252.64,102.48 L 250.18,105.12 L 247.57,108.05 L 242.97,113.21 L 238.22,118.92 L 236.29,121.67 L 234.29,125.07 L 232.59,129.35 L 232.33,131.67 L 232.48,133.13 L 232.92,134.65 L 234.09,136.5 L 235.0,137.32 L 237.28,138.55 L 239.51,139.2 L 241.03,139.28 L 243.23,139.17 L 246.66,138.49 L 249.3,137.67 L 251.7,136.76 L 255.3,135.39 L 257.09,134.68 L 261.93,132.78 L 265.38,131.43 L 268.08,130.35 L 270.8,129.18 L 274.23,127.68 L 278.13,125.95 L 281.41,124.4 L 285.1,122.67 L 291.64,119.59 L 295.42,117.89 L 300.02,115.9 L 302.8,114.67 L 306.41,113.12 L 311.74,110.89 L 326.74,107.29 L 329.7,107.7 L 334.68,109.54 L 337.99,111.77 L 339.52,113.18 L 341.19,115.08 L 343.62,119.18 L 344.47,121.64 L 344.88,123.75 L 344.91,128.24 L 343.47,133.1 L 339.72,138.7 L 336.64,141.45 L 331.34,146.43 L 329.11,148.84 L 326.59,151.91 L 322.87,157.07 L 321.2,159.68 L 318.86,163.72 L 315.93,169.35 L 314.14,173.39 L 312.53,177.61 L 310.83,183.18 L 310.39,184.79 L 308.13,192.09 L 306.49,195.46 L 304.65,198.27 L 302.6,200.67 L 296.24,205.07 L 290.52,207.09 L 283.17,209.05 L 275.55,210.6 L 272.09,211.19 L 264.53,212.54 L 260.05,213.45 L 255.27,214.71 L 251.79,216.58 L 249.62,218.57 L 247.19,222.21 L 246.37,224.2 L 245.66,226.69 L 245.34,229.27 L 245.63,232.26 L 246.54,235.04 L 248.74,238.65 L 250.59,240.96 L 253.43,244.21 L 254.28,245.12 L 257.0,247.85 L 258.97,249.6 L 264.8,254.03 L 272.24,258.83 L 278.69,262.29 L 284.14,264.72 L 286.22,265.54 L 292.25,267.65 L 295.45,268.62 L 299.99,269.73 L 303.77,270.5 L 308.72,271.23 L 313.32,271.58 L 319.36,271.76 L 324.75,271.7 L 328.82,271.55 L 338.64,270.73 L 343.91,270.12 L 351.3,269.27 L 355.95,268.74 L 360.14,268.24 L 367.15,267.39 L 370.78,266.95 L 378.11,265.87 L 387.6,264.58 L 392.79,264.52 L 398.41,265.22 L 403.36,266.72 L 406.82,268.33 L 413.85,273.34 L 417.22,276.74 L 420.48,280.9 L 426.19,290.39 L 428.8,295.52 L 432.11,302.93 L 432.61,323.27 L 430.85,327.22 L 428.53,331.41 L 425.55,336.22 L 422.64,340.5 L 417.78,347.41 L 412.62,354.83 L 409.69,358.69 L 408.46,359.95 L 401.87,364.06 L 393.55,365.49 L 389.18,365.14 L 383.15,364.26 L 379.1,363.5 L 374.18,362.39 L 368.38,361.04 L 363.9,359.98 L 358.44,358.69 L 353.9,357.7 L 343.3,355.53 L 339.11,354.71 L 334.97,353.95 L 326.48,352.6 L 320.5,352.07 L 315.34,352.63 L 309.66,354.94 L 305.12,358.31 L 300.4,364.09 L 297.26,369.21 L 291.84,379.94 L 289.35,385.36 L 286.3,392.04 L 283.11,399.01 L 279.65,406.48 L 278.83,408.13 L 275.99,413.96 L 272.42,421.02 L 270.69,424.36 L 268.11,429.4 L 266.15,433.18 L 261.02,442.85 L 258.29,447.83 L 256.27,451.4 L 254.13,454.8 L 251.23,458.64 L 247.1,462.22 L 245.08,463.36 L 242.09,464.41 L 239.86,464.85 L 236.7,465.0 L 231.33,464.15 L 225.97,461.6 L 223.01,459.23 L 219.56,455.21 L 217.83,452.63 L 216.42,450.26 L 214.22,446.22 L 211.79,441.53 L 211.29,440.53 L 207.92,434.23 L 204.17,427.35 L 199.07,418.12 L 195.85,412.29 L 192.1,405.58 L 191.48,404.43 L 188.94,399.86 L 187.03,396.41 L 184.66,392.13 L 181.61,386.65 L 178.36,380.67 L 175.72,375.86 L 172.35,369.71 L 171.68,368.48 L 167.22,360.45 Z"/></svg>