<svg xmlns="http://www.w3.org/2000/svg" viewBox="0 0 500 500"><path fill="none" stroke="#fff" stroke-linecap="round" stroke-linejoin="round" stroke-width="4.5" d="M 460.61,245.98 L 459.41,238.72 L 458.79,234.63 L 457.68,227.58 L 456.64,220.47 L 456.07,216.65 L 454.96,208.91 L 454.16,203.02 L 453.38,197.08 L 452.42,189.61 L 451.68,183.58 L 450.93,177.72 L 450.45,173.66 L 449.82,168.07 L 449.26,162.96 L 448.69,157.83 L 448.18,153.76 L 446.78,144.95 L 445.31,139.27 L 444.63,137.72 L 444.24,136.88 L 442.06,133.66 L 440.23,131.98 L 435.84,129.95 L 433.9,129.48 L 431.15,128.94 L 425.66,127.59 L 422.49,126.1 L 421.09,125.14 L 416.9,121.74 L 415.11,120.18 L 411.77,117.56 L 411.44,117.32 L 408.78,116.03 L 406.66,115.67 L 405.16,115.76 L 403.73,116.09 L 402.47,116.63 L 400.8,117.82 L 399.91,118.78 L 398.56,120.87 L 397.87,122.37 L 397.28,123.98 L 396.35,127.83 L 396.11,129.27 L 395.72,132.34 L 395.57,134.91 L 395.69,139.33 L 396.02,142.62 L 396.5,145.52 L 397.13,148.27 L 398.14,151.7 L 399.04,154.33 L 400.26,157.59 L 401.46,160.6 L 402.86,164.01 L 405.67,170.61 L 407.31,174.58 L 409.55,180.17 L 411.77,186.32 L 413.38,191.52 L 414.57,196.12 L 415.62,201.23 L 416.25,206.58 L 416.46,211.9 L 416.22,216.74 L 415.08,221.64 L 412.9,225.52 L 410.06,228.15 L 405.67,230.36 L 401.31,231.64 L 398.74,232.18 L 393.63,232.87 L 390.53,233.08 L 386.73,233.23 L 384.82,233.2 L 380.67,233.05 L 370.78,232.18 L 366.69,231.79 L 364.3,231.58 L 361.07,231.28 L 352.02,230.54 L 349.03,230.27 L 342.52,229.73 L 338.96,229.46 L 334.48,229.16 L 325.34,228.45 L 314.08,227.55 L 305.06,226.8 L 296.36,226.09 L 294.42,225.91 L 288.57,225.25 L 283.16,224.5 L 278.29,223.58 L 273.96,222.5 L 264.04,218.92 L 258.54,216.26 L 251.4,212.25 L 249.64,211.21 L 245.25,208.58 L 241.28,206.19 L 234.67,202.16 L 229.36,198.9 L 225.8,196.72 L 221.86,194.21 L 216.6,190.78 L 212.63,188.21 L 208.27,185.31 L 204.92,183.07 L 199.13,179.12 L 195.0,176.88 L 191.81,175.57 L 186.19,173.99 L 184.1,173.72 L 180.72,173.99 L 178.15,174.88 L 176.18,176.08 L 173.76,178.2 L 172.24,179.84 L 170.6,181.81 L 168.83,184.17 L 167.31,186.32 L 164.95,189.82 L 162.11,194.72 L 161.69,195.53 L 159.87,199.35 L 158.17,203.05 L 156.68,206.55 L 156.26,207.5 L 154.55,211.54 L 153.33,214.11 L 152.43,215.81 L 150.4,218.92 L 149.92,219.51 L 147.71,221.43 L 145.11,222.23 L 143.8,222.05 L 142.99,221.78 L 141.05,220.71 L 137.08,217.15 L 136.06,216.02 L 133.7,213.24 L 132.27,211.33 L 129.64,207.86 L 126.41,203.83 L 124.71,201.83 L 123.1,200.04 L 121.19,198.01 L 116.94,194.03 L 114.11,191.94 L 111.0,190.27 L 108.16,189.16 L 102.96,188.24 L 101.32,188.36 L 98.81,189.01 L 96.36,190.15 L 92.89,192.57 L 91.04,194.45 L 89.61,196.18 L 87.91,198.54 L 86.41,200.78 L 84.98,203.14 L 82.05,208.43 L 79.57,213.36 L 72.94,226.92 L 70.7,231.1 L 67.89,236.03 L 64.78,241.38 L 61.62,246.85 L 59.47,250.55 L 56.0,256.59 L 51.82,263.88 L 51.13,265.01 L 49.1,268.51 L 44.56,275.74 L 41.39,280.58 L 38.2,285.92 L 36.64,288.7 L 35.09,293.21 L 35.0,297.01 L 35.27,298.92 L 35.75,301.04 L 36.55,303.55 L 37.96,306.6 L 40.08,309.85 L 42.5,312.36 L 46.41,315.17 L 48.74,316.39 L 51.61,317.62 L 55.1,318.81 L 57.67,319.71 L 59.59,320.64 L 60.81,321.56 L 61.86,322.7 L 62.72,324.01 L 63.44,325.57 L 64.49,329.03 L 64.84,330.52 L 65.26,332.65 L 65.65,334.86 L 66.01,337.28 L 66.58,340.56 L 68.22,346.12 L 69.44,347.97 L 71.74,350.36 L 75.93,353.92 L 77.45,355.11 L 82.71,359.32 L 86.71,362.73 L 87.79,363.71 L 90.92,366.73 L 94.78,371.21 L 96.84,374.26 L 98.75,377.28 L 99.77,378.86 L 101.02,380.56 L 103.89,383.25 L 105.02,383.88 L 106.37,384.33 L 108.85,384.0 L 109.74,383.43 L 110.7,382.44 L 111.33,381.58 L 112.07,380.14 L 112.79,378.26 L 113.21,376.86 L 113.51,375.63 L 113.84,374.05 L 114.14,372.53 L 114.55,370.29 L 114.91,368.16 L 115.15,366.49 L 115.42,364.61 L 115.93,360.52 L 116.52,355.92 L 117.12,351.7 L 117.84,347.19 L 118.56,343.46 L 119.51,338.53 L 120.56,333.06 L 121.13,330.08 L 122.35,323.5 L 123.31,317.86 L 124.56,310.84 L 125.31,307.04 L 126.14,302.77 L 127.16,297.57 L 127.94,293.63 L 129.52,286.1 L 131.22,278.78 L 133.1,272.12 L 136.96,260.35 L 138.36,256.38 L 139.62,252.94 L 140.93,249.42 L 142.43,245.59 L 143.74,242.37 L 145.59,238.63 L 146.88,236.81 L 149.06,234.9 L 150.88,234.15 L 153.78,234.06 L 155.33,234.45 L 157.3,235.26 L 158.68,236.0 L 160.62,237.29 L 162.5,238.66 L 164.65,240.4 L 166.26,241.74 L 168.89,243.95 L 172.54,247.18 L 180.28,254.47 L 184.1,257.78 L 189.03,261.9 L 191.9,264.29 L 195.45,267.22 L 199.19,270.06 L 202.14,272.12 L 205.91,274.45 L 210.0,276.48 L 214.33,278.19 L 221.83,280.07 L 225.35,280.58 L 231.57,281.08 L 239.66,281.56 L 242.35,281.74 L 253.67,282.49 L 256.48,282.67 L 265.0,283.23 L 268.79,283.5 L 273.06,283.77 L 282.26,284.37 L 286.71,284.64 L 294.72,285.06 L 299.23,285.27 L 304.28,285.44 L 308.85,285.53 L 312.91,285.59 L 317.51,285.68 L 322.11,285.83 L 328.48,286.01 L 333.44,286.22 L 338.37,286.52 L 341.5,286.73 L 346.4,287.24 L 348.79,287.69 L 351.78,288.67 L 353.45,289.81 L 355.63,293.51 L 356.17,295.69 L 356.71,297.84 L 357.16,299.34 L 358.41,302.41 L 359.67,304.77 L 363.04,309.13 L 366.39,311.73 L 368.84,312.99 L 374.57,314.66 L 377.5,315.17 L 382.52,315.65 L 386.73,315.77 L 391.6,315.8 L 395.16,315.83 L 400.68,315.95 L 403.31,316.01 L 410.27,316.27 L 414.27,316.45 L 421.71,316.96 L 425.0,317.2 L 429.18,317.47 L 433.72,317.62 L 438.98,317.53 L 444.39,316.66 L 449.23,314.57 L 451.5,312.9 L 455.26,308.9 L 457.47,305.82 L 458.85,303.61 L 460.43,300.71 L 461.98,297.22 L 463.75,291.69 L 464.49,287.83 L 464.88,283.8 L 465.0,279.71 L 464.76,273.73 L 464.31,269.1 L 464.25,268.69 L 462.88,259.63 L 462.13,255.33 Z"/></svg>