<svg xmlns="http://www.w3.org/2000/svg" viewBox="0 0 500 500"><path fill="none" stroke="#fff" stroke-linecap="round" stroke-linejoin="round" stroke-width="4.5" d="M 216.18,194.07 L 222.58,198.09 L 232.31,204.23 L 236.01,206.56 L 240.98,209.65 L 248.06,214.07 L 255.27,218.44 L 257.42,219.73 L 261.29,222.02 L 266.92,225.32 L 274.43,229.4 L 283.44,234.07 L 290.39,237.69 L 293.86,239.53 L 296.99,241.31 L 299.57,242.97 L 302.07,244.98 L 304.36,247.68 L 305.34,249.71 L 305.63,252.93 L 304.97,255.19 L 303.47,257.63 L 301.44,259.99 L 299.63,261.79 L 298.31,263.09 L 296.3,265.01 L 294.12,267.3 L 292.05,270.0 L 290.39,272.9 L 289.3,275.62 L 288.49,279.84 L 288.44,281.65 L 288.41,287.33 L 288.15,290.23 L 286.89,295.77 L 284.05,302.14 L 281.72,305.35 L 279.37,307.71 L 271.82,312.84 L 268.7,314.39 L 266.17,315.48 L 257.88,318.09 L 251.91,319.16 L 246.6,319.53 L 244.94,319.56 L 240.77,319.44 L 236.15,318.93 L 228.29,317.06 L 221.41,314.34 L 215.9,311.44 L 211.28,308.65 L 205.91,305.3 L 201.72,302.6 L 197.07,299.64 L 191.65,296.17 L 188.92,294.42 L 184.59,291.67 L 178.76,287.96 L 173.14,284.52 L 168.18,281.77 L 164.82,279.96 L 162.29,278.67 L 158.05,276.63 L 152.36,274.65 L 144.99,273.64 L 141.23,273.7 L 135.92,274.45 L 128.43,277.43 L 125.65,279.1 L 120.57,282.14 L 112.48,285.15 L 109.72,285.52 L 105.36,285.44 L 100.11,284.23 L 95.86,282.22 L 89.98,278.21 L 87.02,275.71 L 81.49,271.09 L 74.23,267.73 L 69.15,266.76 L 63.49,266.87 L 58.27,267.91 L 52.48,269.91 L 49.29,271.46 L 42.72,276.31 L 40.37,278.87 L 37.98,282.37 L 36.43,285.55 L 36.35,285.81 L 35.52,288.6 L 35.0,292.58 L 35.2,296.6 L 35.86,299.38 L 36.78,301.51 L 38.9,304.41 L 41.17,306.13 L 43.41,307.16 L 46.62,307.96 L 50.93,308.34 L 53.59,308.42 L 57.78,308.48 L 63.72,308.65 L 68.14,309.0 L 69.46,309.14 L 72.85,309.57 L 75.46,309.97 L 80.74,310.81 L 84.38,311.44 L 90.3,312.61 L 93.31,313.27 L 100.63,314.79 L 104.59,315.28 L 105.42,315.34 L 110.33,315.57 L 114.95,315.6 L 120.43,315.43 L 125.53,315.14 L 127.69,315.02 L 133.77,314.77 L 139.85,314.56 L 146.54,314.39 L 155.09,314.28 L 161.0,314.19 L 165.56,314.13 L 173.43,314.05 L 174.34,314.05 L 203.33,318.47 L 209.67,320.71 L 213.71,322.14 L 218.74,323.86 L 224.27,325.67 L 229.41,327.28 L 236.04,329.2 L 239.86,330.23 L 247.12,331.9 L 251.05,332.64 L 258.51,333.65 L 263.56,334.05 L 272.68,334.28 L 278.8,334.11 L 285.19,333.68 L 289.7,333.27 L 294.81,332.64 L 300.89,331.7 L 304.94,330.89 L 310.5,329.57 L 315.01,328.34 L 319.49,326.96 L 325.45,325.01 L 331.88,322.83 L 337.33,320.99 L 341.32,319.64 L 348.27,317.29 L 356.27,314.56 L 366.23,311.04 L 377.08,306.76 L 386.32,302.74 L 391.17,300.56 L 398.4,297.18 L 407.52,292.81 L 413.69,289.74 L 419.2,286.82 L 422.59,284.95 L 425.46,283.29 L 428.3,281.54 L 431.25,279.53 L 434.04,277.26 L 436.08,275.14 L 436.82,274.22 L 437.94,272.64 L 438.74,271.03 L 439.26,269.63 L 439.52,268.02 L 439.46,266.9 L 438.74,265.07 L 437.91,263.77 L 437.25,262.97 L 435.87,261.56 L 434.84,260.65 L 433.46,259.5 L 431.97,258.29 L 429.33,256.05 L 425.89,252.24 L 424.51,249.77 L 424.28,249.23 L 423.54,246.27 L 423.68,242.74 L 425.0,238.87 L 426.86,236.0 L 428.38,234.5 L 431.11,232.75 L 435.07,231.55 L 437.05,231.32 L 442.47,231.2 L 443.65,231.18 L 453.44,229.28 L 457.11,226.93 L 460.7,222.97 L 461.96,221.08 L 463.42,218.29 L 464.51,215.28 L 464.91,213.36 L 465.0,211.66 L 464.8,210.4 L 463.34,208.85 L 460.41,207.19 L 459.66,205.64 L 459.86,202.8 L 460.47,200.24 L 461.53,196.43 L 461.99,194.85 L 462.5,193.24 L 463.62,190.23 L 464.14,188.74 L 464.57,187.36 L 464.77,184.63 L 464.23,183.17 L 462.96,181.73 L 461.18,180.56 L 459.49,179.73 L 458.63,179.38 L 456.08,178.58 L 454.84,178.32 L 452.52,177.95 L 451.2,177.8 L 446.2,177.54 L 443.19,177.46 L 439.38,177.34 L 435.36,177.23 L 431.46,177.11 L 424.34,176.88 L 419.2,176.71 L 415.3,176.6 L 410.94,176.48 L 406.43,176.34 L 403.36,176.25 L 398.31,176.11 L 391.94,175.97 L 385.77,175.85 L 381.18,175.74 L 376.53,175.65 L 368.78,175.48 L 363.96,175.36 L 355.61,175.19 L 350.25,175.08 L 342.07,174.9 L 337.45,174.79 L 329.56,174.56 L 325.83,174.45 L 303.07,173.64 L 297.76,173.44 L 293.86,173.33 L 290.45,173.21 L 281.09,172.87 L 273.6,172.61 L 267.55,172.38 L 262.5,172.21 L 257.91,172.06 L 249.73,171.78 L 243.73,171.55 L 238.05,171.35 L 227.14,170.97 L 223.47,170.86 L 217.73,170.66 L 208.78,170.49 L 200.31,170.34 L 193.94,170.23 L 189.7,170.14 L 185.42,170.05 L 179.54,169.94 L 173.63,169.83 L 163.96,169.65 L 155.38,169.48 L 145.68,169.31 L 138.68,169.08 L 132.62,168.68 L 131.1,168.53 L 125.16,167.96 L 114.66,166.9 L 108.55,166.3 L 105.1,166.01 L 100.48,165.72 L 96.24,165.84 L 95.2,165.92 L 92.85,166.27 L 90.93,166.75 L 88.8,167.73 L 87.74,168.56 L 87.48,168.85 L 86.42,170.69 L 86.16,171.75 L 86.19,173.64 L 86.97,176.02 L 87.63,177.17 L 88.23,177.97 L 89.75,179.61 L 90.41,180.21 L 91.42,181.02 L 95.63,183.74 L 97.5,184.69 L 100.43,186.5 L 103.58,188.51 L 107.83,191.12 L 110.44,192.38 L 113.19,193.36 L 118.79,194.27 L 123.07,193.73 L 131.93,190.69 L 135.03,189.22 L 141.12,186.3 L 145.62,184.14 L 152.13,181.36 L 156.01,180.27 L 163.73,179.01 L 167.08,178.75 L 171.73,178.58 L 176.35,178.66 L 179.74,179.01 L 183.56,179.7 L 188.2,180.9 L 192.39,182.25 L 196.53,183.69 L 202.21,186.07 L 208.55,189.4 L 213.49,192.35 Z"/></svg>