<svg xmlns="http://www.w3.org/2000/svg" viewBox="0 0 500 500">
  <path d="M 82.6,317.82 L 82.24,303.08 L 83.32,287.37 L 84.21,279.53 L 86.18,267.84 L 87.61,261.44 L 89.09,255.44 L 90.21,251.5 L 91.29,247.96 L 92.14,245.37 L 94.11,240.75 L 95.49,238.6 L 99.61,235.69 L 101.67,234.98 L 108.97,233.5 L 114.21,233.01 L 119.81,232.51 L 124.91,232.07 L 131.14,231.35 L 138.62,230.14 L 144.53,228.89 L 153.71,226.69 L 160.06,225.13 L 164.9,223.92 L 175.96,221.14 L 184.83,218.81 L 191.54,217.33 L 199.92,216.04 L 206.1,215.5 L 211.65,214.96 L 218.9,213.71 L 227.77,210.48 L 233.63,207.62 L 238.92,204.89 L 244.83,202.11 L 254.63,198.35 L 260.99,196.56 L 264.26,195.84 L 270.84,194.72 L 286.25,192.84 L 296.86,190.92 L 303.13,188.86 L 309.26,185.77 L 313.34,182.99 L 317.82,178.74 L 322.07,172.29 L 323.32,169.2 L 324.71,162.3 L 324.71,160.56 L 324.58,155.63 L 322.83,147.93 L 319.56,140.72 L 316.97,136.56 L 315.35,134.36 L 312.26,130.51 L 309.76,127.47 L 307.38,124.51 L 303.89,118.38 L 303.93,107.32 L 306.85,100.73 L 307.88,98.94 L 311.19,94.06 L 314.01,90.48 L 316.52,87.66 L 321.49,82.2 L 324.49,78.79 L 329.64,72.08 L 333.98,65.63 L 336.53,61.91 L 343.97,51.93 L 346.61,48.66 L 350.46,44.13 L 354.04,40.24 L 356.37,38.18 L 359.95,36.3 L 362.01,36.21 L 363.58,36.52 L 365.68,37.42 L 367.65,38.85 L 369.04,40.42 L 370.03,42.07 L 371.06,44.9 L 371.73,47.45 L 372.67,51.25 L 373.38,53.72 L 373.97,55.55 L 375.58,60.08 L 378.13,65.9 L 380.19,69.79 L 382.03,72.57 L 384.8,75.7 L 386.42,76.91 L 387.22,77.36 L 388.97,77.99 L 391.7,77.72 L 392.86,76.55 L 393.31,75.12 L 393.36,73.91 L 393.13,72.48 L 392.77,71.27 L 392.24,69.88 L 391.79,69.03 L 391.3,68.18 L 389.86,66.17 L 387.8,63.84 L 386.86,62.9 L 384.62,60.61 L 383.42,59.27 L 381.44,56.67 L 379.97,52.37 L 380.59,48.39 L 381.94,46.06 L 383.5,44.4 L 386.91,42.03 L 390.67,40.06 L 394.39,38.45 L 399.09,36.66 L 402.45,35.67 L 405.49,35.09 L 409.43,35.0 L 411.4,35.49 L 413.68,37.15 L 415.12,39.16 L 416.06,41.4 L 416.73,43.46 L 417.58,48.39 L 417.76,54.52 L 417.67,57.39 L 416.91,65.63 L 416.6,68.4 L 416.1,72.97 L 415.52,78.21 L 414.54,87.17 L 413.37,97.87 L 412.3,104.72 L 410.55,111.75 L 408.89,117.21 L 407.42,121.6 L 403.07,133.33 L 400.3,140.14 L 397.56,146.41 L 394.56,152.68 L 376.79,175.24 L 368.59,180.8 L 363.22,183.62 L 355.21,187.42 L 350.32,189.75 L 342.4,193.69 L 335.64,197.1 L 323.5,203.18 L 320.59,204.57 L 311.41,208.69 L 303.58,211.83 L 290.81,216.13 L 277.74,219.26 L 270.75,220.42 L 264.4,221.19 L 260.05,221.63 L 250.56,222.62 L 244.69,223.56 L 241.51,224.77 L 238.34,228.48 L 235.96,232.56 L 234.71,233.86 L 233.28,234.71 L 229.74,235.6 L 227.81,235.65 L 224.95,235.29 L 221.59,234.48 L 218.9,233.86 L 216.66,233.5 L 213.3,233.37 L 212.41,233.41 L 208.47,233.81 L 202.2,234.75 L 197.9,235.42 L 188.77,236.72 L 184.06,237.31 L 176.72,238.25 L 169.51,239.05 L 167.41,239.32 L 159.8,240.13 L 153.71,240.71 L 148.2,241.2 L 141.84,241.6 L 139.56,241.74 L 134.59,242.05 L 127.42,243.31 L 120.39,247.51 L 114.57,254.14 L 109.96,261.75 L 107.09,268.69 L 105.35,274.83 L 102.88,302.28 L 107.18,314.23 L 111.84,319.29 L 114.79,325.83 L 115.96,329.41 L 117.93,335.95 L 121.15,349.29 L 122.27,355.88 L 123.26,363.76 L 123.79,369.67 L 124.02,374.64 L 123.08,382.21 L 118.69,387.04 L 117.08,393.27 L 117.44,397.07 L 118.15,401.01 L 119.67,406.74 L 120.57,409.3 L 122.94,415.03 L 126.57,421.92 L 130.24,427.3 L 136.29,434.19 L 138.39,436.07 L 144.39,439.92 L 149.05,442.48 L 154.02,445.16 L 156.71,447.0 L 159.03,449.33 L 160.15,451.43 L 160.51,453.0 L 160.38,456.04 L 159.97,457.7 L 159.26,459.31 L 158.36,460.57 L 156.57,462.18 L 154.29,463.21 L 151.15,464.01 L 149.99,464.24 L 147.12,464.55 L 145.42,464.69 L 142.96,464.87 L 138.44,465.0 L 137.59,465.0 L 133.82,464.78 L 130.87,464.37 L 127.33,463.39 L 124.82,461.73 L 123.44,459.85 L 122.63,458.24 L 121.87,455.82 L 121.42,453.85 L 120.84,451.12 L 120.35,448.7 L 118.33,442.66 L 115.64,437.86 L 110.41,430.25 L 106.11,423.36 L 102.84,416.55 L 101.49,413.1 L 99.48,407.51 L 96.61,398.42 L 94.82,392.33 L 94.02,389.5 L 90.79,377.82 L 89.4,372.4 L 86.99,361.92 L 85.37,352.29 L 84.3,342.85 L 83.45,331.29 Z"
        stroke="white" stroke-width="4.5"
        fill="none" stroke-linecap="round" stroke-linejoin="round"/>
</svg>