<svg xmlns="http://www.w3.org/2000/svg" viewBox="0 0 500 500">
  <path d="M 128.59,356.93 L 128.85,354.06 L 129.17,350.47 L 129.52,346.52 L 130.18,338.91 L 130.77,331.97 L 130.97,329.79 L 131.56,322.79 L 131.78,320.21 L 132.28,314.64 L 132.4,313.17 L 133.07,305.34 L 133.49,300.58 L 133.81,296.91 L 134.02,294.28 L 134.68,286.76 L 135.49,277.36 L 136.13,269.79 L 136.56,264.87 L 137.02,259.56 L 137.37,255.39 L 137.73,251.21 L 138.07,247.4 L 138.66,240.54 L 139.02,236.34 L 139.24,233.66 L 139.87,226.21 L 140.39,220.08 L 140.45,219.31 L 140.8,215.12 L 141.12,211.29 L 141.44,207.51 L 141.95,201.52 L 142.13,199.14 L 142.37,196.54 L 142.67,193.53 L 142.87,192.16 L 143.74,188.89 L 144.41,187.58 L 145.76,186.09 L 146.79,185.52 L 148.42,185.1 L 149.35,184.94 L 150.28,184.65 L 151.53,183.69 L 152.19,182.35 L 152.42,181.12 L 152.46,180.46 L 152.36,178.28 L 152.31,177.82 L 151.97,176.2 L 151.63,174.81 L 151.14,173.01 L 150.86,171.92 L 150.42,170.29 L 150.04,168.86 L 149.61,167.16 L 148.7,163.25 L 148.3,161.45 L 147.53,157.16 L 146.99,151.79 L 146.89,149.33 L 146.81,144.97 L 146.89,139.61 L 147.01,136.86 L 147.03,136.3 L 147.31,132.38 L 147.82,127.18 L 148.18,124.55 L 149.25,118.64 L 150.74,112.99 L 151.63,110.33 L 152.66,107.67 L 154.63,103.33 L 158.47,96.61 L 161.72,92.11 L 163.41,90.1 L 165.71,87.68 L 169.42,84.29 L 173.66,80.96 L 178.28,77.93 L 182.92,75.33 L 188.23,72.87 L 191.45,71.62 L 195.39,70.31 L 199.79,69.16 L 202.53,68.57 L 208.4,67.52 L 216.09,66.45 L 222.8,65.75 L 227.06,65.42 L 231.32,65.06 L 237.85,64.5 L 242.86,64.13 L 246.47,63.89 L 249.35,63.71 L 255.85,63.35 L 259.46,63.2 L 260.19,63.16 L 264.51,63.0 L 268.12,62.84 L 272.03,62.7 L 274.57,62.62 L 278.75,62.46 L 281.29,62.34 L 284.1,62.05 L 287.14,61.29 L 288.11,60.96 L 290.03,59.98 L 291.68,58.44 L 292.16,57.58 L 292.75,56.26 L 293.25,55.32 L 294.73,53.56 L 296.34,52.35 L 297.49,51.72 L 300.44,50.59 L 301.71,50.25 L 305.04,49.55 L 308.73,48.9 L 312.42,48.07 L 314.56,47.45 L 317.65,46.5 L 319.72,45.87 L 324.44,44.32 L 326.38,43.61 L 328.82,42.65 L 331.83,41.46 L 335.98,39.94 L 339.19,38.85 L 342.72,37.66 L 346.05,36.57 L 350.79,35.32 L 353.07,35.04 L 353.86,35.0 L 357.41,35.28 L 359.31,35.71 L 361.32,36.47 L 365.4,39.14 L 368.0,42.1 L 369.39,44.62 L 370.38,47.15 L 371.43,51.58 L 371.77,53.88 L 372.3,58.89 L 372.5,61.03 L 372.66,63.22 L 372.98,68.25 L 373.23,71.96 L 373.51,75.43 L 373.79,78.36 L 374.17,82.23 L 374.46,85.52 L 374.03,96.35 L 372.68,99.38 L 371.59,100.91 L 370.44,102.14 L 366.33,105.11 L 363.06,106.9 L 360.5,108.19 L 357.87,109.5 L 355.17,110.86 L 351.05,113.06 L 347.22,115.15 L 342.44,117.68 L 339.92,119.05 L 335.06,121.83 L 329.27,125.14 L 327.67,126.03 L 324.4,127.88 L 320.51,130.04 L 318.29,131.31 L 314.92,133.25 L 310.12,136.11 L 307.32,137.89 L 300.48,142.85 L 298.62,144.35 L 293.54,148.5 L 291.42,150.26 L 288.53,152.8 L 285.33,155.58 L 284.28,156.51 L 279.98,160.24 L 277.01,162.83 L 274.57,164.96 L 272.11,167.08 L 267.17,171.38 L 261.94,175.94 L 258.05,179.31 L 253.29,183.44 L 250.22,186.11 L 246.01,189.78 L 244.05,191.49 L 239.27,195.63 L 232.61,201.42 L 230.93,202.89 L 224.4,208.56 L 221.27,211.28 L 216.81,215.16 L 215.24,216.53 L 212.03,219.42 L 209.73,221.67 L 207.09,225.08 L 206.73,225.83 L 205.82,229.6 L 205.72,232.79 L 205.76,235.53 L 205.62,239.71 L 205.27,242.31 L 204.57,244.9 L 203.78,247.03 L 201.14,251.73 L 197.75,255.55 L 195.25,258.13 L 192.56,262.21 L 190.47,268.84 L 189.94,272.01 L 189.44,277.07 L 189.13,280.67 L 188.83,283.71 L 188.33,288.71 L 187.88,293.72 L 187.68,295.92 L 187.36,299.45 L 186.91,304.29 L 186.61,307.54 L 186.37,310.18 L 186.03,313.81 L 185.54,319.14 L 185.26,322.16 L 185.02,324.85 L 184.53,330.31 L 184.01,335.8 L 183.5,341.33 L 183.12,345.49 L 182.76,349.34 L 182.5,352.14 L 182.19,355.65 L 181.89,358.82 L 181.47,363.44 L 181.22,366.27 L 180.78,370.91 L 180.52,373.77 L 180.18,377.34 L 179.77,382.0 L 179.23,387.75 L 178.97,390.62 L 178.74,393.16 L 178.4,396.77 L 177.78,403.65 L 177.45,407.28 L 176.73,414.91 L 176.2,420.74 L 175.78,425.11 L 175.54,427.66 L 175.03,432.74 L 174.63,436.37 L 173.98,441.62 L 173.3,445.73 L 171.82,451.85 L 170.27,455.84 L 168.8,458.4 L 167.77,459.71 L 166.24,461.23 L 164.32,462.64 L 160.67,464.33 L 158.08,464.88 L 155.1,465.0 L 150.82,464.31 L 148.36,463.51 L 143.84,461.21 L 135.81,453.7 L 134.16,451.38 L 132.54,448.68 L 131.11,445.81 L 130.16,443.64 L 129.03,440.57 L 127.98,437.12 L 126.69,431.11 L 126.03,426.24 L 125.83,423.7 L 125.66,420.19 L 125.58,416.98 L 125.54,412.12 L 125.56,409.48 L 125.6,406.84 L 125.66,403.19 L 125.77,399.33 L 125.91,395.28 L 125.99,393.58 L 126.37,386.06 L 126.67,381.44 L 126.94,377.56 L 127.02,376.47 L 127.56,369.37 L 127.78,366.53 Z"
        stroke="white" stroke-width="4.5"
        fill="none" stroke-linecap="round" stroke-linejoin="round"/>
</svg>