<svg xmlns="http://www.w3.org/2000/svg" viewBox="0 0 500 500">
  <path d="M 353.32,351.82 L 344.56,354.16 L 333.42,357.16 L 323.91,359.75 L 319.39,360.96 L 314.87,362.2 L 304.01,365.13 L 295.39,367.47 L 286.7,369.78 L 279.19,371.85 L 271.36,373.99 L 262.4,376.51 L 255.4,378.47 L 243.26,381.78 L 234.85,384.06 L 227.19,385.92 L 220.33,386.61 L 216.64,386.33 L 211.23,384.61 L 209.02,383.27 L 207.23,381.85 L 205.47,380.02 L 202.16,374.3 L 198.02,366.75 L 196.26,363.99 L 193.19,359.61 L 190.71,355.99 L 188.75,353.1 L 186.19,349.23 L 185.23,347.79 L 183.06,344.48 L 180.82,341.1 L 177.75,336.48 L 174.89,332.13 L 172.2,328.06 L 169.51,323.96 L 165.33,317.65 L 161.37,311.65 L 156.82,304.72 L 154.23,300.69 L 149.13,292.44 L 146.37,287.72 L 142.41,280.45 L 140.34,276.48 L 137.82,271.48 L 135.27,266.45 L 131.96,259.83 L 129.65,255.21 L 126.37,248.45 L 124.41,244.28 L 122.13,239.52 L 119.99,234.97 L 117.72,230.17 L 114.2,222.66 L 103.72,202.59 L 101.13,198.49 L 97.82,193.49 L 94.34,188.59 L 87.48,180.21 L 85.82,178.42 L 80.58,172.87 L 72.48,164.59 L 66.0,158.21 L 62.07,154.42 L 56.45,148.97 L 48.93,141.8 L 46.34,139.35 L 43.21,136.39 L 41.0,134.29 L 38.14,131.39 L 37.0,129.98 L 35.59,127.42 L 35.0,125.63 L 35.34,121.49 L 36.79,119.42 L 38.41,118.18 L 39.45,117.63 L 41.34,116.91 L 44.24,116.18 L 45.96,115.91 L 47.76,115.63 L 49.72,115.36 L 52.07,115.08 L 54.34,114.8 L 57.38,114.46 L 61.58,114.08 L 64.03,113.91 L 68.62,113.67 L 73.1,113.49 L 78.96,113.39 L 82.03,113.42 L 88.55,113.6 L 94.48,113.94 L 99.31,114.29 L 105.17,114.87 L 112.61,115.73 L 119.89,116.73 L 125.82,117.63 L 129.82,118.32 L 138.51,119.84 L 144.75,121.04 L 150.51,122.22 L 157.99,123.73 L 188.71,129.84 L 200.23,131.7 L 207.78,132.77 L 213.68,133.6 L 223.16,134.91 L 237.09,136.53 L 244.09,137.08 L 253.71,137.53 L 262.98,137.84 L 270.36,138.08 L 282.5,138.39 L 287.05,138.49 L 292.88,138.63 L 293.88,138.7 L 301.01,139.91 L 304.46,141.53 L 307.12,143.46 L 309.25,146.46 L 309.94,148.8 L 310.25,150.97 L 310.25,154.18 L 309.87,156.11 L 308.7,159.18 L 307.22,162.11 L 305.32,165.08 L 303.39,167.7 L 301.43,170.14 L 298.25,173.59 L 295.15,176.49 L 293.15,178.11 L 289.63,180.63 L 286.26,182.66 L 282.29,184.76 L 278.46,186.52 L 274.43,188.04 L 268.91,189.66 L 261.33,191.35 L 254.4,192.14 L 251.57,192.25 L 246.26,192.07 L 239.91,191.56 L 234.02,190.83 L 233.02,190.69 L 227.05,189.76 L 219.54,188.42 L 213.99,187.38 L 209.37,186.49 L 201.43,185.11 L 188.44,183.63 L 182.54,183.63 L 176.54,184.38 L 171.37,185.73 L 167.47,187.38 L 163.99,189.59 L 161.51,191.73 L 157.09,197.38 L 155.06,202.07 L 154.27,205.62 L 153.71,212.24 L 154.13,218.11 L 155.06,222.8 L 155.99,226.17 L 157.65,230.76 L 159.65,234.83 L 162.2,239.28 L 165.02,243.86 L 167.54,247.93 L 172.92,256.52 L 177.09,262.69 L 179.82,266.24 L 184.44,271.34 L 189.54,275.52 L 197.57,279.38 L 202.64,280.14 L 206.68,279.83 L 213.71,277.83 L 229.81,266.34 L 231.92,264.45 L 235.78,260.93 L 241.16,256.03 L 242.95,254.41 L 252.26,247.21 L 255.67,245.14 L 262.5,242.07 L 268.98,240.35 L 273.12,239.62 L 277.29,239.17 L 283.67,238.79 L 290.08,238.59 L 292.22,238.52 L 300.32,238.35 L 308.46,238.21 L 314.49,238.14 L 323.84,238.04 L 331.08,238.0 L 338.94,237.97 L 345.39,237.9 L 355.04,237.73 L 363.63,237.52 L 372.28,237.28 L 385.04,236.9 L 398.49,236.48 L 406.11,236.35 L 411.21,236.41 L 414.62,236.55 L 420.42,236.93 L 427.69,237.93 L 433.93,239.62 L 437.28,240.93 L 444.59,245.55 L 451.0,253.03 L 454.55,262.55 L 456.24,268.48 L 459.69,279.72 L 462.21,287.96 L 463.45,292.1 L 464.9,298.89 L 465.0,305.72 L 463.76,310.06 L 462.31,312.89 L 460.31,315.75 L 454.0,320.96 L 448.9,323.61 L 445.9,325.03 L 439.76,327.68 L 436.17,329.1 L 432.86,330.2 L 428.9,331.44 L 424.11,332.82 L 418.21,334.41 L 417.31,334.65 L 406.97,337.3 L 397.35,339.92 L 391.39,341.54 L 383.45,343.68 L 376.21,345.65 L 365.66,348.47 L 362.87,349.23 Z"
        stroke="white" stroke-width="4.5"
        fill="none" stroke-linecap="round" stroke-linejoin="round"/>
</svg>