<svg xmlns="http://www.w3.org/2000/svg" viewBox="0 0 500 500">
  <path d="M 106.65,99.18 L 110.58,99.81 L 115.49,100.61 L 120.46,101.44 L 128.23,102.75 L 133.35,103.59 L 139.43,104.6 L 147.49,105.88 L 153.27,106.77 L 158.15,107.52 L 165.06,108.56 L 173.06,109.78 L 183.72,111.38 L 192.12,112.66 L 197.21,113.44 L 201.37,114.06 L 211.38,115.55 L 220.96,116.89 L 222.57,117.1 L 229.03,117.93 L 236.08,118.77 L 241.53,119.39 L 270.88,122.73 L 276.45,123.38 L 281.48,123.98 L 289.31,124.87 L 300.56,126.15 L 305.65,126.75 L 311.31,127.43 L 316.96,128.14 L 329.41,129.78 L 342.5,131.51 L 345.33,131.9 L 351.61,132.73 L 361.88,134.07 L 369.33,135.02 L 378.05,136.18 L 384.63,137.04 L 390.94,137.88 L 398.41,138.86 L 407.61,140.05 L 412.76,140.74 L 417.91,141.36 L 425.47,142.34 L 433.71,143.53 L 437.14,144.19 L 440.32,145.02 L 443.69,146.33 L 447.17,148.42 L 449.73,150.74 L 451.34,153.15 L 452.14,155.05 L 452.71,156.99 L 453.06,159.79 L 452.71,164.04 L 452.2,166.78 L 451.99,167.8 L 451.75,169.79 L 451.69,171.55 L 452.05,174.08 L 452.85,176.13 L 453.87,177.71 L 454.82,178.81 L 456.13,179.91 L 457.41,180.77 L 460.74,183.01 L 461.4,183.51 L 462.56,184.61 L 464.85,189.32 L 465.0,190.6 L 464.97,194.91 L 464.43,198.1 L 463.72,201.05 L 463.04,203.61 L 462.32,206.02 L 461.58,208.25 L 459.46,214.11 L 458.21,217.12 L 456.58,220.81 L 452.85,228.28 L 451.78,230.28 L 449.43,234.3 L 446.07,239.74 L 444.34,242.54 L 442.08,246.06 L 439.28,250.34 L 435.38,256.18 L 432.97,259.93 L 427.58,268.65 L 423.47,275.5 L 419.6,282.13 L 414.66,290.56 L 410.08,298.24 L 405.17,306.46 L 401.95,311.69 L 394.96,322.83 L 390.19,329.91 L 384.63,338.13 L 381.11,343.13 L 370.9,358.52 L 370.16,360.39 L 369.59,362.42 L 369.38,363.85 L 369.62,367.51 L 370.34,369.44 L 372.42,371.94 L 375.28,373.76 L 377.24,374.8 L 378.26,375.37 L 379.3,376.05 L 381.32,377.84 L 382.36,379.42 L 382.87,380.96 L 383.02,381.92 L 383.02,383.11 L 382.72,384.42 L 382.1,385.67 L 381.56,386.41 L 379.0,388.91 L 377.27,390.13 L 375.79,391.18 L 374.21,392.28 L 371.56,394.12 L 369.03,395.88 L 365.43,398.62 L 365.01,398.94 L 362.63,400.76 L 360.07,402.34 L 358.13,403.17 L 356.61,403.56 L 353.61,403.71 L 352.36,403.56 L 349.26,402.28 L 348.1,401.27 L 346.73,399.3 L 345.75,396.8 L 345.3,394.45 L 345.21,392.96 L 345.24,390.25 L 345.36,388.67 L 345.57,386.41 L 345.9,384.21 L 346.46,381.11 L 346.82,379.06 L 347.54,375.34 L 348.46,370.46 L 349.41,365.1 L 350.3,360.1 L 351.05,355.9 L 351.58,353.04 L 352.66,347.51 L 353.34,344.11 L 353.97,341.05 L 354.71,337.12 L 355.78,331.07 L 356.35,327.8 L 357.39,320.62 L 357.36,314.79 L 356.55,309.64 L 355.9,307.79 L 352.95,302.53 L 351.94,301.34 L 348.04,297.88 L 344.68,295.62 L 341.19,293.36 L 337.68,290.71 L 332.74,285.89 L 328.48,280.11 L 326.88,277.43 L 321.01,268.98 L 318.75,266.74 L 313.63,262.87 L 308.54,260.31 L 303.45,258.68 L 298.95,257.81 L 294.28,257.46 L 286.63,257.34 L 281.9,257.16 L 276.96,256.47 L 275.65,256.18 L 271.92,255.05 L 269.42,253.91 L 266.89,252.25 L 263.8,249.24 L 262.99,248.26 L 259.99,243.85 L 257.28,238.11 L 256.24,235.4 L 253.85,230.1 L 251.8,226.41 L 246.65,220.75 L 243.91,218.67 L 236.38,214.23 L 233.52,212.72 L 228.76,210.36 L 224.59,208.43 L 218.25,205.81 L 208.61,202.56 L 204.71,201.4 L 193.96,198.72 L 188.87,197.65 L 184.64,196.88 L 178.45,195.84 L 169.37,194.5 L 161.69,193.49 L 155.17,192.74 L 146.06,191.73 L 138.89,190.96 L 126.48,189.59 L 117.64,188.57 L 110.97,187.83 L 110.22,187.74 L 103.32,186.58 L 99.18,185.12 L 97.48,184.23 L 96.29,183.45 L 93.67,181.13 L 92.33,179.55 L 90.46,176.28 L 89.71,174.08 L 89.18,171.46 L 88.82,168.15 L 88.79,163.51 L 88.79,163.21 L 89.0,159.07 L 89.27,155.65 L 89.51,151.16 L 89.59,148.68 L 89.62,143.62 L 89.18,139.49 L 88.46,136.72 L 87.57,134.9 L 86.41,133.65 L 84.3,132.4 L 83.05,132.1 L 80.25,132.31 L 79.12,132.82 L 77.72,133.71 L 76.26,134.9 L 75.22,135.76 L 72.48,137.79 L 70.63,138.71 L 69.0,139.22 L 65.84,139.61 L 63.28,139.52 L 60.78,139.19 L 56.82,138.38 L 54.32,137.91 L 52.92,137.67 L 45.92,136.72 L 44.94,136.57 L 41.16,135.76 L 39.47,135.05 L 37.92,133.98 L 36.1,131.42 L 35.45,129.48 L 35.0,126.15 L 35.18,123.29 L 35.57,121.09 L 36.19,118.89 L 36.55,117.93 L 37.17,116.39 L 38.04,114.66 L 44.88,106.29 L 48.93,103.26 L 51.94,101.53 L 54.91,100.13 L 57.15,99.3 L 60.45,98.29 L 67.92,96.83 L 75.51,96.29 L 78.94,96.29 L 85.75,96.62 L 89.0,96.92 L 93.58,97.42 L 102.01,98.53 Z"
        stroke="white" stroke-width="4.5"
        fill="none" stroke-linecap="round" stroke-linejoin="round"/>
</svg>