<svg xmlns="http://www.w3.org/2000/svg" viewBox="0 0 500 500">
  <path d="M 273.82,366.56 L 266.56,368.4 L 257.54,370.56 L 251.59,372.01 L 247.24,373.07 L 243.95,373.85 L 235.1,376.01 L 230.68,377.14 L 223.88,378.81 L 218.75,380.08 L 214.75,381.07 L 205.55,383.37 L 199.18,384.96 L 194.54,386.13 L 188.28,387.65 L 184.77,388.54 L 178.93,389.95 L 173.06,391.37 L 164.39,393.49 L 159.15,394.77 L 155.01,395.79 L 147.9,397.49 L 131.23,401.42 L 123.09,402.94 L 118.98,403.44 L 97.25,401.07 L 92.16,398.7 L 85.15,393.67 L 79.27,386.7 L 76.3,380.57 L 74.89,375.12 L 74.5,370.17 L 74.81,366.6 L 75.52,363.23 L 77.68,357.89 L 79.45,355.16 L 81.11,353.22 L 83.56,351.06 L 87.7,348.76 L 91.34,347.84 L 93.15,347.7 L 97.08,348.19 L 100.33,349.64 L 102.88,351.8 L 104.68,354.28 L 106.17,358.74 L 106.31,360.08 L 106.28,362.31 L 105.75,365.75 L 104.97,369.82 L 104.79,372.65 L 104.83,373.57 L 105.43,376.86 L 106.21,378.66 L 107.27,380.29 L 109.71,382.56 L 111.55,383.48 L 113.67,384.01 L 115.8,384.08 L 117.67,383.8 L 118.95,383.41 L 121.14,382.31 L 122.56,381.35 L 124.4,379.65 L 125.92,377.85 L 127.12,375.97 L 128.72,372.72 L 129.64,369.96 L 130.48,365.6 L 130.56,364.9 L 130.7,361.0 L 130.38,356.86 L 129.78,353.61 L 128.54,349.22 L 127.87,347.38 L 124.68,340.87 L 120.96,335.27 L 118.81,332.51 L 115.62,328.73 L 110.77,323.31 L 107.09,319.24 L 98.14,309.51 L 95.55,306.71 L 91.91,302.82 L 87.2,297.76 L 80.44,290.33 L 77.75,287.25 L 70.96,278.72 L 66.43,272.28 L 62.25,265.52 L 55.6,252.42 L 50.43,240.67 L 48.52,235.68 L 45.16,226.59 L 41.94,217.56 L 40.52,213.49 L 39.25,209.92 L 37.44,204.79 L 35.71,199.37 L 35.0,194.52 L 35.46,191.06 L 35.71,190.31 L 36.49,188.72 L 38.04,186.67 L 39.88,185.32 L 40.63,184.97 L 43.85,184.19 L 46.18,184.23 L 47.53,184.47 L 49.97,185.22 L 52.13,186.17 L 55.42,188.12 L 57.01,189.29 L 61.54,193.22 L 66.75,198.67 L 68.66,201.04 L 71.03,204.19 L 72.9,206.88 L 76.58,212.82 L 78.32,216.01 L 80.41,220.04 L 82.07,223.47 L 83.66,226.94 L 85.64,231.4 L 88.4,237.6 L 89.93,241.03 L 93.04,247.97 L 97.32,256.74 L 99.23,260.21 L 101.85,264.49 L 108.79,273.48 L 112.4,276.99 L 117.53,281.02 L 122.84,284.24 L 125.14,285.37 L 132.01,287.89 L 140.75,289.51 L 151.86,289.09 L 156.04,288.2 L 162.02,286.15 L 166.23,284.06 L 172.46,279.85 L 175.68,277.06 L 180.67,271.46 L 186.08,262.83 L 188.28,258.51 L 193.06,248.04 L 196.67,242.02 L 200.24,237.6 L 201.2,236.6 L 204.2,233.84 L 211.6,229.28 L 218.75,227.05 L 223.17,226.62 L 226.36,226.73 L 229.44,227.19 L 235.88,229.38 L 242.18,233.53 L 245.68,237.03 L 249.04,241.84 L 250.67,245.03 L 253.01,250.94 L 254.78,255.54 L 256.05,258.09 L 259.59,263.08 L 260.76,264.21 L 262.85,265.84 L 266.28,267.57 L 268.44,268.21 L 268.93,268.31 L 272.05,268.6 L 274.17,268.42 L 276.9,267.78 L 279.91,266.44 L 283.34,263.89 L 285.43,261.8 L 288.97,256.88 L 291.09,252.25 L 291.97,249.42 L 292.72,246.02 L 293.0,242.83 L 292.82,239.26 L 291.94,234.66 L 290.66,230.2 L 289.35,226.77 L 285.99,220.15 L 284.22,217.17 L 279.52,209.74 L 274.53,202.06 L 272.01,198.1 L 267.45,190.74 L 265.15,186.99 L 262.81,183.16 L 260.48,179.34 L 257.33,174.14 L 254.18,168.87 L 251.52,164.37 L 246.28,155.35 L 243.95,151.28 L 239.13,142.75 L 234.82,134.93 L 232.06,129.87 L 226.85,120.49 L 224.8,116.84 L 222.15,112.21 L 221.47,111.11 L 219.63,108.24 L 217.12,105.09 L 215.07,103.29 L 212.63,101.91 L 210.43,101.2 L 206.82,101.02 L 204.56,101.62 L 201.9,102.93 L 199.07,105.2 L 195.85,108.17 L 194.05,109.55 L 191.25,111.04 L 188.81,111.85 L 185.55,112.06 L 183.57,111.89 L 180.92,111.32 L 179.18,110.68 L 176.92,109.52 L 174.19,107.46 L 172.25,105.41 L 170.19,102.51 L 169.03,100.21 L 168.0,97.34 L 167.26,94.26 L 167.04,92.63 L 167.29,84.6 L 167.96,81.73 L 176.63,67.86 L 179.29,65.67 L 187.04,61.38 L 189.59,60.46 L 200.03,58.62 L 209.34,59.23 L 213.44,60.22 L 220.98,63.08 L 226.36,66.13 L 229.47,68.32 L 233.51,71.75 L 237.86,76.35 L 240.9,80.25 L 244.62,85.7 L 247.66,90.44 L 248.48,91.75 L 253.15,99.25 L 256.76,105.02 L 259.27,109.06 L 262.42,114.01 L 265.29,118.58 L 269.08,124.59 L 274.31,132.98 L 279.45,141.12 L 284.4,149.01 L 287.62,154.14 L 293.0,162.67 L 295.41,166.5 L 299.33,172.76 L 302.06,177.11 L 307.9,186.38 L 312.5,193.71 L 318.41,203.09 L 321.24,207.55 L 324.75,213.1 L 328.57,219.12 L 331.79,224.22 L 334.69,228.82 L 337.27,232.92 L 340.49,238.02 L 347.01,248.32 L 355.96,262.44 L 359.18,267.5 L 364.38,275.64 L 367.25,280.31 L 373.2,289.58 L 376.84,295.28 L 384.17,306.64 L 390.25,316.02 L 394.61,322.82 L 400.73,332.3 L 408.2,343.91 L 413.12,351.55 L 419.24,361.04 L 424.69,369.39 L 427.06,373.04 L 435.87,386.56 L 437.93,389.67 L 443.13,397.42 L 446.6,402.55 L 451.98,410.59 L 455.48,415.82 L 457.96,419.54 L 458.49,420.39 L 460.51,423.5 L 462.2,426.16 L 463.48,428.46 L 464.58,431.22 L 464.75,431.89 L 465.0,433.91 L 464.79,436.63 L 464.43,437.73 L 463.37,439.5 L 462.27,440.39 L 461.0,440.95 L 458.81,441.38 L 456.61,441.38 L 455.02,441.09 L 453.71,440.7 L 451.37,439.71 L 449.68,438.79 L 449.07,438.44 L 446.31,436.42 L 444.01,434.51 L 440.51,431.29 L 438.28,429.03 L 435.31,425.66 L 430.56,419.58 L 428.8,417.1 L 423.59,409.35 L 422.0,406.83 L 418.53,401.21 L 415.52,396.11 L 414.6,394.48 L 411.56,389.17 L 407.67,382.45 L 403.46,375.23 L 401.9,372.65 L 398.39,367.06 L 393.72,359.98 L 388.48,353.22 L 381.65,347.7 L 376.77,346.1 L 369.66,345.86 L 365.94,346.35 L 361.02,347.34 L 357.62,348.09 L 353.06,349.04 L 349.09,349.89 L 342.02,351.45 L 335.54,352.9 L 333.73,353.25 L 326.48,354.81 L 318.48,356.47 L 315.12,357.18 L 307.26,358.84 L 294.38,361.64 L 286.88,363.34 L 282.38,364.4 Z"
        stroke="white" stroke-width="4.5"
        fill="none" stroke-linecap="round" stroke-linejoin="round"/>
</svg>