<svg xmlns="http://www.w3.org/2000/svg" viewBox="0 0 500 500">
  <path d="M 143.44,324.88 L 144.63,323.38 L 149.6,316.87 L 152.62,312.7 L 156.41,307.51 L 156.89,306.83 L 161.71,300.24 L 166.97,292.83 L 171.69,285.89 L 174.26,282.0 L 176.86,278.1 L 179.55,274.26 L 184.69,267.4 L 187.16,264.4 L 190.63,260.56 L 194.75,256.74 L 196.77,255.19 L 201.57,252.5 L 205.61,251.0 L 209.83,250.05 L 214.99,249.53 L 216.74,249.48 L 226.6,249.93 L 231.72,250.62 L 235.56,251.12 L 241.95,251.5 L 246.27,251.42 L 249.64,251.12 L 255.48,249.85 L 257.95,249.03 L 261.92,247.33 L 266.76,244.46 L 272.9,239.62 L 275.72,236.92 L 279.99,232.6 L 283.93,228.73 L 287.53,225.39 L 290.5,222.77 L 290.77,222.57 L 296.19,218.1 L 300.9,215.46 L 304.37,214.98 L 306.87,215.26 L 308.92,215.93 L 310.21,216.63 L 311.84,217.88 L 312.91,218.98 L 314.61,221.85 L 315.48,224.62 L 315.86,226.54 L 316.18,229.78 L 316.48,232.85 L 318.65,239.17 L 319.77,240.69 L 321.02,241.94 L 323.52,243.66 L 325.24,244.21 L 327.21,244.01 L 328.24,243.51 L 329.48,242.61 L 330.26,241.89 L 331.55,240.49 L 332.53,239.24 L 333.3,238.12 L 334.28,236.45 L 335.3,234.38 L 335.6,233.68 L 336.17,232.23 L 337.67,227.59 L 338.47,224.37 L 338.74,223.14 L 339.37,219.57 L 339.69,214.56 L 339.34,209.34 L 338.94,206.92 L 338.24,203.9 L 335.77,197.59 L 334.0,194.39 L 332.13,191.6 L 330.01,188.87 L 326.09,184.86 L 322.24,181.56 L 317.6,177.94 L 313.13,174.5 L 308.97,171.13 L 307.17,169.66 L 304.77,167.63 L 298.76,162.47 L 294.47,158.8 L 292.32,156.95 L 288.6,153.76 L 284.21,150.01 L 279.76,146.19 L 274.05,141.18 L 269.88,137.51 L 265.01,133.24 L 261.42,130.1 L 256.83,126.08 L 252.51,122.31 L 245.49,116.22 L 241.45,112.7 L 236.58,108.33 L 234.09,106.08 L 230.74,103.09 L 225.73,98.72 L 218.14,93.13 L 212.75,90.51 L 209.2,89.44 L 205.88,89.01 L 202.14,89.01 L 196.92,90.04 L 193.03,92.08 L 191.26,93.7 L 189.39,96.4 L 188.11,98.9 L 187.81,99.59 L 186.92,102.42 L 186.42,106.63 L 186.27,109.95 L 186.09,113.02 L 185.74,115.67 L 184.84,118.64 L 183.72,120.69 L 181.72,123.06 L 180.15,124.35 L 178.83,125.18 L 177.31,125.93 L 175.41,126.5 L 172.81,126.65 L 171.84,126.53 L 170.59,126.13 L 168.84,125.25 L 167.42,124.15 L 165.8,122.46 L 164.83,121.01 L 163.83,119.09 L 163.18,117.34 L 162.63,115.27 L 162.33,113.25 L 162.28,110.88 L 162.46,108.11 L 163.08,104.21 L 163.8,101.42 L 164.3,99.89 L 166.15,95.13 L 167.25,92.71 L 174.64,79.28 L 176.56,76.48 L 178.43,73.94 L 180.88,70.92 L 184.22,67.2 L 188.71,62.85 L 194.15,58.26 L 198.87,54.94 L 204.29,51.9 L 208.98,49.78 L 211.97,48.63 L 215.39,47.48 L 220.86,45.93 L 224.4,45.08 L 228.45,44.28 L 237.18,43.01 L 241.75,42.51 L 245.49,42.11 L 251.81,41.46 L 256.05,41.04 L 262.44,40.37 L 269.31,39.62 L 272.78,39.24 L 280.56,38.37 L 285.78,37.72 L 294.07,36.62 L 298.46,36.05 L 306.82,35.17 L 313.83,35.0 L 319.85,35.9 L 324.47,37.27 L 327.99,38.84 L 332.03,41.34 L 337.59,46.06 L 340.94,50.33 L 342.66,53.3 L 344.51,57.19 L 345.78,60.36 L 347.03,63.98 L 349.1,71.29 L 350.87,78.7 L 351.25,80.35 L 353.04,90.14 L 354.17,98.2 L 355.07,106.78 L 355.47,111.95 L 355.79,119.34 L 355.89,122.81 L 355.94,126.3 L 356.06,130.67 L 356.36,136.86 L 356.79,141.63 L 357.26,145.1 L 358.69,152.43 L 359.73,156.7 L 366.8,176.57 L 368.37,181.06 L 369.29,184.68 L 369.84,190.42 L 368.87,198.23 L 367.62,203.65 L 366.45,208.17 L 365.67,211.44 L 364.75,216.35 L 364.33,220.4 L 364.3,223.92 L 364.8,227.69 L 366.5,232.8 L 369.44,238.24 L 373.31,244.83 L 374.21,246.73 L 375.88,252.27 L 376.08,256.12 L 375.71,258.99 L 374.76,262.4 L 373.54,265.4 L 369.89,271.14 L 365.27,275.36 L 361.41,277.65 L 358.61,279.1 L 353.79,281.9 L 350.25,284.82 L 344.71,290.66 L 340.99,295.33 L 338.07,299.77 L 335.67,303.99 L 333.65,307.78 L 331.9,311.28 L 330.16,314.84 L 326.29,322.78 L 324.37,326.82 L 322.94,329.77 L 320.97,333.89 L 318.85,338.36 L 315.96,344.45 L 314.48,347.49 L 312.44,351.71 L 309.62,357.52 L 306.05,364.89 L 303.6,369.98 L 300.01,377.47 L 298.66,380.21 L 296.71,384.23 L 291.89,394.19 L 290.72,396.59 L 286.15,405.77 L 283.96,410.16 L 280.69,416.58 L 278.97,419.95 L 276.47,424.74 L 273.92,429.56 L 272.85,431.53 L 269.83,437.02 L 267.41,441.26 L 264.19,446.53 L 260.4,451.87 L 257.38,455.44 L 254.83,457.99 L 249.29,461.88 L 246.29,463.28 L 240.53,464.88 L 235.86,465.0 L 227.82,462.88 L 226.33,462.15 L 219.59,457.04 L 215.59,452.27 L 212.42,447.15 L 211.05,444.61 L 209.38,441.41 L 205.96,435.37 L 203.49,431.63 L 200.82,427.94 L 198.55,424.84 L 197.15,422.97 L 194.38,419.2 L 191.38,415.21 L 188.96,412.06 L 186.49,408.94 L 184.72,406.79 L 179.18,400.41 L 166.9,387.55 L 164.9,386.35 L 161.48,385.2 L 158.24,385.08 L 156.81,385.33 L 155.44,385.8 L 154.12,386.48 L 151.5,388.4 L 150.15,389.45 L 149.4,389.97 L 146.18,391.39 L 144.68,391.57 L 141.91,391.2 L 141.21,391.0 L 138.34,389.92 L 136.07,388.6 L 134.38,387.28 L 132.98,385.83 L 130.86,383.21 L 128.56,380.16 L 126.71,376.69 L 125.47,373.42 L 124.54,369.9 L 124.02,365.89 L 123.92,360.77 L 123.99,359.85 L 124.64,355.48 L 125.37,352.66 L 127.24,347.94 L 129.01,344.62 L 130.76,341.85 L 132.65,339.18 L 135.12,335.74 L 137.7,332.24 Z"
        stroke="white" stroke-width="4.5"
        fill="none" stroke-linecap="round" stroke-linejoin="round"/>
</svg>