<svg xmlns="http://www.w3.org/2000/svg" viewBox="0 0 500 500">
  <path d="M 197.19,101.25 L 194.37,97.02 L 192.02,93.44 L 189.59,89.8 L 186.22,84.72 L 184.43,81.99 L 182.8,79.53 L 180.57,76.19 L 177.97,72.23 L 175.51,68.53 L 173.59,65.65 L 172.45,63.89 L 170.12,60.4 L 168.57,58.05 L 166.22,54.49 L 163.94,51.0 L 162.5,48.72 L 161.54,47.04 L 160.4,44.84 L 159.79,43.38 L 159.32,41.86 L 159.24,41.46 L 159.05,39.95 L 159.28,37.82 L 160.02,36.38 L 160.42,35.95 L 161.5,35.25 L 162.35,35.0 L 164.49,35.02 L 165.55,35.25 L 167.24,35.76 L 168.57,36.25 L 169.99,36.82 L 172.57,37.98 L 174.65,39.0 L 178.18,40.82 L 181.25,42.39 L 184.87,44.25 L 188.17,45.92 L 192.3,48.08 L 197.08,50.75 L 201.23,53.29 L 202.21,53.92 L 205.91,56.42 L 209.59,59.13 L 213.53,62.18 L 217.47,65.44 L 222.02,69.63 L 224.6,72.21 L 229.3,77.02 L 233.19,81.08 L 235.1,83.07 L 238.21,86.37 L 239.42,87.64 L 241.81,90.2 L 247.4,96.19 L 251.52,100.72 L 253.47,102.86 L 257.79,107.81 L 260.99,111.35 L 262.74,113.23 L 267.76,117.99 L 273.58,121.47 L 284.01,128.45 L 287.93,134.55 L 290.58,141.3 L 291.72,146.57 L 292.08,149.09 L 294.09,156.98 L 298.34,164.84 L 300.69,168.54 L 303.51,172.79 L 306.77,177.22 L 309.22,180.44 L 312.76,185.18 L 314.05,186.96 L 316.67,190.55 L 318.41,192.95 L 321.2,196.88 L 323.89,200.9 L 325.31,203.08 L 327.26,206.26 L 328.42,208.29 L 330.71,212.57 L 332.66,216.61 L 333.42,218.3 L 335.26,222.79 L 336.53,226.33 L 337.86,230.26 L 339.39,234.94 L 340.83,239.26 L 342.75,245.06 L 343.85,248.32 L 345.42,253.06 L 346.63,256.7 L 347.85,260.36 L 348.95,263.68 L 350.67,268.83 L 353.02,275.83 L 355.37,282.88 L 357.0,287.71 L 357.63,289.55 L 358.88,293.28 L 360.51,298.12 L 363.28,306.33 L 364.28,309.32 L 367.18,317.93 L 368.96,323.18 L 369.97,326.19 L 371.88,331.84 L 373.7,337.26 L 374.71,340.37 L 377.36,348.39 L 379.29,354.04 L 381.21,359.78 L 382.04,362.32 L 383.22,366.64 L 383.79,369.86 L 383.88,372.78 L 383.41,375.47 L 382.76,377.22 L 381.49,379.3 L 378.21,383.0 L 376.45,384.82 L 375.2,386.28 L 374.02,388.19 L 373.23,390.26 L 372.89,392.12 L 372.89,395.76 L 373.42,398.56 L 374.16,400.99 L 375.52,404.61 L 375.86,405.52 L 377.36,409.84 L 377.87,411.81 L 378.25,415.62 L 377.97,418.18 L 375.92,423.68 L 373.95,426.58 L 370.63,429.88 L 367.6,432.06 L 364.72,433.99 L 362.78,435.3 L 358.35,438.33 L 355.6,440.28 L 351.85,443.03 L 348.81,445.32 L 346.05,447.39 L 342.46,450.16 L 339.07,452.79 L 335.15,455.86 L 333.31,457.3 L 330.43,459.35 L 325.44,462.35 L 322.64,463.79 L 322.03,464.07 L 318.62,465.0 L 316.91,465.0 L 315.28,464.75 L 312.44,463.54 L 310.3,461.68 L 308.61,459.12 L 308.44,458.69 L 307.95,456.98 L 307.81,455.62 L 307.85,454.37 L 308.19,452.45 L 308.55,451.35 L 310.11,448.38 L 311.93,446.25 L 313.82,444.55 L 316.46,442.56 L 318.69,441.17 L 320.84,439.92 L 322.54,439.05 L 326.96,436.68 L 330.22,434.63 L 332.08,433.19 L 334.31,430.99 L 335.09,429.97 L 336.85,426.73 L 337.4,424.51 L 337.61,422.46 L 337.23,417.76 L 337.16,417.5 L 335.83,412.85 L 334.94,410.52 L 333.97,408.23 L 332.97,405.88 L 332.19,404.04 L 330.37,399.68 L 329.25,396.82 L 327.91,393.39 L 326.77,390.15 L 326.09,388.04 L 324.78,383.4 L 323.79,379.61 L 321.84,371.55 L 321.37,369.56 L 320.4,364.92 L 319.83,362.24 L 319.11,358.87 L 318.24,354.79 L 317.23,349.98 L 316.63,347.21 L 316.02,344.43 L 315.09,340.24 L 313.99,335.33 L 312.72,330.66 L 310.56,325.36 L 307.28,320.41 L 305.08,318.12 L 298.13,313.6 L 292.76,312.3 L 286.3,311.92 L 282.81,311.88 L 279.02,312.03 L 276.63,312.28 L 271.06,313.83 L 267.86,315.39 L 264.27,317.66 L 258.38,322.76 L 253.77,328.6 L 250.49,334.49 L 248.48,339.08 L 245.66,347.61 L 244.79,350.34 L 242.8,356.54 L 241.36,361.05 L 240.35,364.16 L 239.25,367.63 L 238.36,370.43 L 236.18,377.18 L 234.84,381.37 L 234.61,382.07 L 231.69,390.56 L 229.05,396.19 L 227.29,398.71 L 225.68,400.51 L 223.39,402.56 L 221.21,403.98 L 218.21,405.1 L 206.93,403.57 L 204.81,402.39 L 203.65,401.78 L 201.68,400.82 L 196.81,399.4 L 193.95,399.3 L 190.63,399.83 L 187.07,401.12 L 185.19,402.16 L 182.86,403.89 L 181.23,405.46 L 178.12,409.23 L 174.67,414.64 L 172.47,418.86 L 170.37,423.26 L 168.64,426.9 L 165.93,432.28 L 164.0,435.71 L 162.65,437.95 L 160.76,440.66 L 158.37,443.22 L 155.62,445.08 L 153.4,445.97 L 152.63,446.14 L 149.56,446.2 L 146.47,445.7 L 143.11,444.6 L 141.92,444.07 L 139.53,442.78 L 137.22,441.4 L 134.96,439.98 L 130.3,436.72 L 125.65,432.89 L 123.87,431.09 L 120.12,426.31 L 118.79,424.0 L 116.86,419.28 L 116.12,414.5 L 116.33,409.12 L 116.95,405.06 L 118.24,399.79 L 119.36,396.44 L 120.42,393.71 L 121.88,390.43 L 123.7,386.94 L 124.19,386.07 L 126.47,382.34 L 128.72,379.0 L 130.51,376.52 L 132.17,374.34 L 137.05,368.44 L 142.71,362.3 L 146.43,358.57 L 146.69,358.32 L 149.8,355.44 L 153.01,352.65 L 156.04,350.15 L 159.77,347.38 L 162.14,345.75 L 167.3,342.42 L 169.84,340.94 L 173.63,338.78 L 174.9,338.06 L 180.89,334.57 L 185.63,331.82 L 189.15,329.81 L 190.42,329.07 L 195.79,325.89 L 200.43,322.89 L 204.85,319.59 L 206.54,318.15 L 211.37,313.57 L 213.81,310.91 L 216.13,308.01 L 218.06,305.28 L 219.24,303.39 L 221.66,299.18 L 223.54,295.52 L 225.91,290.46 L 227.44,287.05 L 228.03,285.68 L 230.32,280.17 L 232.6,274.25 L 233.32,272.15 L 235.67,263.58 L 236.28,258.9 L 236.28,253.69 L 235.54,247.85 L 234.87,245.31 L 233.7,241.69 L 231.65,236.15 L 229.02,229.67 L 227.14,225.29 L 225.21,220.89 L 222.14,213.77 L 219.16,206.62 L 216.77,200.42 L 215.69,197.26 L 214.63,193.37 L 213.4,187.91 L 212.62,184.29 L 211.92,180.77 L 210.91,175.38 L 209.8,168.86 L 209.47,166.7 L 208.7,161.89 L 208.2,158.4 L 207.9,155.88 L 207.67,153.09 L 207.67,151.25 L 207.75,149.72 L 207.9,148.37 L 208.07,147.31 L 208.7,145.57 L 209.74,144.09 L 210.88,143.33 L 211.96,143.01 L 213.06,142.91 L 214.19,142.89 L 215.79,142.76 L 217.3,142.29 L 218.44,141.49 L 218.95,140.81 L 219.44,139.67 L 219.58,138.67 L 219.48,136.96 L 219.12,135.48 L 218.93,134.93 L 218.08,132.94 L 216.83,130.76 L 216.07,129.57 L 214.97,127.88 L 213.59,125.89 L 211.41,122.71 L 209.15,119.35 L 207.92,117.47 L 205.25,113.44 L 201.91,108.38 L 200.17,105.76 L 198.78,103.66 Z"
        stroke="white" stroke-width="4.5"
        fill="none" stroke-linecap="round" stroke-linejoin="round"/>
</svg>