<svg xmlns="http://www.w3.org/2000/svg" viewBox="0 0 500 500">
  <path d="M 371.27,220.89 L 373.52,223.51 L 377.82,228.55 L 382.66,234.22 L 385.45,237.49 L 388.51,241.05 L 390.64,243.53 L 392.06,245.19 L 396.14,249.95 L 400.24,254.77 L 402.42,257.32 L 405.61,261.03 L 408.81,264.76 L 411.02,267.35 L 413.0,269.66 L 415.47,272.56 L 419.33,277.1 L 422.31,280.63 L 426.04,285.04 L 429.82,289.47 L 431.82,291.85 L 436.88,297.76 L 441.2,302.82 L 444.0,306.09 L 451.65,315.14 L 457.45,322.08 L 459.39,324.52 L 461.86,327.86 L 464.45,333.83 L 465.0,336.84 L 465.0,341.56 L 463.78,347.18 L 463.08,349.63 L 461.79,353.18 L 460.09,355.95 L 457.39,358.37 L 454.86,359.66 L 451.96,360.42 L 449.27,360.64 L 447.53,360.55 L 444.98,360.05 L 444.34,359.86 L 442.34,358.98 L 438.19,355.67 L 436.82,353.9 L 435.1,351.35 L 432.57,347.18 L 431.1,344.61 L 429.51,341.73 L 427.55,338.31 L 426.39,336.32 L 424.67,333.62 L 423.12,331.43 L 420.92,328.6 L 417.56,325.09 L 413.87,322.43 L 409.99,320.77 L 406.67,320.07 L 403.19,319.77 L 400.33,319.59 L 393.98,318.13 L 391.95,317.06 L 389.18,314.94 L 385.67,310.34 L 384.43,307.18 L 382.86,301.6 L 382.14,299.11 L 381.26,296.01 L 380.48,293.59 L 378.1,289.4 L 375.0,286.37 L 372.74,284.82 L 370.53,283.71 L 367.94,282.82 L 362.64,282.07 L 356.9,281.75 L 353.48,281.4 L 348.2,279.89 L 345.56,278.5 L 342.79,276.47 L 340.89,274.7 L 339.25,272.83 L 336.83,268.68 L 336.16,266.63 L 335.79,262.49 L 336.29,259.7 L 340.32,249.53 L 342.18,244.8 L 343.01,242.09 L 343.35,239.63 L 343.18,236.55 L 341.74,232.39 L 339.43,228.9 L 336.42,226.0 L 333.34,224.12 L 328.54,221.9 L 322.9,219.47 L 319.67,218.43 L 315.96,217.58 L 311.53,216.83 L 308.98,216.57 L 305.73,216.44 L 301.13,216.55 L 295.28,217.23 L 293.34,217.73 L 289.81,218.93 L 284.83,221.09 L 282.11,222.51 L 278.03,224.95 L 273.99,228.13 L 271.11,231.1 L 267.38,235.88 L 265.09,239.0 L 261.91,243.21 L 258.51,247.7 L 254.91,252.06 L 253.08,254.26 L 249.39,258.34 L 247.14,259.85 L 244.63,260.68 L 239.38,261.57 L 235.82,262.18 L 233.01,262.64 L 229.21,263.23 L 225.72,263.71 L 223.65,263.84 L 220.42,263.8 L 217.06,263.36 L 214.29,262.29 L 212.4,260.59 L 211.0,258.34 L 210.46,257.03 L 209.63,253.74 L 209.32,251.3 L 209.15,249.6 L 208.84,247.18 L 208.43,245.15 L 207.64,241.64 L 206.94,238.45 L 206.11,234.63 L 205.5,231.73 L 204.74,228.22 L 203.89,224.32 L 202.78,219.17 L 201.99,215.35 L 201.51,212.97 L 200.64,208.72 L 199.88,204.42 L 199.24,200.04 L 199.07,197.23 L 199.59,191.84 L 200.29,189.02 L 201.71,185.08 L 203.54,181.06 L 204.65,178.77 L 206.16,175.48 L 207.18,172.01 L 207.29,170.96 L 207.18,169.72 L 206.68,168.19 L 205.53,166.73 L 204.33,165.95 L 203.3,165.64 L 201.75,165.62 L 199.72,166.32 L 198.96,166.82 L 197.56,168.19 L 197.22,168.65 L 194.45,173.63 L 192.9,176.53 L 191.78,178.53 L 189.86,181.78 L 188.32,184.27 L 186.77,186.63 L 185.72,188.26 L 184.61,189.92 L 181.97,193.76 L 180.7,195.48 L 179.33,197.18 L 176.89,199.84 L 173.68,202.7 L 171.59,204.31 L 167.81,206.71 L 164.82,208.04 L 159.46,209.46 L 153.77,210.18 L 148.4,210.57 L 146.48,210.62 L 138.65,210.05 L 133.39,209.14 L 128.46,207.87 L 125.52,207.0 L 122.25,205.89 L 119.0,204.71 L 115.44,203.31 L 109.36,200.67 L 105.39,198.47 L 101.07,195.57 L 97.19,192.51 L 91.93,187.24 L 90.1,185.01 L 86.26,179.41 L 84.4,175.94 L 81.48,169.26 L 80.35,166.6 L 79.37,164.27 L 78.12,161.32 L 75.7,155.78 L 73.89,152.21 L 72.87,150.27 L 71.32,147.47 L 69.83,145.27 L 67.15,142.61 L 62.53,140.19 L 61.65,139.95 L 54.87,139.36 L 51.8,139.56 L 48.24,140.1 L 44.92,140.97 L 40.78,142.74 L 39.12,143.79 L 37.53,145.2 L 36.64,146.3 L 35.37,148.45 L 35.0,159.4 L 35.65,161.15 L 38.45,166.01 L 41.87,169.87 L 43.62,171.53 L 46.97,174.35 L 49.2,176.07 L 49.88,176.59 L 52.89,178.82 L 56.96,181.78 L 60.96,184.55 L 62.5,185.6 L 65.41,187.48 L 68.9,189.7 L 73.61,192.54 L 78.47,195.33 L 81.09,196.77 L 84.34,198.51 L 89.42,201.2 L 91.54,202.26 L 97.1,204.95 L 99.61,206.08 L 104.69,208.26 L 106.3,208.92 L 112.96,211.43 L 119.91,213.87 L 123.91,215.24 L 130.6,217.51 L 133.96,218.65 L 138.67,220.24 L 143.43,221.83 L 149.53,223.86 L 150.91,224.32 L 157.28,226.45 L 158.3,226.8 L 162.43,228.18 L 165.85,229.36 L 168.6,230.27 L 175.14,232.45 L 178.61,233.63 L 181.71,234.68 L 184.48,235.59 L 188.62,236.99 L 194.18,238.84 L 197.3,239.89 L 202.17,241.55 L 206.35,242.94 L 209.12,243.88 L 212.27,244.93 L 218.61,246.08 L 222.12,245.71 L 227.93,243.95 L 233.68,241.66 L 236.28,240.48 L 239.7,238.71 L 244.07,236.14 L 246.53,234.5 L 252.05,230.49 L 256.43,226.76 L 259.34,224.03 L 263.55,220.06 L 266.45,217.34 L 269.06,214.83 L 272.12,211.73 L 274.43,209.4 L 276.74,207.11 L 280.47,203.38 L 282.24,201.65 L 282.78,201.15 L 284.09,199.97 L 288.28,197.25 L 290.81,196.38 L 292.4,196.11 L 295.0,196.31 L 297.03,197.42 L 297.57,197.86 L 299.05,199.19 L 300.34,200.06 L 301.32,200.45 L 302.65,200.72 L 304.99,200.61 L 306.23,200.26 L 308.41,199.08 L 309.76,197.95 L 311.36,196.38 L 312.51,195.28 L 314.24,193.87 L 315.7,192.86 L 318.27,191.58 L 321.54,190.79 L 325.12,190.51 L 328.61,190.62 L 332.58,191.14 L 335.92,191.99 L 339.84,193.3 L 343.46,194.8 L 345.49,195.85 L 349.64,198.43 L 350.79,199.23 L 355.64,203.36 L 359.26,207.0 L 361.2,209.07 L 363.38,211.62 L 365.69,214.37 L 370.29,219.76 Z"
        stroke="white" stroke-width="4.5"
        fill="none" stroke-linecap="round" stroke-linejoin="round"/>
</svg>