<svg xmlns="http://www.w3.org/2000/svg" viewBox="0 0 500 500"><path fill="none" stroke="#fff" stroke-linecap="round" stroke-linejoin="round" stroke-width="4.5" d="M 341.34,436.96 L 343.92,434.03 L 346.81,430.81 L 352.33,424.66 L 355.77,420.84 L 357.86,418.48 L 363.22,412.5 L 364.7,410.85 L 368.08,407.12 L 370.02,404.96 L 371.65,403.17 L 373.46,401.08 L 375.16,398.43 L 375.69,397.17 L 376.11,395.47 L 376.22,393.8 L 375.97,391.83 L 374.96,389.27 L 373.83,387.6 L 373.77,387.51 L 372.05,385.83 L 370.64,384.89 L 369.49,384.31 L 368.5,383.94 L 366.31,383.36 L 365.19,383.21 L 363.29,383.08 L 361.81,383.12 L 359.58,383.45 L 358.17,383.8 L 355.86,384.66 L 354.95,385.11 L 353.1,386.12 L 351.71,387.0 L 349.66,388.44 L 348.07,389.69 L 346.48,391.11 L 344.43,393.11 L 342.8,394.77 L 341.06,396.42 L 339.47,397.86 L 338.01,398.94 L 336.22,399.97 L 332.83,401.12 L 329.52,401.47 L 325.62,401.01 L 322.66,400.19 L 319.28,398.78 L 317.56,397.86 L 316.44,397.17 L 314.45,395.76 L 313.09,394.57 L 310.53,391.79 L 309.25,390.0 L 307.77,387.4 L 306.67,384.82 L 305.76,381.44 L 305.06,377.03 L 304.79,374.43 L 304.4,370.04 L 304.0,364.33 L 303.93,363.4 L 303.53,357.14 L 303.27,352.95 L 303.14,350.34 L 302.94,346.04 L 302.81,342.69 L 302.56,336.53 L 302.32,330.64 L 302.3,329.94 L 302.1,325.0 L 301.92,320.74 L 301.75,316.06 L 301.66,313.17 L 301.46,307.7 L 301.22,301.06 L 301.11,297.73 L 301.02,294.98 L 300.93,292.73 L 300.82,289.35 L 300.65,284.43 L 300.4,277.59 L 300.23,272.63 L 300.03,266.48 L 299.92,263.39 L 299.76,259.15 L 299.56,253.33 L 299.3,246.34 L 299.01,238.11 L 298.77,230.83 L 298.62,226.33 L 298.46,221.74 L 298.31,217.49 L 298.2,214.38 L 298.13,212.39 L 298.02,209.37 L 297.98,208.07 L 297.89,205.84 L 297.93,204.41 L 298.11,202.22 L 298.33,200.74 L 298.4,200.48 L 299.19,197.55 L 299.79,195.98 L 300.34,194.88 L 300.67,194.3 L 301.15,193.6 L 302.39,192.34 L 303.53,191.63 L 304.99,191.15 L 306.23,190.95 L 308.3,190.84 L 309.84,190.82 L 310.66,190.82 L 312.58,190.82 L 315.25,190.82 L 318.36,190.8 L 319.59,190.8 L 321.8,190.77 L 324.71,190.75 L 327.62,190.73 L 330.58,190.71 L 334.48,190.69 L 337.81,190.66 L 340.99,190.58 L 344.23,190.22 L 348.07,189.34 L 351.11,188.33 L 354.64,186.83 L 358.11,184.91 L 362.03,182.39 L 364.5,180.5 L 367.0,178.11 L 369.89,174.76 L 371.69,172.29 L 373.08,170.13 L 374.52,167.52 L 376.04,164.04 L 376.66,162.32 L 377.74,158.11 L 377.96,156.67 L 378.03,153.56 L 377.87,152.33 L 377.54,150.92 L 377.21,150.01 L 376.64,148.73 L 375.97,147.69 L 375.36,146.97 L 374.56,146.28 L 374.12,146.02 L 372.6,145.33 L 371.21,144.92 L 369.18,144.14 L 367.37,142.8 L 365.5,139.42 L 365.32,137.86 L 365.39,136.71 L 365.54,135.94 L 366.14,134.08 L 366.49,133.29 L 367.0,132.28 L 367.44,131.46 L 368.23,130.05 L 369.73,127.45 L 370.61,125.79 L 371.28,124.31 L 371.69,123.19 L 372.0,122.02 L 372.27,120.36 L 372.27,120.14 L 372.29,118.98 L 372.2,117.98 L 371.98,116.77 L 371.65,115.73 L 371.16,114.72 L 370.7,114.01 L 369.86,113.15 L 368.67,112.42 L 367.72,112.09 L 366.14,111.85 L 365.03,111.81 L 363.78,111.81 L 363.05,111.83 L 362.17,111.85 L 359.65,111.94 L 356.52,111.98 L 355.75,111.98 L 353.47,112.05 L 351.31,112.09 L 349.0,112.14 L 347.41,112.16 L 344.67,112.23 L 343.24,112.27 L 340.99,112.29 L 338.61,112.36 L 335.5,112.45 L 333.71,112.49 L 331.66,112.51 L 329.74,112.56 L 323.65,112.56 L 321.51,112.56 L 317.65,112.53 L 316.53,112.53 L 313.64,112.51 L 310.13,112.51 L 307.33,112.49 L 303.65,112.49 L 301.17,112.45 L 298.02,112.29 L 293.28,111.78 L 290.68,111.34 L 287.74,110.81 L 283.57,109.82 L 279.07,108.32 L 273.4,105.89 L 270.4,104.28 L 267.27,102.19 L 265.11,100.49 L 261.16,96.61 L 259.15,94.18 L 256.9,91.03 L 255.07,88.05 L 253.75,85.6 L 252.05,82.09 L 250.57,78.83 L 249.38,76.23 L 247.15,71.35 L 244.66,66.08 L 243.34,63.48 L 241.15,59.71 L 239.5,57.3 L 234.93,52.05 L 228.69,46.65 L 226.66,45.21 L 222.8,42.9 L 216.45,40.05 L 214.07,39.26 L 212.02,38.66 L 202.99,36.63 L 201.58,36.37 L 199.51,35.95 L 196.95,35.49 L 195.19,35.18 L 193.66,35.0 L 192.16,35.02 L 190.27,35.55 L 189.52,36.01 L 187.88,37.6 L 187.44,38.2 L 186.52,39.94 L 186.32,40.54 L 185.94,41.93 L 185.63,43.43 L 185.08,45.63 L 184.44,47.57 L 183.23,50.37 L 182.33,52.34 L 181.38,54.26 L 180.65,55.8 L 179.17,58.93 L 177.69,62.18 L 177.3,63.01 L 175.93,65.84 L 174.91,67.82 L 173.7,70.12 L 172.4,72.45 L 169.51,77.55 L 167.06,81.83 L 165.87,83.92 L 164.24,86.84 L 162.91,89.26 L 160.84,93.19 L 159.5,95.75 L 157.03,100.38 L 154.0,105.98 L 152.55,108.7 L 148.82,116.11 L 147.76,118.34 L 146.17,121.89 L 144.63,125.48 L 143.53,128.15 L 142.2,131.5 L 140.11,137.35 L 138.56,142.27 L 137.53,145.84 L 136.09,150.87 L 133.82,158.83 L 132.78,162.5 L 131.72,166.55 L 131.06,169.16 L 130.25,172.51 L 129.23,177.03 L 128.24,181.84 L 127.58,185.15 L 127.09,187.84 L 125.9,195.16 L 124.86,202.95 L 124.25,208.44 L 123.65,215.15 L 123.1,224.66 L 122.97,228.25 L 122.84,235.84 L 122.81,246.74 L 122.84,250.35 L 122.88,255.56 L 122.9,259.18 L 122.95,263.59 L 122.97,268.02 L 122.99,271.22 L 123.03,274.84 L 123.06,278.85 L 123.1,283.29 L 123.14,288.91 L 123.17,292.13 L 123.19,298.17 L 123.17,302.61 L 123.14,306.65 L 123.12,307.46 L 123.08,317.17 L 123.06,321.6 L 123.03,324.91 L 122.99,331.77 L 122.92,340.68 L 122.9,345.93 L 122.88,349.17 L 122.84,356.47 L 122.79,365.78 L 122.72,375.11 L 122.64,382.39 L 122.57,386.45 L 122.53,391.3 L 122.44,397.79 L 122.35,406.28 L 122.24,414.77 L 122.2,419.27 L 122.15,423.38 L 122.13,425.65 L 122.09,428.45 L 122.06,430.88 L 122.04,432.75 L 122.0,435.07 L 121.97,437.52 L 121.97,439.17 L 122.04,441.99 L 122.2,443.74 L 122.24,444.24 L 122.48,445.7 L 122.7,446.71 L 123.01,447.66 L 123.89,449.71 L 124.62,450.99 L 125.04,451.59 L 125.77,452.47 L 126.25,452.96 L 127.34,453.79 L 128.31,454.3 L 129.47,454.7 L 130.8,454.96 L 132.34,455.16 L 133.78,455.43 L 134.81,455.78 L 135.23,455.96 L 136.45,456.6 L 137.39,457.24 L 138.43,458.01 L 139.38,458.76 L 144.87,462.79 L 147.72,463.99 L 149.48,464.38 L 152.04,464.65 L 155.94,464.78 L 157.25,464.82 L 159.34,464.89 L 161.83,464.98 L 163.2,465.0 L 164.64,465.0 L 166.09,464.96 L 169.33,464.87 L 171.36,464.8 L 173.5,464.76 L 177.61,464.65 L 181.77,464.54 L 185.35,464.47 L 188.57,464.38 L 192.78,464.25 L 197.13,464.14 L 199.2,464.1 L 203.15,463.99 L 207.19,463.85 L 210.03,463.76 L 213.89,463.65 L 215.5,463.59 L 222.25,463.41 L 224.83,463.37 L 229.95,463.3 L 234.14,463.32 L 240.49,463.37 L 246.58,463.5 L 246.93,463.5 L 253.11,463.54 L 256.79,463.54 L 260.85,463.52 L 263.83,463.5 L 271.33,463.43 L 277.35,463.32 L 282.29,463.24 L 286.88,463.13 L 290.59,462.95 L 298.64,462.55 L 304.04,462.13 L 307.09,461.69 L 312.69,460.32 L 317.72,458.29 L 326.76,452.65 L 329.59,450.29 L 331.97,447.84 L 335.78,443.56 Z"/></svg>