<svg xmlns="http://www.w3.org/2000/svg" viewBox="0 0 500 500">
  <path d="M 310.05,397.24 L 310.42,402.94 L 310.46,406.39 L 310.44,407.54 L 309.99,415.66 L 309.38,421.48 L 308.95,424.96 L 308.43,429.53 L 308.16,432.01 L 307.91,435.43 L 307.84,437.93 L 308.0,440.49 L 308.25,442.16 L 308.92,444.39 L 310.28,446.81 L 312.27,448.98 L 313.67,450.09 L 315.43,451.22 L 318.14,452.71 L 319.14,453.27 L 320.33,454.22 L 320.92,454.92 L 321.53,456.44 L 321.6,457.32 L 321.44,458.61 L 321.26,459.42 L 320.97,460.28 L 319.99,462.11 L 318.41,463.71 L 315.84,464.73 L 313.28,465.0 L 310.19,465.0 L 306.6,464.71 L 304.54,464.37 L 301.51,463.62 L 297.42,462.36 L 292.91,460.82 L 289.24,459.33 L 285.07,457.21 L 281.2,454.83 L 279.24,453.52 L 277.52,452.33 L 273.59,449.48 L 270.13,446.81 L 266.95,444.24 L 262.2,440.42 L 259.24,438.0 L 256.62,435.79 L 254.36,433.55 L 251.94,430.39 L 251.13,428.87 L 250.68,427.49 L 250.47,425.71 L 250.93,421.89 L 251.11,420.02 L 250.93,416.47 L 250.68,415.02 L 250.27,413.42 L 249.44,411.45 L 248.17,409.49 L 245.53,406.1 L 244.08,404.29 L 241.75,401.44 L 237.69,396.59 L 235.74,394.49 L 232.06,391.1 L 229.71,389.18 L 226.32,386.49 L 224.33,384.93 L 221.26,382.22 L 217.08,376.64 L 215.7,373.61 L 213.76,368.14 L 212.79,363.62 L 212.54,360.96 L 212.4,357.23 L 212.43,354.16 L 212.52,350.09 L 212.68,346.34 L 213.01,340.92 L 213.15,337.55 L 213.06,335.13 L 212.52,331.52 L 211.82,329.15 L 210.89,327.27 L 209.63,325.67 L 208.38,324.69 L 206.24,323.84 L 204.77,323.65 L 203.59,323.68 L 201.92,323.77 L 200.23,323.93 L 198.96,323.97 L 196.79,323.88 L 195.19,323.61 L 193.04,322.77 L 190.94,321.42 L 190.1,320.7 L 188.68,319.25 L 186.31,316.0 L 185.13,313.83 L 184.09,311.21 L 183.78,310.21 L 182.6,305.29 L 181.95,301.22 L 181.68,299.14 L 181.5,297.74 L 180.84,291.96 L 180.48,288.45 L 180.01,283.42 L 179.8,281.16 L 179.53,277.88 L 179.19,273.2 L 179.01,270.49 L 178.9,268.44 L 178.72,265.0 L 178.51,259.74 L 178.4,255.13 L 178.4,251.9 L 178.4,250.81 L 178.67,241.71 L 178.85,238.39 L 179.33,232.44 L 179.62,229.44 L 180.14,224.94 L 180.77,220.4 L 181.74,214.35 L 183.03,207.91 L 184.34,202.21 L 185.36,198.03 L 186.08,195.01 L 186.85,191.66 L 187.55,188.48 L 188.39,184.84 L 189.81,180.1 L 190.74,178.06 L 192.88,175.78 L 194.65,175.03 L 196.68,174.56 L 200.27,173.36 L 203.05,171.62 L 207.05,167.31 L 207.91,165.86 L 209.2,163.17 L 210.01,161.03 L 211.34,156.71 L 212.43,152.44 L 213.04,149.98 L 214.08,145.71 L 214.84,142.52 L 215.57,139.25 L 216.43,134.98 L 217.26,130.3 L 217.69,127.77 L 218.21,124.56 L 218.91,119.97 L 219.39,116.65 L 219.84,113.31 L 220.47,107.53 L 220.94,100.97 L 221.1,96.77 L 221.24,90.42 L 221.24,85.79 L 221.19,82.22 L 220.94,77.16 L 220.4,72.53 L 218.87,64.73 L 218.23,61.93 L 217.4,58.43 L 216.34,53.87 L 215.61,50.68 L 214.8,46.82 L 214.35,44.42 L 214.08,42.84 L 213.9,41.21 L 213.83,40.08 L 213.96,38.46 L 214.21,37.58 L 214.73,36.65 L 216.13,35.45 L 217.15,35.09 L 218.53,35.0 L 219.05,35.09 L 219.7,35.34 L 220.72,36.08 L 221.37,36.88 L 221.98,37.82 L 222.5,38.91 L 223.07,40.38 L 223.5,41.85 L 224.11,44.69 L 224.56,48.53 L 224.7,50.27 L 224.94,53.32 L 225.24,55.7 L 225.89,59.2 L 227.25,63.76 L 228.83,67.96 L 230.39,71.69 L 231.41,74.09 L 233.96,80.14 L 235.13,82.92 L 237.46,88.32 L 238.95,91.73 L 240.51,95.26 L 242.95,100.86 L 244.31,104.02 L 246.09,108.23 L 247.18,110.82 L 248.83,114.8 L 251.29,120.88 L 253.41,126.39 L 255.45,132.04 L 258.99,143.29 L 260.14,147.38 L 261.45,152.26 L 262.22,155.27 L 263.08,158.7 L 263.8,161.75 L 264.73,165.59 L 266.11,171.4 L 266.92,174.9 L 268.84,183.12 L 269.86,187.44 L 271.71,195.35 L 273.27,202.1 L 275.6,212.07 L 276.05,214.05 L 277.16,218.87 L 278.24,223.7 L 280.05,231.56 L 280.95,235.52 L 282.15,240.6 L 283.21,245.05 L 284.18,249.1 L 285.43,254.36 L 286.22,257.59 L 287.28,262.06 L 288.7,268.14 L 289.56,271.71 L 290.4,275.24 L 291.46,279.85 L 292.05,282.65 L 292.5,285.74 L 292.59,288.23 L 292.16,290.74 L 291.48,292.34 L 290.37,294.19 L 289.22,296.16 L 288.32,298.42 L 287.84,302.15 L 287.91,305.02 L 288.05,306.48 L 288.41,309.1 L 289.02,312.31 L 289.95,316.2 L 290.85,319.48 L 291.84,322.86 L 292.48,325.01 L 293.11,327.2 L 294.44,331.99 L 295.37,335.52 L 297.02,341.91 L 298.21,346.63 L 298.94,349.52 L 300.02,353.7 L 300.79,356.66 L 301.83,360.66 L 302.89,364.73 L 303.89,368.5 L 304.88,372.3 L 305.63,375.1 L 306.44,378.29 L 307.14,381.13 L 307.77,383.87 L 308.54,387.5 L 309.15,390.85 Z"
        stroke="white" stroke-width="4.5"
        fill="none" stroke-linecap="round" stroke-linejoin="round"/>
</svg>