<svg xmlns="http://www.w3.org/2000/svg" viewBox="0 0 500 500">
  <path d="M 221.31,278.18 L 226.09,277.61 L 229.2,277.25 L 233.8,276.75 L 239.2,276.15 L 242.46,275.77 L 246.53,275.3 L 250.98,274.79 L 255.78,274.27 L 259.6,273.84 L 263.44,273.39 L 266.53,273.03 L 272.38,272.38 L 277.51,271.8 L 285.09,270.95 L 289.09,270.5 L 295.47,269.82 L 301.14,269.34 L 306.04,268.44 L 309.36,267.08 L 311.49,265.55 L 313.4,263.16 L 314.36,260.98 L 314.81,259.09 L 315.21,253.59 L 315.11,250.3 L 315.06,249.25 L 314.73,246.01 L 314.18,242.14 L 313.63,238.95 L 313.1,236.26 L 312.27,232.34 L 311.07,227.37 L 309.23,220.66 L 307.12,213.78 L 306.14,211.16 L 303.38,205.64 L 301.65,203.48 L 300.67,202.5 L 296.9,199.76 L 294.24,198.48 L 287.86,196.34 L 284.34,195.21 L 283.28,194.86 L 273.76,191.47 L 271.2,190.24 L 267.94,187.68 L 265.27,184.86 L 262.13,180.39 L 260.78,177.66 L 259.32,173.28 L 258.54,166.78 L 258.74,162.86 L 259.32,158.19 L 260.15,152.79 L 261.25,146.23 L 262.21,140.78 L 262.79,137.64 L 263.61,132.92 L 264.14,129.75 L 265.2,120.93 L 265.42,117.27 L 265.55,111.14 L 265.55,108.68 L 265.52,104.58 L 265.32,96.72 L 265.17,93.38 L 264.77,85.24 L 264.32,79.03 L 263.72,71.15 L 263.39,66.98 L 262.58,58.21 L 262.13,54.19 L 261.23,48.64 L 261.03,47.74 L 260.47,45.6 L 259.62,43.21 L 257.64,39.5 L 255.78,37.39 L 254.3,36.23 L 251.68,35.1 L 249.35,35.0 L 246.94,35.83 L 245.55,36.68 L 244.02,37.91 L 242.59,39.45 L 240.13,43.52 L 239.47,45.02 L 238.8,46.83 L 238.14,48.74 L 236.96,52.41 L 235.63,56.7 L 234.63,59.92 L 233.85,62.41 L 232.84,65.55 L 230.71,72.43 L 229.13,77.4 L 228.32,79.94 L 226.76,84.81 L 224.53,91.49 L 221.77,99.36 L 220.18,103.9 L 219.33,106.37 L 217.95,110.31 L 215.51,117.22 L 213.3,123.55 L 208.23,138.09 L 206.29,143.57 L 205.89,144.75 L 202.72,153.87 L 199.91,161.93 L 197.32,169.27 L 195.04,175.85 L 193.73,179.56 L 192.12,184.14 L 189.66,191.22 L 186.57,200.04 L 185.27,203.75 L 183.94,207.57 L 182.75,210.96 L 179.61,219.91 L 177.53,225.91 L 175.72,231.06 L 174.36,234.93 L 172.51,240.08 L 171.25,243.52 L 168.74,250.43 L 167.0,255.17 L 165.42,259.52 L 163.54,264.72 L 161.33,270.77 L 157.74,280.27 L 154.09,290.39 L 152.28,295.79 L 150.8,300.69 L 150.55,301.75 L 149.85,305.31 L 149.77,306.09 L 149.62,308.43 L 149.67,310.54 L 150.05,312.77 L 150.4,313.85 L 150.83,314.71 L 151.71,315.74 L 152.33,316.14 L 153.62,316.44 L 155.75,316.27 L 156.4,316.14 L 158.39,315.74 L 160.42,315.41 L 162.99,315.56 L 165.15,316.54 L 166.73,318.28 L 168.06,321.09 L 168.76,323.2 L 169.57,326.26 L 170.37,329.53 L 171.07,332.44 L 172.05,336.29 L 172.76,338.82 L 173.46,341.13 L 174.29,343.52 L 175.32,346.26 L 176.63,349.32 L 178.31,352.94 L 179.69,355.4 L 181.52,358.47 L 183.28,361.18 L 184.41,362.81 L 186.45,365.6 L 189.76,369.72 L 194.18,374.54 L 197.4,377.63 L 200.46,380.42 L 204.81,384.16 L 207.47,386.43 L 213.53,391.5 L 216.59,394.09 L 220.28,397.23 L 225.31,401.45 L 226.56,402.53 L 231.96,407.1 L 236.49,410.89 L 240.03,413.91 L 247.26,419.96 L 255.48,426.67 L 262.13,431.67 L 268.69,436.16 L 275.45,440.46 L 280.47,443.37 L 289.71,447.99 L 296.3,450.93 L 298.78,452.04 L 302.5,453.67 L 310.04,456.79 L 314.28,458.44 L 317.62,459.72 L 319.58,460.5 L 327.54,463.62 L 331.09,464.7 L 333.3,465.0 L 336.16,464.85 L 340.86,463.42 L 343.97,461.63 L 346.16,459.75 L 347.94,457.51 L 349.9,453.24 L 350.38,449.78 L 350.25,447.29 L 349.47,443.45 L 348.75,441.26 L 347.79,439.15 L 345.53,435.36 L 342.47,431.62 L 336.76,427.65 L 331.34,426.37 L 330.99,426.32 L 319.61,424.88 L 316.89,424.38 L 313.8,423.9 L 306.34,423.18 L 299.81,422.67 L 293.88,422.22 L 286.0,421.54 L 281.1,420.86 L 277.43,419.99 L 272.76,418.13 L 272.41,417.95 L 264.67,413.5 L 260.47,410.64 L 256.41,407.5 L 255.55,406.72 L 249.22,398.91 L 248.19,396.77 L 246.61,392.2 L 245.81,389.11 L 244.7,383.13 L 244.32,378.89 L 244.42,374.24 L 244.72,372.18 L 245.23,370.2 L 246.23,368.29 L 246.41,368.06 L 248.82,366.46 L 250.55,366.03 L 253.19,365.8 L 253.84,365.8 L 255.83,365.93 L 257.36,366.1 L 267.26,364.19 L 269.02,362.86 L 270.72,361.31 L 272.86,358.39 L 273.66,356.26 L 274.29,352.21 L 274.44,350.35 L 274.54,346.74 L 273.84,341.59 L 273.06,339.58 L 271.78,337.47 L 270.62,336.11 L 266.4,332.87 L 263.04,331.46 L 259.97,330.91 L 257.36,330.89 L 254.95,331.04 L 251.68,331.44 L 245.86,332.34 L 242.61,332.79 L 238.95,333.27 L 236.44,333.6 L 231.64,334.25 L 227.37,334.93 L 222.67,335.76 L 215.41,336.94 L 212.27,337.24 L 208.8,337.22 L 203.6,336.09 L 197.35,333.22 L 192.58,328.9 L 189.99,325.11 L 188.21,322.19 L 186.27,318.95 L 182.63,312.85 L 180.19,308.2 L 178.99,305.29 L 177.78,301.4 L 176.8,296.09 L 176.6,292.35 L 176.6,291.92 L 177.05,287.43 L 177.71,285.49 L 179.49,283.11 L 180.72,282.33 L 183.33,281.48 L 186.85,281.07 L 189.96,280.85 L 194.71,280.19 L 198.3,279.92 L 204.66,279.59 L 206.09,279.52 L 209.51,279.34 L 212.87,279.16 L 217.09,278.74 Z"
        stroke="white" stroke-width="4.5"
        fill="none" stroke-linecap="round" stroke-linejoin="round"/>
</svg>