<svg xmlns="http://www.w3.org/2000/svg" viewBox="0 0 500 500"><path fill="none" stroke="#fff" stroke-linecap="round" stroke-linejoin="round" stroke-width="4.5" d="M 105.05,188.87 L 109.26,178.64 L 112.84,169.84 L 117.04,159.57 L 123.99,142.58 L 127.62,133.68 L 131.69,123.37 L 134.52,114.96 L 136.78,107.09 L 139.08,98.72 L 141.12,91.42 L 141.47,90.18 L 143.91,83.06 L 147.75,75.27 L 151.12,71.29 L 154.08,68.9 L 158.42,66.91 L 161.52,66.24 L 166.25,66.24 L 168.82,66.77 L 170.37,67.26 L 173.69,68.99 L 177.71,73.28 L 180.19,78.15 L 180.94,80.71 L 181.48,84.96 L 181.43,87.93 L 180.77,92.57 L 180.24,95.01 L 178.51,100.8 L 177.36,104.25 L 175.77,108.64 L 173.38,114.96 L 171.39,119.65 L 169.7,123.42 L 166.16,131.25 L 163.11,138.37 L 160.94,144.13 L 158.77,152.98 L 158.15,161.16 L 158.38,167.27 L 158.64,170.32 L 159.61,183.6 L 159.22,188.64 L 155.85,197.1 L 149.39,203.47 L 141.87,207.5 L 132.93,210.95 L 129.43,212.23 L 122.49,214.93 L 114.74,219.36 L 111.11,223.25 L 108.81,228.34 L 108.33,232.85 L 108.68,236.04 L 110.54,240.91 L 114.52,244.84 L 120.76,247.77 L 126.74,248.25 L 132.62,247.23 L 140.01,245.07 L 145.81,243.3 L 150.32,241.79 L 154.39,240.2 L 161.3,237.63 L 171.74,234.09 L 183.42,230.91 L 189.26,229.75 L 196.48,228.87 L 201.34,228.47 L 208.2,228.25 L 220.9,228.87 L 231.88,230.42 L 239.05,231.75 L 240.99,232.14 L 247.59,233.43 L 256.7,235.06 L 265.47,236.17 L 269.54,236.44 L 275.02,236.48 L 285.96,235.29 L 294.01,233.25 L 301.22,230.55 L 312.55,224.75 L 319.28,220.73 L 325.3,217.01 L 334.54,211.74 L 344.85,207.19 L 353.0,204.84 L 360.56,203.51 L 365.87,202.98 L 374.24,202.45 L 384.95,202.19 L 395.66,202.14 L 405.57,202.27 L 420.0,202.98 L 431.99,204.84 L 442.39,208.82 L 447.12,211.79 L 453.85,217.81 L 457.65,222.67 L 461.86,230.46 L 463.23,234.27 L 465.0,244.89 L 464.07,257.37 L 462.74,262.46 L 460.26,268.52 L 456.99,274.45 L 454.16,279.01 L 445.97,291.88 L 443.85,295.25 L 438.27,304.41 L 432.83,314.41 L 428.54,323.57 L 427.47,326.09 L 424.46,332.91 L 418.62,344.81 L 414.82,350.25 L 404.29,357.29 L 394.2,359.46 L 388.75,359.77 L 383.93,359.77 L 372.56,358.79 L 362.42,356.8 L 355.96,354.9 L 346.85,351.23 L 341.31,348.26 L 334.23,343.08 L 329.46,338.44 L 326.4,334.41 L 323.92,328.66 L 323.66,325.34 L 323.75,324.68 L 325.12,320.74 L 326.53,318.44 L 329.63,314.76 L 331.89,312.64 L 334.46,310.56 L 336.76,308.97 L 339.41,307.33 L 342.02,305.96 L 345.34,304.41 L 352.6,301.84 L 355.92,300.91 L 355.96,300.91 L 361.1,299.89 L 362.87,299.58 L 369.77,298.61 L 377.56,297.37 L 384.2,295.96 L 387.69,295.03 L 394.46,292.81 L 399.99,290.2 L 404.42,287.02 L 408.0,282.28 L 409.42,278.43 L 409.86,272.37 L 409.2,268.39 L 408.49,266.17 L 406.85,262.77 L 405.92,261.26 L 403.84,258.7 L 402.07,256.97 L 399.82,255.2 L 394.64,252.59 L 388.71,250.86 L 384.99,250.15 L 378.53,249.14 L 374.19,248.52 L 373.31,248.38 L 366.89,247.54 L 361.1,246.88 L 352.47,246.13 L 344.99,245.82 L 334.46,246.04 L 329.85,246.3 L 322.2,246.92 L 313.17,248.03 L 308.26,248.74 L 298.35,250.55 L 290.78,252.19 L 283.83,253.87 L 272.24,257.01 L 259.93,260.73 L 255.42,262.19 L 241.57,266.88 L 226.92,272.06 L 216.97,275.82 L 210.95,278.21 L 201.12,282.28 L 191.21,286.66 L 190.24,287.11 L 184.04,290.16 L 180.55,291.88 L 174.13,294.32 L 170.81,294.45 L 167.49,293.17 L 164.88,291.04 L 161.12,287.33 L 158.95,285.65 L 157.93,284.98 L 155.01,283.61 L 152.76,282.99 L 147.45,282.59 L 144.75,282.95 L 143.77,283.21 L 140.59,284.58 L 137.27,287.24 L 135.81,289.05 L 134.26,292.11 L 133.51,294.76 L 133.2,297.99 L 133.37,301.18 L 133.9,305.25 L 134.3,307.77 L 135.19,313.04 L 136.25,319.1 L 137.18,324.32 L 138.68,333.08 L 139.79,339.37 L 144.92,368.71 L 146.16,374.95 L 147.75,383.09 L 149.7,393.13 L 150.85,399.99 L 151.38,406.68 L 150.99,411.9 L 146.21,423.18 L 144.26,425.57 L 138.24,430.39 L 128.73,433.49 L 119.92,433.76 L 107.57,433.23 L 95.54,432.47 L 87.35,431.24 L 77.26,428.45 L 71.42,426.19 L 64.07,422.52 L 58.68,419.07 L 54.07,415.39 L 45.13,405.66 L 41.77,400.66 L 38.14,393.44 L 35.71,385.79 L 35.0,380.48 L 35.49,370.65 L 36.9,363.75 L 40.27,354.5 L 42.88,348.53 L 46.37,339.99 L 48.72,333.97 L 51.33,327.24 L 54.21,319.72 L 57.7,310.78 L 63.37,296.13 L 67.44,285.51 L 73.23,270.47 L 76.11,263.03 L 81.07,250.02 L 85.58,238.38 L 88.15,231.79 L 91.51,223.16 L 94.08,216.48 L 96.64,209.84 L 101.16,198.38 Z"/></svg>